<?xml version="1.0" encoding="utf-8"?>
<!-- Generator: Adobe Illustrator 19.0.0, SVG Export Plug-In . SVG Version: 6.00 Build 0)  -->
<svg version="1.1" id="Layer_1" xmlns="http://www.w3.org/2000/svg" xmlns:xlink="http://www.w3.org/1999/xlink" x="0px" y="0px"
	 viewBox="0 0 20 20" style="enable-background:new 0 0 20 20;" xml:space="preserve">
<style type="text/css">
	.st0{fill:#FFFFFF;}
</style>
<path id="XMLID_1_" class="st0" d="M10,16.9L10,16.9c-0.7,0-1.3-0.6-1.3-1.3V4.4c0-0.7,0.6-1.3,1.3-1.3h0c0.7,0,1.3,0.6,1.3,1.3
	v11.2C11.3,16.3,10.7,16.9,10,16.9z"/>
<path id="XMLID_2_" class="st0" d="M16.9,10L16.9,10c0,0.7-0.6,1.3-1.3,1.3H4.4c-0.7,0-1.3-0.6-1.3-1.3v0c0-0.7,0.6-1.3,1.3-1.3
	h11.2C16.3,8.7,16.9,9.3,16.9,10z"/>
</svg>
