<svg id="Group_1827" data-name="Group 1827" xmlns="http://www.w3.org/2000/svg" width="14.159" height="17.521" viewBox="0 0 14.159 17.521">
  <g id="notification" transform="translate(0 0)">
    <g id="Group_5" data-name="Group 5" transform="translate(0 0)">
      <path id="Path_426" data-name="Path 426" d="M13.8,14.027a.133.133,0,0,1-.133-.133V8.811A5.6,5.6,0,0,0,9.277,3.354a1.49,1.49,0,1,0-2.4,0A5.6,5.6,0,0,0,2.49,8.811v5.083a.133.133,0,0,1-.133.133A1.346,1.346,0,0,0,1.006,15.2a1.3,1.3,0,0,0,1.3,1.437H5.877a2.233,2.233,0,0,0,4.4,0h3.574a1.3,1.3,0,0,0,1.3-1.437A1.345,1.345,0,0,0,13.8,14.027ZM7.333,2.476a.745.745,0,1,1,.745.745A.745.745,0,0,1,7.333,2.476Zm.745,15.277a1.49,1.49,0,0,1-1.437-1.118H9.516A1.49,1.49,0,0,1,8.079,17.753Zm6.19-2.047a.551.551,0,0,1-.414.184H2.3a.559.559,0,0,1-.556-.618.6.6,0,0,1,.609-.5.88.88,0,0,0,.879-.878V8.811a4.844,4.844,0,0,1,9.688,0v5.083a.879.879,0,0,0,.878.878.6.6,0,0,1,.609.5A.557.557,0,0,1,14.268,15.706Z" transform="translate(-0.999 -0.977)"/>
    </g>
  </g>
</svg>
