<?xml version="1.0" encoding="utf-8"?>
<!-- Generator: Adobe Illustrator 19.0.0, SVG Export Plug-In . SVG Version: 6.00 Build 0)  -->
<svg version="1.1" id="Layer_1" xmlns="http://www.w3.org/2000/svg" xmlns:xlink="http://www.w3.org/1999/xlink" x="0px" y="0px"
	 viewBox="5 -5 20 20" style="enable-background:new 5 -5 20 20;" xml:space="preserve">
<style type="text/css">
	.st0{fill:#2963AD;}
</style>
<g id="Iconly_Bold_Image" transform="translate(-2 -2)">
	<g id="Image" transform="translate(2 2)">
		<path id="Path_1033" class="st0" d="M19.3-5C22.7-5,25-2.6,25,0.9v8.2c0,3.5-2.3,5.9-5.7,5.9h-8.7C7.3,15,5,12.6,5,9.1V0.9
			C5-2.6,7.3-5,10.7-5H19.3z M20.4,5.6c-0.7-0.4-1.7-0.2-2.1,0.6c-0.2,0.3-0.4,0.6-0.6,0.9c-0.4,0.9-1.1,1.7-2,2.2
			c-1,0.5-2.3,0.4-3.2-0.4c-0.3-0.2-0.5-0.4-0.8-0.5c-0.7-0.3-1.3,0-2.2,1.2c-0.5,0.6-0.9,1.2-1.4,1.8c-0.3,0.3-0.2,0.8,0.1,1.1
			c0,0,0,0,0.1,0C9,12.8,9.8,13,10.5,13H19c0.5,0,1-0.1,1.4-0.2c1-0.3,1.9-1.1,2.3-2.1c0.4-0.9,0.5-1.8,0.2-2.7
			c-0.1-0.3-0.3-0.6-0.5-0.8C21.7,6.5,21.1,6,20.4,5.6L20.4,5.6z M11.5-1C10.1-1,9,0.1,9,1.5S10.1,4,11.5,4S14,2.9,14,1.5
			S12.9-1,11.5-1z"/>
	</g>
</g>
</svg>
