<?xml version="1.0" encoding="utf-8"?>
<!-- Generator: Adobe Illustrator 19.0.0, SVG Export Plug-In . SVG Version: 6.00 Build 0)  -->
<svg version="1.1" id="Layer_1" xmlns="http://www.w3.org/2000/svg" xmlns:xlink="http://www.w3.org/1999/xlink" x="0px" y="0px"
	 viewBox="0 0 14 14" style="enable-background:new 0 0 14 14;" xml:space="preserve">
<style type="text/css">
	.st0{fill:#FFFFFF;}
</style>
<path id="XMLID_4_" class="st0" d="M12.7,10.8L8.9,7.1l3.7-3.7c0.5-0.5,0.5-1.4,0-1.9s-1.4-0.5-1.9,0L7,5.2L3.3,1.4
	c-0.5-0.5-1.4-0.5-1.9,0s-0.5,1.4,0,1.9l3.7,3.8l-3.7,3.7c-0.5,0.5-0.5,1.4,0,1.9s1.4,0.5,1.9,0L7,8.9l3.7,3.7
	c0.5,0.5,1.4,0.5,1.9,0C13.2,12.2,13.2,11.4,12.7,10.8z"/>
</svg>
