<?xml version="1.0" encoding="utf-8"?>
<!-- Generator: Adobe Illustrator 19.0.0, SVG Export Plug-In . SVG Version: 6.00 Build 0)  -->
<svg version="1.1" id="Layer_1" xmlns="http://www.w3.org/2000/svg" xmlns:xlink="http://www.w3.org/1999/xlink" x="0px" y="0px"
	 viewBox="0 0 20 20" style="enable-background:new 0 0 20 20;" xml:space="preserve">
<style type="text/css">
	.st0{fill:none;stroke:#000000;stroke-width:2;stroke-miterlimit:10;}
</style>
<path id="XMLID_1_" class="st0" d="M17.4,19H2.6c-0.7,0-1.2-0.6-1.2-1.2V4.3C1.4,3.6,1.9,3,2.6,3h14.7c0.7,0,1.2,0.6,1.2,1.2v13.5
	C18.6,18.4,18.1,19,17.4,19z"/>
<line id="XMLID_2_" class="st0" x1="1.4" y1="8.3" x2="18.6" y2="8.3"/>
<g id="XMLID_7_">
	<g id="XMLID_4_">
		<path id="XMLID_3_" d="M6.6,11.8H4.4c-0.3,0-0.6-0.3-0.6-0.6v0c0-0.3,0.3-0.6,0.6-0.6h2.1c0.3,0,0.6,0.3,0.6,0.6v0
			C7.1,11.6,6.9,11.8,6.6,11.8z"/>
		<path id="XMLID_5_" d="M6.6,14.3H4.4c-0.3,0-0.6-0.3-0.6-0.6v0c0-0.3,0.3-0.6,0.6-0.6h2.1c0.3,0,0.6,0.3,0.6,0.6v0
			C7.1,14,6.9,14.3,6.6,14.3z"/>
		<path id="XMLID_6_" d="M6.6,16.7H4.4c-0.3,0-0.6-0.3-0.6-0.6v0c0-0.3,0.3-0.6,0.6-0.6h2.1c0.3,0,0.6,0.3,0.6,0.6v0
			C7.1,16.5,6.9,16.7,6.6,16.7z"/>
	</g>
	<g id="XMLID_8_">
		<path id="XMLID_11_" d="M15.6,11.8h-2.1c-0.3,0-0.6-0.3-0.6-0.6v0c0-0.3,0.3-0.6,0.6-0.6h2.1c0.3,0,0.6,0.3,0.6,0.6v0
			C16.1,11.6,15.9,11.8,15.6,11.8z"/>
		<path id="XMLID_10_" d="M15.6,14.3h-2.1c-0.3,0-0.6-0.3-0.6-0.6v0c0-0.3,0.3-0.6,0.6-0.6h2.1c0.3,0,0.6,0.3,0.6,0.6v0
			C16.1,14,15.9,14.3,15.6,14.3z"/>
		<path id="XMLID_9_" d="M15.6,16.7h-2.1c-0.3,0-0.6-0.3-0.6-0.6v0c0-0.3,0.3-0.6,0.6-0.6h2.1c0.3,0,0.6,0.3,0.6,0.6v0
			C16.1,16.5,15.9,16.7,15.6,16.7z"/>
	</g>
	<g id="XMLID_12_">
		<path id="XMLID_15_" d="M11.1,11.8H8.9c-0.3,0-0.6-0.3-0.6-0.6v0c0-0.3,0.3-0.6,0.6-0.6h2.1c0.3,0,0.6,0.3,0.6,0.6v0
			C11.6,11.6,11.4,11.8,11.1,11.8z"/>
		<path id="XMLID_14_" d="M11.1,14.3H8.9c-0.3,0-0.6-0.3-0.6-0.6v0c0-0.3,0.3-0.6,0.6-0.6h2.1c0.3,0,0.6,0.3,0.6,0.6v0
			C11.6,14,11.4,14.3,11.1,14.3z"/>
		<path id="XMLID_13_" d="M11.1,16.7H8.9c-0.3,0-0.6-0.3-0.6-0.6v0c0-0.3,0.3-0.6,0.6-0.6h2.1c0.3,0,0.6,0.3,0.6,0.6v0
			C11.6,16.5,11.4,16.7,11.1,16.7z"/>
	</g>
</g>
<g id="XMLID_17_">
	<path id="XMLID_16_" d="M5,5.8L5,5.8C4.5,5.8,4.2,5.5,4.2,5V1c0-0.4,0.4-0.8,0.8-0.8h0c0.4,0,0.8,0.4,0.8,0.8V5
		C5.8,5.5,5.4,5.8,5,5.8z"/>
	<path id="XMLID_18_" d="M15,5.8L15,5.8c-0.4,0-0.8-0.4-0.8-0.8V1c0-0.4,0.4-0.8,0.8-0.8h0c0.4,0,0.8,0.4,0.8,0.8V5
		C15.8,5.5,15.5,5.8,15,5.8z"/>
</g>
</svg>
