<?xml version="1.0" encoding="utf-8"?>
<!-- Generator: Adobe Illustrator 19.0.0, SVG Export Plug-In . SVG Version: 6.00 Build 0)  -->
<svg version="1.1" id="Layer_1" xmlns="http://www.w3.org/2000/svg" xmlns:xlink="http://www.w3.org/1999/xlink" x="0px" y="0px"
	 viewBox="0 0 25 25" style="enable-background:new 0 0 25 25;" xml:space="preserve">
<style type="text/css">
	.st0{fill:#214187;}
</style>
<g id="mail" transform="translate(0 -76)">
	<g id="Group_1909" transform="translate(14.675 77.072)">
		<g id="Group_1908">
			<path id="Path_978" class="st0" d="M10.1,3.6l-7.6,7.5l7.6,7.5c0.1-0.3,0.2-0.6,0.2-0.9V4.5C10.3,4.2,10.3,3.9,10.1,3.6z"/>
		</g>
	</g>
	<g id="Group_1911" transform="translate(1.072 76)">
		<g id="Group_1910">
			<path id="Path_979" class="st0" d="M21.7,3.4H1.1c-0.3,0-0.6,0.1-0.9,0.2l9.7,9.6c0.9,0.9,2.2,0.9,3.1,0l9.7-9.6
				C22.4,3.5,22.1,3.4,21.7,3.4z"/>
		</g>
	</g>
	<g id="Group_1913" transform="translate(0 77.072)">
		<g id="Group_1912">
			<path id="Path_980" class="st0" d="M0.2,3.6C0.1,3.9,0,4.2,0,4.5v13.2c0,0.3,0.1,0.6,0.2,0.9l7.6-7.5L0.2,3.6z"/>
		</g>
	</g>
	<g id="Group_1915" transform="translate(1.072 84.384)">
		<g id="Group_1914">
			<path id="Path_981" class="st0" d="M15.1,4.9L14,5.9c-1.4,1.4-3.7,1.4-5.2,0L7.8,4.9l-7.6,7.5c0.3,0.1,0.6,0.2,0.9,0.2h20.6
				c0.3,0,0.6-0.1,0.9-0.2L15.1,4.9z"/>
		</g>
	</g>
</g>
</svg>
