<?xml version="1.0" encoding="utf-8"?>
<!-- Generator: Adobe Illustrator 19.0.0, SVG Export Plug-In . SVG Version: 6.00 Build 0)  -->
<svg version="1.1" id="Layer_1" xmlns="http://www.w3.org/2000/svg" xmlns:xlink="http://www.w3.org/1999/xlink" x="0px" y="0px"
	 viewBox="0 0 25 25" style="enable-background:new 0 0 25 25;" xml:space="preserve">
<style type="text/css">
	.st0{fill:#214187;}
</style>
<g id="XMLID_30_" transform="translate(-65)">
	<path id="XMLID_31_" class="st0" d="M85.1,11.2H74.2V6.3c0-2.4,1.9-4.3,4.3-4.3c2.4,0,4.3,1.9,4.3,4.3c0,0,0,0,0,0v2
		c0,0.5,0.4,1,1,1c0.5,0,1-0.4,1-1v-2c0-3.5-2.8-6.3-6.2-6.3c-3.5,0-6.3,2.8-6.3,6.3v4.9h-0.3c-0.9,0-1.6,0.7-1.6,1.6v10.5
		c0,0.9,0.7,1.6,1.6,1.6h13.2c0.9,0,1.6-0.7,1.6-1.6V12.8C86.7,11.9,86,11.2,85.1,11.2z M76.5,16.8c0-1.1,0.9-2,2-2c1.1,0,2,0.9,2,2
		c0,0.7-0.4,1.4-1,1.7v2.9h-2v-2.9C76.9,18.1,76.5,17.5,76.5,16.8z"/>
</g>
</svg>
