<?xml version="1.0" encoding="utf-8"?>
<!-- Generator: Adobe Illustrator 19.0.0, SVG Export Plug-In . SVG Version: 6.00 Build 0)  -->
<svg version="1.1" id="Layer_1" xmlns="http://www.w3.org/2000/svg" xmlns:xlink="http://www.w3.org/1999/xlink" x="0px" y="0px"
	 viewBox="5 -5 20.8 20" style="enable-background:new 5 -5 20.8 20;" xml:space="preserve">
<style type="text/css">
	.st0{fill:#7F7F7F;}
</style>
<g id="Iconly_Bold_Logout" transform="translate(-2 -2)">
	<g id="Logout" transform="translate(2 2)">
		<path id="Path_1034" class="st0" d="M14.5-5C17-5,19-3,19-0.6l0,0v4.8h-6.1c-0.4,0-0.8,0.3-0.8,0.8c0,0.4,0.3,0.8,0.8,0.8
			c0,0,0,0,0,0H19v4.8c0,2.5-2,4.5-4.5,4.5h-5C7,15,5,13,5,10.6l0,0V-0.6C5-3,7-5,9.5-5H14.5z M21.5,1.6c0.3-0.3,0.8-0.3,1.1,0
			c0,0,0,0,0,0l0,0l2.9,2.9c0.1,0.1,0.2,0.3,0.2,0.6c0,0.2-0.1,0.4-0.2,0.5l0,0l-2.9,2.9c-0.3,0.3-0.8,0.3-1.1,0
			c-0.3-0.3-0.3-0.8,0-1.1l0,0l1.6-1.6H19V4.2h4.1l-1.6-1.6C21.2,2.3,21.2,1.9,21.5,1.6C21.5,1.5,21.5,1.5,21.5,1.6z"/>
	</g>
</g>
</svg>
