<?xml version="1.0" encoding="utf-8"?>
<!-- Generator: Adobe Illustrator 19.0.0, SVG Export Plug-In . SVG Version: 6.00 Build 0)  -->
<svg version="1.1" id="Layer_1" xmlns="http://www.w3.org/2000/svg" xmlns:xlink="http://www.w3.org/1999/xlink" x="0px" y="0px"
	 viewBox="0.5 -0.4 22 22" style="enable-background:new 0.5 -0.4 22 22;" xml:space="preserve">
<style type="text/css">
	.st0{fill:#919191;}
</style>
<g id="photo-camera" transform="translate(0 -47.104)">
	<g id="Group_1795" transform="translate(0 47.104)">
		<g id="Group_1794" transform="translate(0 0)">
			<path id="Path_866" class="st0" d="M19.5,5.1h-2.2l-1.2-1.8c-0.5-0.7-1.2-1.1-2.1-1.1H9c-0.8,0-1.6,0.4-2.1,1.1L5.7,5.1H3.5
				C2.1,5.1,1,6.2,1,7.6c0,0,0,0,0,0v8.9C1,17.9,2.1,19,3.5,19c0,0,0,0,0,0h16c1.4,0,2.5-1.1,2.5-2.5c0,0,0,0,0,0V7.6
				C22,6.2,20.9,5.1,19.5,5.1C19.5,5.1,19.5,5.1,19.5,5.1z M11.5,16.9c-3.1,0-5.7-2.5-5.6-5.7s2.5-5.7,5.7-5.6
				c3.1,0,5.7,2.5,5.6,5.7C17.2,14.4,14.6,16.9,11.5,16.9L11.5,16.9z M19.2,8.6h-1c-0.4,0-0.7-0.4-0.7-0.8c0-0.4,0.3-0.7,0.7-0.7
				h0.9c0.4,0,0.8,0.3,0.8,0.7c0,0,0,0,0,0C19.9,8.3,19.6,8.6,19.2,8.6C19.2,8.6,19.2,8.6,19.2,8.6L19.2,8.6z"/>
		</g>
	</g>
	<g id="Group_1797" transform="translate(7.364 53.073)">
		<g id="Group_1796">
			<path id="Path_867" class="st0" d="M4.2,2.2C2.4,2.2,1,3.6,1,5.3c0,1.7,1.4,3.1,3.2,3.1c1.7,0,3.1-1.4,3.1-3.2c0,0,0,0,0,0
				C7.3,3.6,5.9,2.2,4.2,2.2z"/>
		</g>
	</g>
</g>
</svg>
