<?xml version="1.0" encoding="utf-8"?>
<!-- Generator: Adobe Illustrator 19.0.0, SVG Export Plug-In . SVG Version: 6.00 Build 0)  -->
<svg version="1.1" id="Layer_1" xmlns="http://www.w3.org/2000/svg" xmlns:xlink="http://www.w3.org/1999/xlink" x="0px" y="0px"
	 viewBox="-492 494.6 13.5 13.4" style="enable-background:new -492 494.6 13.5 13.4;" xml:space="preserve">
<style type="text/css">
	.st0{fill:#FFFFFF;}
</style>
<path class="st0" d="M-479.1,506.6l-2.8-2.8c0.9-1.1,1.3-2.4,1.2-3.8c-0.1-1.5-0.8-2.8-1.9-3.8c-1.1-1-2.5-1.4-4-1.3
	c-1.5,0.1-2.8,0.8-3.8,1.9c-1,1.1-1.4,2.5-1.3,4c0.1,1.5,0.8,2.8,1.9,3.8c2,1.7,5,1.8,7,0.1l2.8,2.8c0.1,0.1,0.3,0.2,0.4,0.2
	c0.2,0,0.3-0.1,0.4-0.2C-478.9,507.2-478.9,506.9-479.1,506.6z M-482,500.4c0,2.3-1.9,4.2-4.2,4.2c-2.3,0-4.2-1.9-4.2-4.2
	c0-2.3,1.9-4.2,4.2-4.2c0,0,0,0,0,0C-483.9,496.2-482,498.1-482,500.4z"/>
</svg>
