<?xml version="1.0" encoding="utf-8"?>
<!-- Generator: Adobe Illustrator 19.0.0, SVG Export Plug-In . SVG Version: 6.00 Build 0)  -->
<svg version="1.1" id="Layer_1" xmlns="http://www.w3.org/2000/svg" xmlns:xlink="http://www.w3.org/1999/xlink" x="0px" y="0px"
	 viewBox="0 0 20 20" style="enable-background:new 0 0 20 20;" xml:space="preserve">
<g id="XMLID_1_">
	<circle id="XMLID_2_" cx="10" cy="10" r="2.9"/>
	<path id="XMLID_15_" d="M19.4,8.9h-1.7c-0.5-3.5-3.2-6.2-6.7-6.7V0.6c0-0.3-0.2-0.5-0.5-0.5H9.4c-0.3,0-0.5,0.2-0.5,0.5v1.7
		C5.4,2.7,2.7,5.4,2.2,8.9H0.6c-0.3,0-0.5,0.2-0.5,0.5v1.3c0,0.3,0.2,0.5,0.5,0.5h1.7c0.5,3.5,3.2,6.2,6.7,6.7v1.7
		c0,0.3,0.2,0.5,0.5,0.5h1.3c0.3,0,0.5-0.2,0.5-0.5v-1.7c3.5-0.5,6.2-3.2,6.7-6.7h1.7c0.3,0,0.5-0.2,0.5-0.5V9.4
		C19.9,9.1,19.7,8.9,19.4,8.9z M10,15.9c-3.2,0-5.9-2.6-5.9-5.9S6.8,4.1,10,4.1s5.9,2.6,5.9,5.9S13.2,15.9,10,15.9z"/>
</g>
</svg>
