<?xml version="1.0" encoding="utf-8"?>
<!-- Generator: Adobe Illustrator 19.0.0, SVG Export Plug-In . SVG Version: 6.00 Build 0)  -->
<svg version="1.1" id="Layer_1" xmlns="http://www.w3.org/2000/svg" xmlns:xlink="http://www.w3.org/1999/xlink" x="0px" y="0px"
	 viewBox="-172 295.9 250 250" style="enable-background:new -172 295.9 250 250;" xml:space="preserve">
<style type="text/css">
	.st0{fill:#043B8B;}
</style>
<g>
	<g>
		<g>
			<g>
				<path id="SVGID_18_" d="M47.4,325.4l-0.7,4.1h-0.8l-0.7-4.1v4.1h-0.8v-5.3h1.4l0.5,3.3l0.5-3.3h1.4v5.3h-0.8V325.4L47.4,325.4z
					 M42.5,325.9c0.5,0.2,0.8,0.3,1,0.5s0.3,0.3,0.4,0.6c0.1,0.3,0.1,0.5,0.1,0.8s-0.1,0.7-0.2,0.9c-0.1,0.3-0.3,0.5-0.5,0.7
					s-0.5,0.2-0.8,0.2c-0.6,0-1-0.2-1.2-0.5s-0.3-0.8-0.4-1.3l1-0.1c0,0.3,0.1,0.5,0.1,0.6c0.1,0.2,0.3,0.3,0.5,0.3s0.3,0,0.3-0.2
					c0.1-0.1,0.1-0.3,0.1-0.4s0-0.3-0.1-0.4s-0.3-0.2-0.5-0.3c-0.5-0.2-0.8-0.4-1-0.6c-0.2-0.3-0.3-0.6-0.3-1c0-0.3,0.1-0.5,0.2-0.8
					s0.2-0.4,0.5-0.6c0.2-0.1,0.5-0.2,0.8-0.2c0.4,0,0.7,0.1,1,0.4c0.2,0.3,0.3,0.7,0.4,1.2l-1,0.1c0-0.3-0.1-0.4-0.2-0.5
					s-0.2-0.2-0.3-0.2c-0.1,0-0.2,0-0.3,0.1c-0.1,0.1-0.1,0.2-0.1,0.3c0,0.1,0,0.2,0.1,0.2C42.2,325.8,42.3,325.9,42.5,325.9
					L42.5,325.9z M48.6,363.3c0,0-3.8,43.3-40.8,53.9c-51.2,14.6-76.5-9.4-76.5-9.4s34.2,7.3,58.6-5.9
					c24.3-13.1,28.2-38.5,28.2-38.5H8.4l26.4-39.6l23.4,39.6h-9.6V363.3z M-76.9,314.7c-31.1,11.5-34.5,42.3-34.5,42.3h10.1
					l-26.4,38.9l-23-38.9h9.5c0,0,0.3-46.7,47.9-57c47.9-10.5,69.8,12,69.8,12S-50.5,304.9-76.9,314.7L-76.9,314.7z M55.4,515.3
					h-206.1V513H55.4V515.3L55.4,515.3z M-141,528.5h-3.1v11.7h-3v-11.7h-3.1v-3.9h9.2V528.5L-141,528.5z M-137.3,530.8
					c0.2-0.8,0.5-1.4,0.8-1.6c0.3-0.3,0.6-0.5,1-0.5s0.8,0.2,1.3,0.6l-0.8,3.1c-0.3-0.2-0.6-0.3-0.8-0.3c-0.3,0-0.6,0.3-0.8,0.7
					c-0.3,0.7-0.4,1.9-0.4,3.7v3.8h-2.8V529h2.5V530.8L-137.3,530.8z M-132,533.9c1-0.3,1.7-0.5,2-0.7c0.3-0.1,0.6-0.3,1-0.5
					c0-0.5-0.1-0.9-0.2-1.1c-0.1-0.2-0.4-0.3-0.7-0.3c-0.5,0-0.8,0.1-1,0.3c-0.2,0.2-0.3,0.5-0.4,1l-2.6-0.4
					c0.1-0.7,0.2-1.3,0.4-1.7c0.2-0.4,0.5-0.8,0.8-1.1c0.2-0.2,0.6-0.4,1-0.5s0.9-0.2,1.4-0.2c0.8,0,1.5,0.1,2,0.2
					c0.5,0.1,0.9,0.5,1.2,0.9c0.2,0.3,0.4,0.8,0.6,1.4c0.1,0.6,0.2,1.1,0.2,1.7v5c0,0.5,0,0.9,0.1,1.3c0.1,0.3,0.1,0.7,0.3,1.1h-2.5
					c-0.1-0.3-0.2-0.5-0.2-0.7s-0.1-0.4-0.1-0.7c-0.3,0.5-0.7,0.9-1.1,1.2c-0.5,0.3-1,0.5-1.7,0.5c-0.8,0-1.5-0.3-1.9-0.9
					c-0.5-0.6-0.7-1.4-0.7-2.3c0-0.8,0.2-1.6,0.5-2.1C-133.4,534.5-132.8,534.2-132,533.9L-132,533.9z M-131.3,537.7
					c0.2,0.2,0.4,0.3,0.7,0.3c0.3,0,0.6-0.1,0.8-0.3c0.3-0.3,0.5-0.5,0.6-0.8s0.2-0.8,0.2-1.3v-0.7c-0.4,0.2-0.8,0.4-1.2,0.5
					c-0.6,0.3-0.9,0.5-1,0.7c-0.2,0.3-0.2,0.5-0.2,0.8C-131.5,537.2-131.4,537.5-131.3,537.7L-131.3,537.7z M-122.3,530.7
					c0.4-0.8,0.8-1.3,1.1-1.6c0.4-0.3,0.8-0.5,1.4-0.5c0.7,0,1.3,0.3,1.7,1.1c0.4,0.7,0.6,1.8,0.6,3.3v7.2h-2.7V534
					c0-0.7-0.1-1.2-0.2-1.5c-0.2-0.3-0.4-0.4-0.7-0.4s-0.6,0.2-0.8,0.6c-0.2,0.4-0.3,1.1-0.3,2.2v5.4h-2.6V529h2.5V530.7
					L-122.3,530.7z M-113.1,537.7c0.2,0.2,0.5,0.3,0.8,0.3c0.4,0,0.6-0.1,0.8-0.4c0.2-0.2,0.2-0.4,0.2-0.7s-0.1-0.5-0.3-0.7
					c-0.2-0.1-0.5-0.3-1.2-0.5c-1-0.3-1.6-0.5-2-0.7s-0.7-0.6-0.9-1.1s-0.4-1.1-0.4-1.8c0-0.8,0.1-1.4,0.4-1.9
					c0.3-0.5,0.6-0.9,1.1-1.2s1.1-0.4,1.9-0.4c0.8,0,1.5,0.1,1.9,0.3s0.7,0.5,1,1c0.3,0.4,0.5,1,0.7,1.7l-2.6,0.4
					c-0.1-0.4-0.2-0.6-0.3-0.8c-0.2-0.2-0.5-0.3-0.8-0.3s-0.5,0.1-0.7,0.3c-0.1,0.2-0.2,0.4-0.2,0.6c0,0.3,0.1,0.5,0.3,0.6
					s0.6,0.3,1.2,0.4c0.9,0.2,1.6,0.4,2,0.7c0.5,0.3,0.8,0.7,1,1.2s0.3,1.1,0.3,1.8c0,0.6-0.1,1.3-0.4,1.9c-0.2,0.6-0.6,1.1-1.2,1.5
					c-0.5,0.4-1.2,0.5-2.2,0.5c-1.3,0-2.2-0.3-2.8-0.9c-0.6-0.6-0.9-1.4-1.1-2.5l2.7-0.4C-113.4,537.2-113.3,537.5-113.1,537.7
					L-113.1,537.7z M-104,536.2h-3.9v-3.3h3.9V536.2L-104,536.2z M-100.5,525.1c0.7-0.5,1.6-0.8,2.7-0.8c1.1,0,1.9,0.2,2.4,0.5
					s1,0.8,1.3,1.4c0.3,0.7,0.6,1.5,0.8,2.5l-2.9,0.8c-0.1-0.6-0.3-1.1-0.6-1.4c-0.3-0.3-0.7-0.5-1.1-0.5c-0.7,0-1.2,0.4-1.6,1.1
					c-0.4,0.7-0.6,1.9-0.6,3.5c0,1.7,0.2,2.9,0.6,3.6c0.4,0.7,1,1.1,1.7,1.1c0.3,0,0.7-0.1,1-0.3s0.7-0.4,1.1-0.8v-1.5h-2v-3.2h4.7
					v6.6c-0.9,1-1.7,1.6-2.4,2c-0.7,0.3-1.5,0.5-2.4,0.5c-1.2,0-2.1-0.3-2.8-0.9c-0.7-0.6-1.3-1.6-1.7-2.8c-0.4-1.3-0.6-2.7-0.6-4.3
					c0-1.7,0.2-3.2,0.7-4.4C-102,526.7-101.4,525.7-100.5,525.1L-100.5,525.1z M-88.8,540.2h-2.7v-15.6h2.7V540.2L-88.8,540.2z
					 M-83.4,528.7c1.4,0,2.5,0.7,3.2,2c0.6,1.1,0.9,2.4,0.9,3.9c0,1.7-0.4,3.2-1.1,4.3s-1.7,1.6-3,1.6c-1.1,0-2.1-0.5-2.8-1.4
					c-0.9-1.1-1.3-2.6-1.3-4.5c0-1.7,0.4-3.1,1.1-4.3C-85.6,529.2-84.6,528.7-83.4,528.7L-83.4,528.7z M-84.3,536.8
					c0.3,0.5,0.6,0.7,1,0.7s0.7-0.3,1-0.7s0.4-1.2,0.4-2.3c0-1-0.1-1.7-0.4-2.2s-0.6-0.7-0.9-0.7c-0.4,0-0.7,0.3-1,0.7
					s-0.4,1.2-0.4,2.2C-84.7,535.6-84.6,536.3-84.3,536.8L-84.3,536.8z M-75.3,530c0.3-0.5,0.6-0.8,0.9-1s0.7-0.3,1.1-0.3
					c0.8,0,1.6,0.5,2.1,1.5c0.6,1,0.8,2.4,0.8,4.3c0,1.2-0.1,2.3-0.4,3.3c-0.3,0.9-0.6,1.6-1.1,2.1s-1,0.7-1.5,0.7s-0.9-0.2-1.3-0.5
					c-0.3-0.3-0.6-0.7-1-1.4v1.6h-2.5v-15.7h2.7v5.4H-75.3z M-75,536.6c0.2,0.4,0.5,0.6,0.9,0.6c0.3,0,0.6-0.2,0.8-0.6
					c0.2-0.4,0.3-1.1,0.3-2.2c0-0.9-0.1-1.6-0.3-2c-0.2-0.4-0.5-0.6-0.8-0.6c-0.4,0-0.7,0.2-0.9,0.6c-0.2,0.4-0.3,1.1-0.3,2
					C-75.3,535.5-75.2,536.2-75,536.6L-75,536.6z M-67.1,533.9c1-0.3,1.7-0.5,2-0.7c0.3-0.1,0.6-0.3,1-0.5c0-0.5-0.1-0.9-0.2-1.1
					c-0.1-0.2-0.4-0.3-0.7-0.3c-0.5,0-0.8,0.1-1,0.3s-0.3,0.5-0.4,1l-2.6-0.4c0.1-0.7,0.2-1.3,0.4-1.7c0.2-0.4,0.5-0.8,0.8-1.1
					c0.2-0.2,0.6-0.4,1-0.5s0.9-0.2,1.4-0.2c0.8,0,1.5,0.1,2,0.2c0.5,0.1,0.9,0.5,1.2,0.9c0.2,0.3,0.4,0.8,0.6,1.4
					c0.1,0.6,0.2,1.1,0.2,1.7v5c0,0.5,0,0.9,0.1,1.3c0.1,0.3,0.1,0.7,0.3,1.1h-2.5c-0.1-0.3-0.2-0.5-0.2-0.7s-0.1-0.4-0.1-0.7
					c-0.3,0.5-0.7,0.9-1.1,1.2c-0.5,0.3-1,0.5-1.7,0.5c-0.8,0-1.5-0.3-1.9-0.9c-0.5-0.6-0.7-1.4-0.7-2.3c0-0.8,0.2-1.6,0.5-2.1
					C-68.5,534.5-67.9,534.2-67.1,533.9L-67.1,533.9z M-66.3,537.7c0.2,0.2,0.4,0.3,0.7,0.3c0.3,0,0.6-0.1,0.8-0.3
					c0.3-0.3,0.5-0.5,0.6-0.8s0.2-0.8,0.2-1.3v-0.7c-0.4,0.2-0.8,0.4-1.2,0.5c-0.6,0.3-0.9,0.5-1,0.7c-0.2,0.3-0.2,0.5-0.2,0.8
					C-66.6,537.2-66.5,537.5-66.3,537.7L-66.3,537.7z M-57.1,540.2h-2.7v-15.6h2.7V540.2L-57.1,540.2z M-48,536.5
					c0.3,0.6,0.7,0.9,1.3,0.9c0.4,0,0.8-0.2,1-0.5s0.3-0.7,0.3-1.1c0-0.4-0.1-0.8-0.3-1.1c-0.2-0.3-0.7-0.6-1.5-0.9
					c-1.3-0.5-2.3-1.1-2.8-1.9s-0.8-1.8-0.8-3c0-0.8,0.1-1.6,0.4-2.3s0.7-1.3,1.3-1.7c0.6-0.4,1.4-0.6,2.4-0.6
					c1.2,0,2.2,0.4,2.9,1.1c0.7,0.8,1,1.9,1.2,3.5l-2.8,0.3c-0.1-0.7-0.2-1.2-0.5-1.5c-0.2-0.3-0.6-0.5-1-0.5
					c-0.3,0-0.6,0.1-0.8,0.3c-0.2,0.3-0.3,0.5-0.3,0.9c0,0.3,0.1,0.5,0.2,0.7s0.5,0.4,1,0.6c1.3,0.5,2.3,0.9,2.8,1.4s1,1.1,1.2,1.7
					c0.3,0.7,0.4,1.4,0.4,2.3c0,1-0.2,1.9-0.5,2.7s-0.8,1.5-1.5,1.9c-0.6,0.4-1.4,0.6-2.4,0.6c-1.7,0-2.8-0.5-3.4-1.5
					s-1-2.3-1.1-3.9l2.9-0.3C-48.3,535.5-48.2,536.1-48,536.5L-48,536.5z M-37.3,528.7c1.4,0,2.5,0.7,3.2,2c0.6,1.1,0.9,2.4,0.9,3.9
					c0,1.7-0.4,3.2-1.1,4.3s-1.7,1.6-3,1.6c-1.1,0-2.1-0.5-2.8-1.4c-0.9-1.1-1.3-2.6-1.3-4.5c0-1.7,0.4-3.1,1.1-4.3
					C-39.5,529.2-38.6,528.7-37.3,528.7L-37.3,528.7z M-38.3,536.8c0.3,0.5,0.6,0.7,1,0.7s0.7-0.3,1-0.7s0.4-1.2,0.4-2.3
					c0-1-0.1-1.7-0.4-2.2s-0.6-0.7-0.9-0.7c-0.4,0-0.7,0.3-1,0.7s-0.4,1.2-0.4,2.2C-38.7,535.6-38.5,536.3-38.3,536.8L-38.3,536.8z
					 M-29.2,540.2h-2.7v-15.6h2.7V540.2L-29.2,540.2z M-24.8,535.1c0,0.7,0.1,1.2,0.2,1.5c0.2,0.3,0.4,0.5,0.7,0.5
					c0.3,0,0.6-0.2,0.8-0.6c0.2-0.4,0.3-1.1,0.3-2.2v-5.4h2.7v11.2h-2.5v-1.8c-0.4,0.8-0.8,1.3-1.1,1.6c-0.4,0.3-0.8,0.5-1.4,0.5
					c-0.7,0-1.3-0.3-1.7-1.1s-0.6-1.8-0.6-3.3v-7.2h2.7L-24.8,535.1L-24.8,535.1z M-17.8,526.8l2.7-2.2v4.3h1.5v3.2h-1.5v4
					c0,0.5,0,0.8,0.1,1c0.1,0.3,0.2,0.4,0.5,0.4c0.2,0,0.5-0.1,0.8-0.3l0.2,3c-0.7,0.3-1.3,0.3-1.9,0.3c-0.7,0-1.2-0.1-1.5-0.4
					c-0.3-0.3-0.6-0.7-0.7-1.3c-0.2-0.5-0.2-1.5-0.2-2.7v-4h-1v-3.2h1V526.8L-17.8,526.8z M-9.6,527.6h-2.7v-3h2.7V527.6L-9.6,527.6
					z M-9.6,540.2h-2.7v-11.3h2.7V540.2L-9.6,540.2z M-4.2,528.7c1.4,0,2.5,0.7,3.2,2c0.6,1.1,0.9,2.4,0.9,3.9
					c0,1.7-0.4,3.2-1.1,4.3s-1.7,1.6-3,1.6c-1.1,0-2.1-0.5-2.8-1.4c-0.9-1.1-1.3-2.6-1.3-4.5c0-1.7,0.4-3.1,1.1-4.3
					C-6.4,529.2-5.4,528.7-4.2,528.7L-4.2,528.7z M-5.1,536.8c0.3,0.5,0.6,0.7,1,0.7s0.7-0.3,1-0.7c0.2-0.5,0.4-1.2,0.4-2.3
					c0-1-0.1-1.7-0.4-2.2s-0.6-0.7-0.9-0.7c-0.4,0-0.7,0.3-1,0.7s-0.4,1.2-0.4,2.2C-5.5,535.6-5.3,536.3-5.1,536.8L-5.1,536.8z
					 M3.7,530.7c0.4-0.8,0.8-1.3,1.1-1.6c0.4-0.3,0.8-0.5,1.4-0.5c0.7,0,1.3,0.3,1.7,1.1c0.4,0.7,0.6,1.8,0.6,3.3v7.2H5.8V534
					c0-0.7-0.1-1.2-0.2-1.5c-0.2-0.3-0.4-0.4-0.7-0.4c-0.3,0-0.6,0.2-0.8,0.6c-0.2,0.4-0.3,1.1-0.3,2.2v5.4H1.2V529h2.5V530.7
					L3.7,530.7z M12.9,537.7c0.2,0.2,0.5,0.3,0.8,0.3c0.4,0,0.6-0.1,0.8-0.4c0.2-0.2,0.2-0.4,0.2-0.7s-0.1-0.5-0.3-0.7
					c-0.2-0.1-0.5-0.3-1.2-0.5c-1-0.3-1.6-0.5-2-0.7s-0.7-0.6-0.9-1.1c-0.2-0.5-0.4-1.1-0.4-1.8c0-0.8,0.1-1.4,0.4-1.9
					s0.6-0.9,1.1-1.2s1.1-0.4,1.9-0.4s1.5,0.1,1.9,0.3s0.7,0.5,1,1c0.3,0.4,0.5,1,0.7,1.7l-2.6,0.4c-0.1-0.4-0.2-0.6-0.3-0.8
					c-0.2-0.2-0.5-0.3-0.8-0.3s-0.5,0.1-0.7,0.3c-0.1,0.2-0.2,0.4-0.2,0.6c0,0.3,0.1,0.5,0.3,0.6c0.2,0.1,0.6,0.3,1.2,0.4
					c0.9,0.2,1.6,0.4,2,0.7c0.5,0.3,0.8,0.7,1,1.2s0.3,1.1,0.3,1.8c0,0.6-0.1,1.3-0.4,1.9c-0.2,0.6-0.6,1.1-1.2,1.5
					c-0.5,0.4-1.2,0.5-2.2,0.5c-1.3,0-2.2-0.3-2.8-0.9s-0.9-1.4-1.1-2.5l2.7-0.4C12.6,537.2,12.7,537.5,12.9,537.7L12.9,537.7z
					 M21.5,539.5c0,1.3-0.2,2.3-0.5,3.1s-0.9,1.4-1.7,2l-0.6-1.9c0.5-0.4,0.9-0.8,1.1-1.1c0.2-0.4,0.3-0.8,0.3-1.4h-1.4v-4.3h2.9
					L21.5,539.5L21.5,539.5z M30.9,540.2h-3v-15.6h3V540.2L30.9,540.2z M35.4,530.7c0.4-0.8,0.8-1.3,1.1-1.6
					c0.4-0.3,0.8-0.5,1.4-0.5c0.7,0,1.3,0.3,1.7,1.1c0.4,0.7,0.6,1.8,0.6,3.3v7.2h-2.7V534c0-0.7-0.1-1.2-0.2-1.5
					c-0.2-0.3-0.4-0.4-0.7-0.4c-0.3,0-0.6,0.2-0.8,0.6c-0.2,0.4-0.3,1.1-0.3,2.2v5.4h-2.7V529h2.5L35.4,530.7L35.4,530.7z
					 M42.7,530.2c0.3-0.5,0.6-0.8,1-1c0.5-0.3,1.2-0.5,2-0.5c1.2,0,2,0.3,2.6,1s1,1.6,1.3,2.9l-2.5,0.5c-0.1-0.5-0.2-0.8-0.4-1.1
					c-0.2-0.3-0.5-0.4-0.8-0.4c-0.5,0-0.8,0.3-1.1,0.8c-0.3,0.5-0.4,1.3-0.4,2.3c0,0.9,0.1,1.6,0.4,2.1s0.6,0.7,1.1,0.7
					c0.3,0,0.7-0.1,0.9-0.4c0.2-0.3,0.4-0.7,0.5-1.4l2.6,0.5c-0.1,0.8-0.4,1.6-0.7,2.2c-0.3,0.6-0.7,1.1-1.2,1.5
					c-0.5,0.3-1.1,0.5-1.9,0.5c-0.7,0-1.4-0.1-1.9-0.3s-0.9-0.6-1.3-1.1s-0.6-1.1-0.8-1.8c-0.2-0.7-0.3-1.6-0.3-2.7
					c0-1.1,0.1-2.1,0.4-2.9C42.2,531.2,42.4,530.6,42.7,530.2L42.7,530.2z M53.9,540.2H51v-4.4h2.9V540.2L53.9,540.2z"/>
			</g>
		</g>
		<g>
			<g>
				<path id="SVGID_17_" class="st0" d="M-0.2,382h-7.6c0,0,2.2-4.5,3.3-9.7c1.1-5.3,1.2-11.2,1.2-11.2h9.6c0,0-0.2,5.9-1.8,11.1
					C2.9,377.4-0.2,382-0.2,382L-0.2,382z M-4.3,347.7c-1.2-5.6-3.5-11.2-3.5-11.2h7.6c0,0,3,4.5,4.7,10c1.6,5.2,1.8,11.5,1.8,11.5
					h-9.6C-3.3,358-3.2,352.9-4.3,347.7L-4.3,347.7z M-15.8,323.6c-3.2-4-7-6.7-7-6.7s6,2.1,11.5,6.5c4.8,3.8,9.1,10.1,9.1,10.1
					h-7.3C-9.5,333.4-12.3,327.9-15.8,323.6L-15.8,323.6z M-90.8,385.3h7.4c0,0,2.2,4.6,5.4,8.6c3.4,4.3,7.8,8,7.8,8
					s-5.5-1.6-10.6-5.8C-86.1,391.8-90.8,385.3-90.8,385.3L-90.8,385.3z M-80.9,385.3h10.3c0,0,1.9,5.7,4.5,10.2c2.9,5,6.5,9,6.5,9
					s-5.7-1.6-10.9-6.3C-76,393.3-80.9,385.3-80.9,385.3L-80.9,385.3z M-61,399c-4.3-5.3-7.1-13.7-7.1-13.7h11.7
					c0,0,0.4,5.4,1.6,10.2c1.4,5.6,3.6,10.7,3.6,10.7C-51.1,406.2-56.8,404.2-61,399L-61,399z M-46.4,407.3c0,0-2.3,0.6-4.4-6.2
					c-1.7-5.9-3.3-15.8-3.3-15.8h15.2c0,0-1.4,9.8-3.2,15.7C-44.3,407.9-46.4,407.3-46.4,407.3L-46.4,407.3z M-38.5,396.1
					c1.2-5,1.7-10.8,1.7-10.8h11.9c0,0-2.8,8.4-6.8,13.4c-4.4,5.4-10.1,7.6-10.1,7.6S-39.8,401.5-38.5,396.1L-38.5,396.1z
					 M-26.8,395.2c2.6-4.8,4.3-9.9,4.3-9.9h10.3c0,0-3.3,6.5-8.1,10.9c-5.5,5.1-12.6,8.2-12.6,8.2C-33,404.5-29.4,399.9-26.8,395.2
					L-26.8,395.2z M-12.6,396.6c-5.1,4.1-10.2,5-10.2,5s3.6-2.5,6.9-6.5c3.4-4.1,6.4-9.8,6.4-9.8h7.3
					C-2.2,385.3-7.4,392.5-12.6,396.6L-12.6,396.6z M-10.2,382h-11.4c0,0,1.5-5.6,2.3-10.9c0.7-5.2,0.6-10.1,0.6-10.1h13.4
					c0,0-0.2,6-1.3,10.7C-7.9,377.4-10.2,382-10.2,382L-10.2,382z M-6.3,347.7c1.2,5.2,1,10.3,1,10.3h-13.4c0,0,0.2-5.3-0.5-10.5
					c-0.7-5.6-2.4-11.1-2.4-11.1h11.4C-10.2,336.4-7.6,342.1-6.3,347.7L-6.3,347.7z M-12.2,333.4h-10.3c0,0-1.9-5.5-4.5-10.4
					c-2.6-4.6-5.9-8.6-5.9-8.6s6.6,2.7,11.9,7.5C-15.9,326.6-12.2,333.4-12.2,333.4L-12.2,333.4z M-35.4,361h14.8
					c0,0-0.3,6.6-1,11.7c-0.8,5.4-2,9.3-2,9.3h-12.7c0,0,0.4-3.1,0.6-8.2C-35.5,368.4-35.4,361-35.4,361L-35.4,361z M-23.7,336.4
					c0,0,1.4,4.3,2.1,9.9c0.7,5.2,0.9,11.7,0.9,11.7h-14.8c0,0-0.2-8.5-0.5-13.9c-0.3-5.3-0.5-7.6-0.5-7.6h12.8V336.4z M-31.8,320
					c4,4.9,6.9,13.4,6.9,13.4h-11.9c0,0-0.4-5.3-1.5-10.4c-1.2-5.3-3.3-10.3-3.3-10.3S-36.2,314.6-31.8,320L-31.8,320z M-46.4,311.9
					c0,0,2.1-0.6,4.3,6.3c2,6.4,3.2,15.3,3.2,15.3h-15.2c0,0,1.4-10,2.9-14.9C-48.8,311.2-46.4,311.9-46.4,311.9L-46.4,311.9z
					 M-37.9,375c-0.3,4.9-0.7,7-0.7,7h-15.7c0,0-0.6-2.3-0.9-7.1c-0.4-5.7-0.6-13.9-0.6-13.9h18.4C-37.3,361-37.6,369.5-37.9,375
					L-37.9,375z M-55.3,345.6c0.4-5.4,1-9.2,1-9.2h15.7c0,0,0.5,3.4,0.8,8.8s0.5,12.8,0.5,12.8h-18.4C-55.7,358-55.6,351-55.3,345.6
					L-55.3,345.6z M-54.4,322.1c-1.3,5.2-2,11.4-2,11.4h-11.7c0,0,2.7-8.5,7-13.8c4.2-5.1,9.9-6.9,9.9-6.9
					C-51.2,312.8-53.1,316.9-54.4,322.1L-54.4,322.1z M-66.1,323.2c-2.7,4.7-4.6,10.3-4.6,10.3H-81c0,0,3.8-7.1,9.2-12
					c5.2-4.6,12-7,12-7C-59.7,314.5-63.3,318.4-66.1,323.2L-66.1,323.2z M-82.6,324.3c5.5-4.4,12.3-7.4,12.3-7.4s-4.2,3.3-7.6,7.5
					c-3.2,4-5.7,9-5.7,9h-7.2C-90.8,333.4-87.4,328.1-82.6,324.3L-82.6,324.3z M-97.6,346.9c1.6-5.5,4.7-10.4,4.7-10.4h7.6
					c0,0-2.3,5.5-3.4,10.9c-1.1,5.3-1.2,10.6-1.2,10.6h-9.3C-99.1,358-99.1,352.1-97.6,346.9L-97.6,346.9z M-97.5,372.4
					c-1.5-4.9-1.6-11.4-1.6-11.4h9.3c0,0,0,5.6,1.1,10.5c1.2,5.5,3.5,10.4,3.5,10.4h-7.6C-92.9,382-95.9,377.9-97.5,372.4
					L-97.5,372.4z M-86.4,372.6c-1.3-5-1.4-11.6-1.4-11.6h13.4c0,0,0,5.7,0.7,10.9c0.7,5.3,2.1,10.1,2.1,10.1h-11
					C-82.6,382-85.1,378.1-86.4,372.6L-86.4,372.6z M-69.1,382c0,0-1.6-3.9-2.4-8.8c-0.9-5.5-1-12.1-1-12.1h14.8
					c0,0,0.1,7.7,0.4,13.2c0.2,4.9,0.6,7.7,0.6,7.7L-69.1,382L-69.1,382z M-74.5,358h-13.4c0,0,0.3-6.4,1.6-11.6
					c1.4-5.6,3.7-10,3.7-10h11c0,0-1.4,4.8-2.1,10.1C-74.5,352-74.5,358-74.5,358L-74.5,358z M-69.1,336.4h12.4c0,0-0.4,3.9-0.7,9.3
					c-0.2,5.3-0.4,12.2-0.4,12.2h-14.8c0,0,0.2-6.7,1-11.8C-70.6,340.5-69.1,336.4-69.1,336.4L-69.1,336.4z M-79.5,444.2
					c3-3.3,6.8-6,11.3-8c5.2-2.3,12.2-3.5,20.9-3.5c8.4,0,14.8,0.7,18.9,2.2s7.7,3.6,10.4,6.6c2.8,3,4.8,6.8,6.2,11.4l-22.8,3.8
					c-0.9-2.7-2.5-4.8-4.8-6.2s-5.1-2.2-8.6-2.2c-5.2,0-9.3,1.7-12.4,5S-65,462-65,469.2c0,7.7,1.6,13.2,4.7,16.5s7.4,4.9,13,4.9
					c2.6,0,5.2-0.3,7.6-1.1c2.4-0.7,5.1-1.9,8.2-3.6v-6.7h-15.8v-14.6h36.5v17l20.6-1.2c0.5,3.4,1.5,6,3,7.8
					c2.4,2.9,5.9,4.3,10.4,4.3c3.4,0,6-0.7,7.8-2.2s2.7-3.2,2.7-5.1c0-1.9-0.9-3.5-2.6-4.9c-1.7-1.5-5.8-2.8-12.1-4.1
					c-10.4-2.2-17.7-5.1-22.1-8.7c-4.4-3.6-6.7-8.2-6.7-13.8c0-3.7,1.1-7.1,3.4-10.4s5.7-5.8,10.3-7.7c4.6-1.9,10.8-2.8,18.8-2.8
					c9.8,0,17.2,1.7,22.3,5.1c5.1,3.4,8.2,8.8,9.1,16.2l-22.3,1.2c-0.6-3.2-1.8-5.5-3.7-7c-1.9-1.5-4.5-2.2-7.8-2.2
					c-2.7,0-4.8,0.5-6.2,1.6c-1.4,1.1-2.1,2.4-2.1,4c0,1.1,0.6,2.2,1.7,3.1c1.1,0.9,3.7,1.8,7.9,2.6c10.3,2.1,17.7,4.2,22.2,6.3
					s7.7,4.8,9.7,7.9c2,3.1,3,6.7,3,10.6c0,4.6-1.4,8.8-4.1,12.6s-6.5,6.8-11.4,8.8s-11,3-18.4,3c-13,0-22-2.3-27-7
					c-3-2.8-5.2-6-6.6-9.7v5c-7,4.4-13.2,7.5-18.5,9.1c-5.4,1.6-11.7,2.4-19.1,2.4c-9.1,0-16.5-1.4-22.2-4.4
					c-5.7-2.9-10.1-7.2-13.3-12.9s-4.7-12.3-4.7-19.7c0-6.8,1.3-12.8,3.9-18.1h-19.2v53.8H-128v-53.7h-24.2v-17.6h72.1v10.4H-79.5z"
					/>
			</g>
		</g>
	</g>
</g>
</svg>
