<?xml version="1.0" encoding="utf-8"?>
<!-- Generator: Adobe Illustrator 19.0.0, SVG Export Plug-In . SVG Version: 6.00 Build 0)  -->
<svg version="1.1" id="Layer_1" xmlns="http://www.w3.org/2000/svg" xmlns:xlink="http://www.w3.org/1999/xlink" x="0px" y="0px"
	 viewBox="-124 126 250 250" style="enable-background:new -124 126 250 250;" xml:space="preserve">
<style type="text/css">
	.st0{fill:#FFFFFF;}
</style>
<g>
	<g>
		<g>
			<path id="SVGID_1_" class="st0" d="M112.9,179.7l-0.8,3.1h-0.9l-0.8-3.1v3.1h-0.9v-4h1.7l0.6,2.5l0.6-2.5h1.7v4h-0.9V179.7
				L112.9,179.7z M107.1,180c0.6,0.1,0.9,0.2,1.2,0.4c0.2,0.1,0.4,0.2,0.5,0.4c0.1,0.2,0.1,0.4,0.1,0.6c0,0.2-0.1,0.5-0.2,0.7
				c-0.1,0.2-0.4,0.4-0.6,0.5c-0.2,0.1-0.6,0.1-0.9,0.1c-0.7,0-1.2-0.1-1.4-0.4c-0.2-0.2-0.4-0.6-0.5-1l1.2-0.1
				c0,0.2,0.1,0.4,0.1,0.4c0.1,0.1,0.4,0.2,0.6,0.2s0.4,0,0.4-0.1c0.1-0.1,0.1-0.2,0.1-0.3c0-0.1,0-0.2-0.1-0.3
				c-0.1-0.1-0.4-0.1-0.6-0.2c-0.6-0.1-0.9-0.3-1.2-0.4c-0.2-0.2-0.4-0.4-0.4-0.7c0-0.2,0.1-0.4,0.2-0.6s0.2-0.3,0.6-0.4
				c0.2-0.1,0.6-0.1,0.9-0.1c0.5,0,0.8,0.1,1.2,0.3c0.2,0.2,0.4,0.5,0.5,0.9l-1.2,0.1c0-0.2-0.1-0.3-0.2-0.4
				c-0.1-0.1-0.2-0.1-0.4-0.1c-0.1,0-0.2,0-0.4,0.1c-0.1,0.1-0.1,0.1-0.1,0.2c0,0.1,0,0.1,0.1,0.1C106.7,180,106.8,180,107.1,180
				L107.1,180z M114.3,208c0,0-4.5,32.3-48.4,40.3c-60.7,10.9-90.7-7-90.7-7s40.6,5.5,69.5-4.4c28.8-9.8,33.4-28.8,33.4-28.8H66.6
				l31.3-29.6l27.8,29.6L114.3,208L114.3,208z M-34.5,171.7c-36.9,8.6-40.9,31.6-40.9,31.6h12l-31.3,29.1l-27.3-29.1h11.3
				c0,0,0.4-34.9,56.8-42.6c56.8-7.8,82.8,9,82.8,9S-3.2,164.4-34.5,171.7L-34.5,171.7z M122.4,321.5H-122v-1.7h244.4V321.5
				L122.4,321.5z M-110.5,331.4h-3.7v8.7h-3.6v-8.7h-3.7v-2.9h10.9L-110.5,331.4L-110.5,331.4z M-106.1,333.1c0.2-0.6,0.6-1,0.9-1.2
				c0.4-0.2,0.7-0.4,1.2-0.4c0.5,0,0.9,0.1,1.5,0.4l-0.9,2.3c-0.4-0.1-0.7-0.2-0.9-0.2c-0.4,0-0.7,0.2-0.9,0.5
				c-0.4,0.5-0.5,1.4-0.5,2.8v2.8h-3.3v-8.4h3V333.1L-106.1,333.1z M-99.9,335.4c1.2-0.2,2-0.4,2.4-0.5c0.4-0.1,0.7-0.2,1.2-0.4
				c0-0.4-0.1-0.7-0.2-0.8c-0.1-0.1-0.5-0.2-0.8-0.2c-0.6,0-0.9,0.1-1.2,0.2s-0.4,0.4-0.5,0.7l-3.1-0.3c0.1-0.5,0.2-1,0.5-1.3
				s0.6-0.6,0.9-0.8c0.2-0.1,0.7-0.3,1.2-0.4c0.5-0.1,1.1-0.1,1.7-0.1c0.9,0,1.8,0.1,2.4,0.1c0.6,0.1,1.1,0.4,1.4,0.7
				c0.2,0.2,0.5,0.6,0.7,1c0.1,0.4,0.2,0.8,0.2,1.3v3.7c0,0.4,0,0.7,0.1,1c0.1,0.2,0.1,0.5,0.4,0.8h-3c-0.1-0.2-0.2-0.4-0.2-0.5
				s-0.1-0.3-0.1-0.5c-0.4,0.4-0.8,0.7-1.3,0.9c-0.6,0.2-1.2,0.4-2,0.4c-0.9,0-1.8-0.2-2.3-0.7c-0.6-0.4-0.8-1-0.8-1.7
				c0-0.6,0.2-1.2,0.6-1.6C-101.5,335.8-100.8,335.6-99.9,335.4L-99.9,335.4z M-99,338.2c0.2,0.1,0.5,0.2,0.8,0.2s0.7-0.1,0.9-0.2
				c0.4-0.2,0.6-0.4,0.7-0.6s0.2-0.6,0.2-1v-0.5c-0.5,0.1-0.9,0.3-1.4,0.4c-0.7,0.2-1.1,0.4-1.2,0.5c-0.2,0.2-0.2,0.4-0.2,0.6
				C-99.3,337.9-99.2,338.1-99,338.2L-99,338.2z M-88.4,333c0.5-0.6,0.9-1,1.3-1.2c0.5-0.2,0.9-0.4,1.7-0.4c0.8,0,1.5,0.2,2,0.8
				c0.5,0.5,0.7,1.3,0.7,2.5v5.4h-3.2v-4.6c0-0.5-0.1-0.9-0.2-1.1c-0.2-0.2-0.5-0.3-0.8-0.3s-0.7,0.1-0.9,0.4
				c-0.2,0.3-0.4,0.8-0.4,1.6v4h-3.1v-8.4h3V333L-88.4,333z M-77.4,338.2c0.2,0.1,0.6,0.2,0.9,0.2c0.5,0,0.7-0.1,0.9-0.3
				c0.2-0.1,0.2-0.3,0.2-0.5s-0.1-0.4-0.4-0.5c-0.2-0.1-0.6-0.2-1.4-0.4c-1.2-0.2-1.9-0.4-2.4-0.5c-0.5-0.1-0.8-0.4-1.1-0.8
				s-0.5-0.8-0.5-1.3c0-0.6,0.1-1,0.5-1.4c0.4-0.4,0.7-0.7,1.3-0.9c0.6-0.2,1.3-0.3,2.3-0.3c0.9,0,1.8,0.1,2.3,0.2
				c0.5,0.1,0.8,0.4,1.2,0.7c0.4,0.3,0.6,0.7,0.8,1.3l-3.1,0.3c-0.1-0.3-0.2-0.4-0.4-0.6c-0.2-0.1-0.6-0.2-0.9-0.2s-0.6,0.1-0.8,0.2
				c-0.1,0.1-0.2,0.3-0.2,0.4c0,0.2,0.1,0.4,0.4,0.4s0.7,0.2,1.4,0.3c1.1,0.1,1.9,0.3,2.4,0.5c0.6,0.2,0.9,0.5,1.2,0.9
				c0.2,0.4,0.4,0.8,0.4,1.3c0,0.4-0.1,1-0.5,1.4c-0.2,0.4-0.7,0.8-1.4,1.1c-0.6,0.3-1.4,0.4-2.6,0.4c-1.5,0-2.6-0.2-3.3-0.7
				c-0.7-0.4-1.1-1-1.3-1.9l3.2-0.3C-77.8,337.9-77.7,338.1-77.4,338.2L-77.4,338.2z M-66.7,337.1h-4.6v-2.5h4.6V337.1L-66.7,337.1z
				 M-62.5,328.8c0.8-0.4,1.9-0.6,3.2-0.6c1.3,0,2.3,0.1,2.8,0.4c0.6,0.2,1.2,0.6,1.5,1c0.4,0.5,0.7,1.1,0.9,1.9l-3.4,0.6
				c-0.1-0.4-0.4-0.8-0.7-1c-0.4-0.2-0.8-0.4-1.3-0.4c-0.8,0-1.4,0.3-1.9,0.8c-0.5,0.5-0.7,1.4-0.7,2.6c0,1.3,0.2,2.2,0.7,2.7
				c0.5,0.5,1.2,0.8,2,0.8c0.4,0,0.8-0.1,1.2-0.2c0.4-0.1,0.8-0.3,1.3-0.6v-1.1h-2.4v-2.4h5.6v4.9c-1.1,0.7-2,1.2-2.8,1.5
				c-0.8,0.2-1.8,0.4-2.8,0.4c-1.4,0-2.5-0.2-3.3-0.7c-0.8-0.4-1.5-1.2-2-2.1c-0.5-1-0.7-2-0.7-3.2c0-1.3,0.2-2.4,0.8-3.3
				C-64.3,330-63.6,329.3-62.5,328.8L-62.5,328.8z M-48.6,340.1h-3.2v-11.7h3.2V340.1L-48.6,340.1z M-42.2,331.5
				c1.7,0,3,0.5,3.8,1.5c0.7,0.8,1.1,1.8,1.1,2.9c0,1.3-0.5,2.4-1.3,3.2s-2,1.2-3.6,1.2c-1.3,0-2.5-0.4-3.3-1
				c-1.1-0.8-1.5-1.9-1.5-3.4c0-1.3,0.5-2.3,1.3-3.2C-44.8,331.9-43.7,331.5-42.2,331.5L-42.2,331.5z M-43.3,337.6
				c0.4,0.4,0.7,0.5,1.2,0.5c0.5,0,0.8-0.2,1.2-0.5c0.4-0.3,0.5-0.9,0.5-1.7c0-0.7-0.1-1.3-0.5-1.6s-0.7-0.5-1.1-0.5
				c-0.5,0-0.8,0.2-1.2,0.5s-0.5,0.9-0.5,1.6C-43.8,336.7-43.7,337.2-43.3,337.6L-43.3,337.6z M-32.6,332.5c0.4-0.4,0.7-0.6,1.1-0.7
				s0.8-0.2,1.3-0.2c0.9,0,1.9,0.4,2.5,1.1c0.7,0.7,0.9,1.8,0.9,3.2c0,0.9-0.1,1.7-0.5,2.5c-0.4,0.7-0.7,1.2-1.3,1.6
				c-0.6,0.4-1.2,0.5-1.8,0.5s-1.1-0.1-1.5-0.4c-0.4-0.2-0.7-0.5-1.2-1v1.2h-3v-11.7h3.2v4H-32.6z M-32.3,337.4
				c0.2,0.3,0.6,0.4,1.1,0.4c0.4,0,0.7-0.1,0.9-0.4c0.2-0.3,0.4-0.8,0.4-1.6c0-0.7-0.1-1.2-0.4-1.5c-0.2-0.3-0.6-0.4-0.9-0.4
				c-0.5,0-0.8,0.1-1.1,0.4c-0.2,0.3-0.4,0.8-0.4,1.5C-32.6,336.6-32.5,337.1-32.3,337.4L-32.3,337.4z M-22.9,335.4
				c1.2-0.2,2-0.4,2.4-0.5c0.4-0.1,0.7-0.2,1.2-0.4c0-0.4-0.1-0.7-0.2-0.8c-0.1-0.1-0.5-0.2-0.8-0.2c-0.6,0-0.9,0.1-1.2,0.2
				s-0.4,0.4-0.5,0.7l-3.1-0.3c0.1-0.5,0.2-1,0.5-1.3c0.2-0.3,0.6-0.6,0.9-0.8c0.2-0.1,0.7-0.3,1.2-0.4c0.5-0.1,1.1-0.1,1.7-0.1
				c0.9,0,1.8,0.1,2.4,0.1c0.6,0.1,1.1,0.4,1.4,0.7c0.2,0.2,0.5,0.6,0.7,1c0.1,0.4,0.2,0.8,0.2,1.3v3.7c0,0.4,0,0.7,0.1,1
				c0.1,0.2,0.1,0.5,0.4,0.8h-3c-0.1-0.2-0.2-0.4-0.2-0.5s-0.1-0.3-0.1-0.5c-0.4,0.4-0.8,0.7-1.3,0.9c-0.6,0.2-1.2,0.4-2,0.4
				c-0.9,0-1.8-0.2-2.3-0.7c-0.6-0.4-0.8-1-0.8-1.7c0-0.6,0.2-1.2,0.6-1.6C-24.6,335.8-23.8,335.6-22.9,335.4L-22.9,335.4z
				 M-21.9,338.2c0.2,0.1,0.5,0.2,0.8,0.2c0.4,0,0.7-0.1,0.9-0.2c0.4-0.2,0.6-0.4,0.7-0.6c0.1-0.2,0.2-0.6,0.2-1v-0.5
				c-0.5,0.1-0.9,0.3-1.4,0.4c-0.7,0.2-1.1,0.4-1.2,0.5c-0.2,0.2-0.2,0.4-0.2,0.6C-22.3,337.9-22.2,338.1-21.9,338.2L-21.9,338.2z
				 M-11,340.1h-3.2v-11.7h3.2V340.1L-11,340.1z M-0.2,337.3c0.4,0.4,0.8,0.7,1.5,0.7c0.5,0,0.9-0.1,1.2-0.4
				c0.2-0.2,0.4-0.5,0.4-0.8c0-0.3-0.1-0.6-0.4-0.8c-0.2-0.2-0.8-0.4-1.8-0.7c-1.5-0.4-2.7-0.8-3.3-1.4c-0.6-0.6-0.9-1.3-0.9-2.2
				c0-0.6,0.1-1.2,0.5-1.7s0.8-1,1.5-1.3c0.7-0.3,1.7-0.4,2.8-0.4c1.4,0,2.6,0.3,3.4,0.8c0.8,0.6,1.2,1.4,1.4,2.6l-3.3,0.2
				c-0.1-0.5-0.2-0.9-0.6-1.1c-0.2-0.2-0.7-0.4-1.2-0.4c-0.4,0-0.7,0.1-0.9,0.2c-0.2,0.2-0.4,0.4-0.4,0.7c0,0.2,0.1,0.4,0.2,0.5
				s0.6,0.3,1.2,0.4c1.5,0.4,2.7,0.7,3.3,1s1.2,0.8,1.4,1.3c0.4,0.5,0.5,1,0.5,1.7c0,0.7-0.2,1.4-0.6,2s-0.9,1.1-1.8,1.4
				c-0.7,0.3-1.7,0.4-2.8,0.4c-2,0-3.3-0.4-4-1.1s-1.2-1.7-1.3-2.9l3.4-0.2C-0.6,336.6-0.5,337-0.2,337.3L-0.2,337.3z M12.4,331.5
				c1.7,0,3,0.5,3.8,1.5c0.7,0.8,1.1,1.8,1.1,2.9c0,1.3-0.5,2.4-1.3,3.2s-2,1.2-3.6,1.2c-1.3,0-2.5-0.4-3.3-1
				c-1.1-0.8-1.5-1.9-1.5-3.4c0-1.3,0.5-2.3,1.3-3.2C9.8,331.9,10.9,331.5,12.4,331.5L12.4,331.5z M11.3,337.6
				c0.4,0.4,0.7,0.5,1.2,0.5c0.5,0,0.8-0.2,1.2-0.5c0.4-0.3,0.5-0.9,0.5-1.7c0-0.7-0.1-1.3-0.5-1.6c-0.4-0.4-0.7-0.5-1.1-0.5
				c-0.5,0-0.8,0.2-1.2,0.5c-0.4,0.3-0.5,0.9-0.5,1.6C10.8,336.7,11,337.2,11.3,337.6L11.3,337.6z M22.1,340.1h-3.2v-11.7h3.2V340.1
				L22.1,340.1z M27.3,336.3c0,0.5,0.1,0.9,0.2,1.1c0.2,0.2,0.5,0.4,0.8,0.4c0.4,0,0.7-0.1,0.9-0.4c0.2-0.3,0.4-0.8,0.4-1.6v-4h3.2
				v8.4h-3v-1.3c-0.5,0.6-0.9,1-1.3,1.2c-0.5,0.2-0.9,0.4-1.7,0.4c-0.8,0-1.5-0.2-2-0.8c-0.5-0.6-0.7-1.3-0.7-2.5v-5.4h3.2
				L27.3,336.3L27.3,336.3z M35.6,330.1l3.2-1.6v3.2h1.8v2.4h-1.8v3c0,0.4,0,0.6,0.1,0.7c0.1,0.2,0.2,0.3,0.6,0.3
				c0.2,0,0.6-0.1,0.9-0.2l0.2,2.2c-0.8,0.2-1.5,0.2-2.3,0.2c-0.8,0-1.4-0.1-1.8-0.3c-0.4-0.2-0.7-0.5-0.8-1c-0.2-0.4-0.2-1.1-0.2-2
				v-3h-1.2v-2.4h1.2V330.1L35.6,330.1z M45.3,330.7h-3.2v-2.2h3.2V330.7L45.3,330.7z M45.3,340.1h-3.2v-8.4h3.2V340.1L45.3,340.1z
				 M51.7,331.5c1.7,0,3,0.5,3.8,1.5c0.7,0.8,1.1,1.8,1.1,2.9c0,1.3-0.5,2.4-1.3,3.2c-0.8,0.8-2,1.2-3.6,1.2c-1.3,0-2.5-0.4-3.3-1
				c-1.1-0.8-1.5-1.9-1.5-3.4c0-1.3,0.5-2.3,1.3-3.2C49.1,331.9,50.3,331.5,51.7,331.5L51.7,331.5z M50.6,337.6
				c0.4,0.4,0.7,0.5,1.2,0.5c0.5,0,0.8-0.2,1.2-0.5c0.2-0.4,0.5-0.9,0.5-1.7c0-0.7-0.1-1.3-0.5-1.6c-0.4-0.4-0.7-0.5-1.1-0.5
				c-0.5,0-0.8,0.2-1.2,0.5s-0.5,0.9-0.5,1.6C50.2,336.7,50.4,337.2,50.6,337.6L50.6,337.6z M61.1,333c0.5-0.6,0.9-1,1.3-1.2
				c0.5-0.2,0.9-0.4,1.7-0.4c0.8,0,1.5,0.2,2,0.8c0.5,0.5,0.7,1.3,0.7,2.5v5.4h-3.2v-4.6c0-0.5-0.1-0.9-0.2-1.1
				c-0.2-0.2-0.5-0.3-0.8-0.3c-0.4,0-0.7,0.1-0.9,0.4c-0.2,0.3-0.4,0.8-0.4,1.6v4h-3.1v-8.4h3V333L61.1,333z M72,338.2
				c0.2,0.1,0.6,0.2,0.9,0.2c0.5,0,0.7-0.1,0.9-0.3c0.2-0.1,0.2-0.3,0.2-0.5s-0.1-0.4-0.4-0.5c-0.2-0.1-0.6-0.2-1.4-0.4
				c-1.2-0.2-1.9-0.4-2.4-0.5s-0.8-0.4-1.1-0.8c-0.2-0.4-0.5-0.8-0.5-1.3c0-0.6,0.1-1,0.5-1.4c0.4-0.4,0.7-0.7,1.3-0.9
				s1.3-0.3,2.3-0.3s1.8,0.1,2.3,0.2c0.5,0.1,0.8,0.4,1.2,0.7c0.4,0.3,0.6,0.7,0.8,1.3l-3.1,0.3c-0.1-0.3-0.2-0.4-0.4-0.6
				c-0.2-0.1-0.6-0.2-0.9-0.2c-0.4,0-0.6,0.1-0.8,0.2c-0.1,0.1-0.2,0.3-0.2,0.4c0,0.2,0.1,0.4,0.4,0.4c0.2,0.1,0.7,0.2,1.4,0.3
				c1.1,0.1,1.9,0.3,2.4,0.5c0.6,0.2,0.9,0.5,1.2,0.9c0.2,0.4,0.4,0.8,0.4,1.3c0,0.4-0.1,1-0.5,1.4c-0.2,0.4-0.7,0.8-1.4,1.1
				c-0.6,0.3-1.4,0.4-2.6,0.4c-1.5,0-2.6-0.2-3.3-0.7c-0.7-0.4-1.1-1-1.3-1.9l3.2-0.3C71.6,337.9,71.7,338.1,72,338.2L72,338.2z
				 M82.2,339.6c0,1-0.2,1.7-0.6,2.3c-0.4,0.6-1.1,1-2,1.5l-0.7-1.4c0.6-0.3,1.1-0.6,1.3-0.8c0.2-0.3,0.4-0.6,0.4-1h-1.7v-3.2h3.4
				v2.7H82.2z M93.3,340.1h-3.6v-11.7h3.6V340.1L93.3,340.1z M98.7,333c0.5-0.6,0.9-1,1.3-1.2c0.5-0.2,0.9-0.4,1.7-0.4
				c0.8,0,1.5,0.2,2,0.8c0.5,0.5,0.7,1.3,0.7,2.5v5.4h-3.2v-4.6c0-0.5-0.1-0.9-0.2-1.1c-0.2-0.2-0.5-0.3-0.8-0.3
				c-0.4,0-0.7,0.1-0.9,0.4c-0.2,0.3-0.4,0.8-0.4,1.6v4h-3.2v-8.4h3L98.7,333L98.7,333z M107.3,332.6c0.4-0.4,0.7-0.6,1.2-0.7
				c0.6-0.2,1.4-0.4,2.4-0.4c1.4,0,2.4,0.2,3.1,0.7s1.2,1.2,1.5,2.2l-3,0.4c-0.1-0.4-0.2-0.6-0.5-0.8c-0.2-0.2-0.6-0.3-0.9-0.3
				c-0.6,0-0.9,0.2-1.3,0.6c-0.4,0.4-0.5,1-0.5,1.7c0,0.7,0.1,1.2,0.5,1.6c0.4,0.4,0.7,0.5,1.3,0.5c0.4,0,0.8-0.1,1.1-0.3
				c0.2-0.2,0.5-0.5,0.6-1l3.1,0.4c-0.1,0.6-0.5,1.2-0.8,1.6c-0.4,0.4-0.8,0.8-1.4,1.1c-0.6,0.2-1.3,0.4-2.3,0.4
				c-0.8,0-1.7-0.1-2.3-0.2c-0.6-0.1-1.1-0.4-1.5-0.8c-0.5-0.4-0.7-0.8-0.9-1.3c-0.2-0.5-0.4-1.2-0.4-2c0-0.8,0.1-1.6,0.5-2.2
				C106.7,333.4,107,332.9,107.3,332.6L107.3,332.6z M120.6,340.1h-3.4v-3.3h3.4V340.1L120.6,340.1z"/>
		</g>
	</g>
	<g>
		<g>
			<path id="SVGID_3_" class="st0" d="M56.4,221.9h-9c0,0,2.6-3.4,3.9-7.2c1.3-4,1.4-8.4,1.4-8.4h11.4c0,0-0.2,4.4-2.1,8.3
				C60.1,218.5,56.4,221.9,56.4,221.9L56.4,221.9z M51.6,196.3c-1.4-4.2-4.2-8.4-4.2-8.4h9c0,0,3.6,3.4,5.6,7.5
				c1.9,3.9,2.1,8.6,2.1,8.6H52.8C52.8,204,52.9,200.2,51.6,196.3L51.6,196.3z M37.9,178.3c-3.8-3-8.3-5-8.3-5s7.1,1.6,13.6,4.9
				c5.7,2.8,10.8,7.5,10.8,7.5h-8.7C45.4,185.6,42.1,181.5,37.9,178.3L37.9,178.3z M-51,224.4h8.8c0,0,2.6,3.4,6.4,6.4
				c4,3.2,9.3,6,9.3,6s-6.5-1.2-12.6-4.3C-45.4,229.3-51,224.4-51,224.4L-51,224.4z M-39.3,224.4H-27c0,0,2.3,4.3,5.3,7.6
				c3.4,3.7,7.7,6.7,7.7,6.7s-6.8-1.2-12.9-4.7C-33.5,230.4-39.3,224.4-39.3,224.4L-39.3,224.4z M-15.7,234.6
				c-5.1-4-8.4-10.2-8.4-10.2h13.9c0,0,0.5,4,1.9,7.6c1.7,4.2,4.3,8,4.3,8C-3.9,240-10.7,238.5-15.7,234.6L-15.7,234.6z M1.7,240.8
				c0,0-2.7,0.4-5.2-4.6c-2-4.4-3.9-11.8-3.9-11.8h18c0,0-1.7,7.3-3.8,11.7C4.1,241.3,1.7,240.8,1.7,240.8L1.7,240.8z M11,232.5
				c1.4-3.7,2-8.1,2-8.1h14.1c0,0-3.3,6.3-8.1,10c-5.2,4-12,5.7-12,5.7S9.5,236.5,11,232.5L11,232.5z M24.9,231.8
				c3.1-3.6,5.1-7.4,5.1-7.4h12.2c0,0-3.9,4.9-9.6,8.1c-6.5,3.8-14.9,6.1-14.9,6.1C17.5,238.7,21.8,235.3,24.9,231.8L24.9,231.8z
				 M41.7,232.8c-6,3.1-12.1,3.7-12.1,3.7s4.3-1.9,8.2-4.9c4-3.1,7.6-7.3,7.6-7.3h8.7C54.1,224.4,47.9,229.8,41.7,232.8L41.7,232.8z
				 M44.6,221.9H31.1c0,0,1.8-4.2,2.7-8.1c0.8-3.9,0.7-7.5,0.7-7.5h15.9c0,0-0.2,4.5-1.5,8C47.3,218.5,44.6,221.9,44.6,221.9
				L44.6,221.9z M49.2,196.3c1.4,3.9,1.2,7.7,1.2,7.7H34.5c0,0,0.2-4-0.6-7.8c-0.8-4.2-2.8-8.3-2.8-8.3h13.5
				C44.6,187.9,47.7,192.1,49.2,196.3L49.2,196.3z M42.2,185.6H30c0,0-2.3-4.1-5.3-7.8c-3.1-3.4-7-6.4-7-6.4s7.8,2,14.1,5.6
				C37.8,180.6,42.2,185.6,42.2,185.6L42.2,185.6z M14.7,206.3h17.6c0,0-0.4,4.9-1.2,8.7c-0.9,4-2.4,6.9-2.4,6.9H13.6
				c0,0,0.5-2.3,0.7-6.1C14.6,211.8,14.7,206.3,14.7,206.3L14.7,206.3z M28.6,187.9c0,0,1.7,3.2,2.5,7.4c0.8,3.9,1.1,8.7,1.1,8.7
				H14.6c0,0-0.2-6.3-0.6-10.4c-0.4-4-0.6-5.7-0.6-5.7L28.6,187.9L28.6,187.9z M19,175.6c4.7,3.7,8.2,10,8.2,10H13
				c0,0-0.5-4-1.8-7.8c-1.4-4-3.9-7.7-3.9-7.7S13.7,171.6,19,175.6L19,175.6z M1.7,169.6c0,0,2.5-0.4,5.1,4.7
				c2.4,4.8,3.8,11.4,3.8,11.4h-18c0,0,1.7-7.5,3.4-11.1C-1.2,169.1,1.7,169.6,1.7,169.6L1.7,169.6z M11.7,216.7
				c-0.4,3.7-0.8,5.2-0.8,5.2H-7.7c0,0-0.7-1.7-1.1-5.3c-0.5-4.3-0.7-10.4-0.7-10.4h21.8C12.4,206.3,12.1,212.6,11.7,216.7
				L11.7,216.7z M-8.9,194.8c0.5-4,1.2-6.9,1.2-6.9h18.6c0,0,0.6,2.5,0.9,6.6c0.4,4,0.6,9.6,0.6,9.6H-9.4
				C-9.4,204-9.3,198.8-8.9,194.8L-8.9,194.8z M-7.8,177.2c-1.5,3.9-2.4,8.5-2.4,8.5h-13.9c0,0,3.2-6.3,8.3-10.3
				c5-3.8,11.7-5.2,11.7-5.2C-4,170.3-6.3,173.3-7.8,177.2L-7.8,177.2z M-21.7,178c-3.2,3.5-5.5,7.7-5.5,7.7h-12.2
				c0,0,4.5-5.3,10.9-9c6.2-3.4,14.2-5.2,14.2-5.2C-14.1,171.5-18.4,174.4-21.7,178L-21.7,178z M-41.3,178.8
				c6.5-3.3,14.6-5.5,14.6-5.5s-5,2.5-9,5.6c-3.8,3-6.8,6.7-6.8,6.7H-51C-51,185.6-47,181.7-41.3,178.8L-41.3,178.8z M-59.1,195.7
				c1.9-4.1,5.6-7.8,5.6-7.8h9c0,0-2.7,4.1-4,8.1c-1.3,4-1.4,7.9-1.4,7.9h-11C-60.8,204-60.8,199.6-59.1,195.7L-59.1,195.7z
				 M-58.9,214.8c-1.8-3.7-1.9-8.5-1.9-8.5h11c0,0,0,4.2,1.3,7.8c1.4,4.1,4.2,7.8,4.2,7.8h-9C-53.5,221.9-57.1,218.9-58.9,214.8
				L-58.9,214.8z M-45.8,214.9c-1.5-3.7-1.7-8.7-1.7-8.7h15.9c0,0,0,4.3,0.8,8.1c0.8,4,2.5,7.5,2.5,7.5h-13
				C-41.3,221.9-44.2,219-45.8,214.9L-45.8,214.9z M-25.3,221.9c0,0-1.9-2.9-2.8-6.6c-1.1-4.1-1.2-9-1.2-9h17.6c0,0,0.1,5.8,0.5,9.9
				c0.2,3.7,0.7,5.8,0.7,5.8L-25.3,221.9L-25.3,221.9z M-31.7,204h-15.9c0,0,0.4-4.8,1.9-8.7c1.7-4.2,4.4-7.5,4.4-7.5h13
				c0,0-1.7,3.6-2.5,7.5C-31.7,199.5-31.7,204-31.7,204L-31.7,204z M-25.3,187.9h14.7c0,0-0.5,2.9-0.8,6.9c-0.2,4-0.5,9.1-0.5,9.1
				h-17.6c0,0,0.2-5,1.2-8.8C-27,190.9-25.3,187.9-25.3,187.9L-25.3,187.9z M-37.6,268.4c3.6-2.5,8.1-4.5,13.4-6
				c6.2-1.7,14.5-2.6,24.8-2.6c10,0,17.6,0.5,22.4,1.6c4.9,1.1,9.1,2.7,12.3,4.9c3.3,2.2,5.7,5.1,7.4,8.5l-27,2.8
				c-1.1-2-3-3.6-5.7-4.6s-6-1.6-10.2-1.6c-6.2,0-11,1.3-14.7,3.7c-3.7,2.5-5.5,6.5-5.5,11.9c0,5.8,1.9,9.9,5.6,12.3
				c3.7,2.5,8.8,3.7,15.4,3.7c3.1,0,6.2-0.2,9-0.8c2.8-0.5,6-1.4,9.7-2.7v-5H0.6v-10.9h43.3v12.7l24.4-0.9c0.6,2.5,1.8,4.5,3.6,5.8
				c2.8,2.2,7,3.2,12.3,3.2c4,0,7.1-0.5,9.3-1.6c2.1-1.1,3.2-2.4,3.2-3.8c0-1.4-1.1-2.6-3.1-3.7c-2-1.1-6.9-2.1-14.3-3.1
				c-12.3-1.6-21-3.8-26.2-6.5c-5.2-2.7-7.9-6.1-7.9-10.3c0-2.8,1.3-5.3,4-7.8s6.8-4.3,12.2-5.8c5.5-1.4,12.8-2.1,22.3-2.1
				c11.6,0,20.4,1.3,26.4,3.8c6,2.5,9.7,6.6,10.8,12.1l-26.4,0.9c-0.7-2.4-2.1-4.1-4.4-5.2c-2.3-1.1-5.3-1.6-9.3-1.6
				c-3.2,0-5.7,0.4-7.4,1.2c-1.7,0.8-2.5,1.8-2.5,3c0,0.8,0.7,1.6,2,2.3c1.3,0.7,4.4,1.3,9.4,1.9c12.2,1.6,21,3.1,26.3,4.7
				c5.3,1.6,9.1,3.6,11.5,5.9c2.4,2.3,3.6,5,3.6,7.9c0,3.4-1.7,6.6-4.9,9.4s-7.7,5.1-13.5,6.6c-5.8,1.5-13,2.2-21.8,2.2
				c-15.4,0-26.1-1.7-32-5.2c-3.6-2.1-6.2-4.5-7.8-7.2v3.7c-8.3,3.3-15.7,5.6-21.9,6.8c-6.4,1.2-13.9,1.8-22.7,1.8
				c-10.8,0-19.6-1-26.3-3.3c-6.8-2.2-12-5.4-15.8-9.6s-5.6-9.2-5.6-14.7c0-5.1,1.5-9.6,4.6-13.5h-22.8v40.2H-95v-40.1h-28.7v-13.1
				h85.5v7.8H-37.6z"/>
		</g>
	</g>
</g>
</svg>
