<?xml version="1.0" encoding="utf-8"?>
<!-- Generator: Adobe Illustrator 19.0.0, SVG Export Plug-In . SVG Version: 6.00 Build 0)  -->
<svg version="1.1" id="Layer_1" xmlns="http://www.w3.org/2000/svg" xmlns:xlink="http://www.w3.org/1999/xlink" x="0px" y="0px"
	 viewBox="168 376.3 250 250" style="enable-background:new 168 376.3 250 250;" xml:space="preserve">
<style type="text/css">
	.st0{fill:#FFFFFF;}
</style>
<g>
	<g>
		<g>
			<path id="SVGID_1_" class="st0" d="M387.2,405.8l-0.7,4.1h-0.8l-0.7-4.1v4.1h-0.8v-5.3h1.4l0.5,3.3l0.5-3.3h1.4v5.3h-0.8
				L387.2,405.8L387.2,405.8z M382.3,406.3c0.5,0.2,0.8,0.3,1,0.5c0.2,0.2,0.3,0.3,0.4,0.6c0.1,0.3,0.1,0.5,0.1,0.8
				c0,0.3-0.1,0.7-0.2,0.9c-0.1,0.3-0.3,0.5-0.5,0.7c-0.2,0.2-0.5,0.2-0.8,0.2c-0.6,0-1-0.2-1.2-0.5c-0.2-0.3-0.3-0.8-0.4-1.3l1-0.1
				c0,0.3,0.1,0.5,0.1,0.6c0.1,0.2,0.3,0.3,0.5,0.3c0.2,0,0.3,0,0.3-0.2c0.1-0.1,0.1-0.3,0.1-0.4c0-0.1,0-0.3-0.1-0.4
				c-0.1-0.1-0.3-0.2-0.5-0.3c-0.5-0.2-0.8-0.4-1-0.6c-0.2-0.3-0.3-0.6-0.3-1c0-0.3,0.1-0.5,0.2-0.8c0.1-0.3,0.2-0.4,0.5-0.6
				c0.2-0.1,0.5-0.2,0.8-0.2c0.4,0,0.7,0.1,1,0.4c0.2,0.3,0.3,0.7,0.4,1.2l-1,0.1c0-0.3-0.1-0.4-0.2-0.5c-0.1-0.1-0.2-0.2-0.3-0.2
				c-0.1,0-0.2,0-0.3,0.1c-0.1,0.1-0.1,0.2-0.1,0.3c0,0.1,0,0.2,0.1,0.2C382,406.2,382.1,406.3,382.3,406.3L382.3,406.3z
				 M388.4,443.7c0,0-3.8,43.3-40.8,53.9c-51.2,14.6-76.5-9.4-76.5-9.4s34.2,7.3,58.6-5.9c24.3-13.1,28.2-38.5,28.2-38.5h-9.7
				l26.4-39.6l23.4,39.6H388.4L388.4,443.7z M262.9,395.1c-31.1,11.5-34.5,42.3-34.5,42.3h10.1l-26.4,38.9l-23-38.9h9.5
				c0,0,0.3-46.7,47.9-57c47.9-10.5,69.8,12,69.8,12S289.3,385.3,262.9,395.1L262.9,395.1z M395.2,595.7H189.1v-2.3h206.1V595.7
				L395.2,595.7z M198.8,608.9h-3.1v11.7h-3v-11.7h-3.1V605h9.2V608.9L198.8,608.9z M202.5,611.2c0.2-0.8,0.5-1.4,0.8-1.6
				c0.3-0.3,0.6-0.5,1-0.5c0.4,0,0.8,0.2,1.3,0.6l-0.8,3.1c-0.3-0.2-0.6-0.3-0.8-0.3c-0.3,0-0.6,0.3-0.8,0.7
				c-0.3,0.7-0.4,1.9-0.4,3.7v3.8H200v-11.3h2.5L202.5,611.2L202.5,611.2z M207.8,614.3c1-0.3,1.7-0.5,2-0.7c0.3-0.1,0.6-0.3,1-0.5
				c0-0.5-0.1-0.9-0.2-1.1c-0.1-0.2-0.4-0.3-0.7-0.3c-0.5,0-0.8,0.1-1,0.3c-0.2,0.2-0.3,0.5-0.4,1l-2.6-0.4c0.1-0.7,0.2-1.3,0.4-1.7
				c0.2-0.4,0.5-0.8,0.8-1.1c0.2-0.2,0.6-0.4,1-0.5c0.4-0.1,0.9-0.2,1.4-0.2c0.8,0,1.5,0.1,2,0.2s0.9,0.5,1.2,0.9
				c0.2,0.3,0.4,0.8,0.6,1.4c0.1,0.6,0.2,1.1,0.2,1.7v5c0,0.5,0,0.9,0.1,1.3c0.1,0.3,0.1,0.7,0.3,1.1h-2.5c-0.1-0.3-0.2-0.5-0.2-0.7
				c0-0.2-0.1-0.4-0.1-0.7c-0.3,0.5-0.7,0.9-1.1,1.2c-0.5,0.3-1,0.5-1.7,0.5c-0.8,0-1.5-0.3-1.9-0.9c-0.5-0.6-0.7-1.4-0.7-2.3
				c0-0.8,0.2-1.6,0.5-2.1C206.4,614.9,207,614.6,207.8,614.3L207.8,614.3z M208.5,618.1c0.2,0.2,0.4,0.3,0.7,0.3s0.6-0.1,0.8-0.3
				c0.3-0.3,0.5-0.5,0.6-0.8s0.2-0.8,0.2-1.3v-0.7c-0.4,0.2-0.8,0.4-1.2,0.5c-0.6,0.3-0.9,0.5-1,0.7c-0.2,0.3-0.2,0.5-0.2,0.8
				C208.3,617.6,208.4,617.9,208.5,618.1L208.5,618.1z M217.5,611.1c0.4-0.8,0.8-1.3,1.1-1.6c0.4-0.3,0.8-0.5,1.4-0.5
				c0.7,0,1.3,0.3,1.7,1.1c0.4,0.7,0.6,1.8,0.6,3.3v7.2h-2.7v-6.2c0-0.7-0.1-1.2-0.2-1.5c-0.2-0.3-0.4-0.4-0.7-0.4
				c-0.3,0-0.6,0.2-0.8,0.6c-0.2,0.4-0.3,1.1-0.3,2.2v5.4H215v-11.3h2.5L217.5,611.1L217.5,611.1z M226.7,618.1
				c0.2,0.2,0.5,0.3,0.8,0.3c0.4,0,0.6-0.1,0.8-0.4c0.2-0.2,0.2-0.4,0.2-0.7c0-0.3-0.1-0.5-0.3-0.7c-0.2-0.1-0.5-0.3-1.2-0.5
				c-1-0.3-1.6-0.5-2-0.7c-0.4-0.2-0.7-0.6-0.9-1.1c-0.2-0.5-0.4-1.1-0.4-1.8c0-0.8,0.1-1.4,0.4-1.9c0.3-0.5,0.6-0.9,1.1-1.2
				c0.5-0.3,1.1-0.4,1.9-0.4c0.8,0,1.5,0.1,1.9,0.3c0.4,0.2,0.7,0.5,1,1c0.3,0.4,0.5,1,0.7,1.7l-2.6,0.4c-0.1-0.4-0.2-0.6-0.3-0.8
				c-0.2-0.2-0.5-0.3-0.8-0.3c-0.3,0-0.5,0.1-0.7,0.3c-0.1,0.2-0.2,0.4-0.2,0.6c0,0.3,0.1,0.5,0.3,0.6c0.2,0.1,0.6,0.3,1.2,0.4
				c0.9,0.2,1.6,0.4,2,0.7c0.5,0.3,0.8,0.7,1,1.2c0.2,0.5,0.3,1.1,0.3,1.8c0,0.6-0.1,1.3-0.4,1.9c-0.2,0.6-0.6,1.1-1.2,1.5
				c-0.5,0.4-1.2,0.5-2.2,0.5c-1.3,0-2.2-0.3-2.8-0.9c-0.6-0.6-0.9-1.4-1.1-2.5l2.7-0.4C226.4,617.6,226.5,617.9,226.7,618.1
				L226.7,618.1z M235.8,616.6h-3.9v-3.3h3.9V616.6L235.8,616.6z M239.3,605.5c0.7-0.5,1.6-0.8,2.7-0.8c1.1,0,1.9,0.2,2.4,0.5
				c0.5,0.3,1,0.8,1.3,1.4c0.3,0.7,0.6,1.5,0.8,2.5l-2.9,0.8c-0.1-0.6-0.3-1.1-0.6-1.4c-0.3-0.3-0.7-0.5-1.1-0.5
				c-0.7,0-1.2,0.4-1.6,1.1c-0.4,0.7-0.6,1.9-0.6,3.5c0,1.7,0.2,2.9,0.6,3.6c0.4,0.7,1,1.1,1.7,1.1c0.3,0,0.7-0.1,1-0.3
				c0.3-0.2,0.7-0.4,1.1-0.8v-1.5h-2v-3.2h4.7v6.6c-0.9,1-1.7,1.6-2.4,2c-0.7,0.3-1.5,0.5-2.4,0.5c-1.2,0-2.1-0.3-2.8-0.9
				c-0.7-0.6-1.3-1.6-1.7-2.8c-0.4-1.3-0.6-2.7-0.6-4.3c0-1.7,0.2-3.2,0.7-4.4C237.8,607.1,238.4,606.1,239.3,605.5L239.3,605.5z
				 M251,620.6h-2.7V605h2.7V620.6L251,620.6z M256.4,609.1c1.4,0,2.5,0.7,3.2,2c0.6,1.1,0.9,2.4,0.9,3.9c0,1.7-0.4,3.2-1.1,4.3
				c-0.7,1.1-1.7,1.6-3,1.6c-1.1,0-2.1-0.5-2.8-1.4c-0.9-1.1-1.3-2.6-1.3-4.5c0-1.7,0.4-3.1,1.1-4.3
				C254.2,609.6,255.2,609.1,256.4,609.1L256.4,609.1z M255.5,617.2c0.3,0.5,0.6,0.7,1,0.7c0.4,0,0.7-0.3,1-0.7s0.4-1.2,0.4-2.3
				c0-1-0.1-1.7-0.4-2.2c-0.3-0.5-0.6-0.7-0.9-0.7c-0.4,0-0.7,0.3-1,0.7s-0.4,1.2-0.4,2.2C255.1,616,255.2,616.7,255.5,617.2
				L255.5,617.2z M264.5,610.4c0.3-0.5,0.6-0.8,0.9-1s0.7-0.3,1.1-0.3c0.8,0,1.6,0.5,2.1,1.5c0.6,1,0.8,2.4,0.8,4.3
				c0,1.2-0.1,2.3-0.4,3.3c-0.3,0.9-0.6,1.6-1.1,2.1c-0.5,0.5-1,0.7-1.5,0.7c-0.5,0-0.9-0.2-1.3-0.5c-0.3-0.3-0.6-0.7-1-1.4v1.6
				h-2.5V605h2.7V610.4L264.5,610.4z M264.8,617c0.2,0.4,0.5,0.6,0.9,0.6c0.3,0,0.6-0.2,0.8-0.6c0.2-0.4,0.3-1.1,0.3-2.2
				c0-0.9-0.1-1.6-0.3-2c-0.2-0.4-0.5-0.6-0.8-0.6c-0.4,0-0.7,0.2-0.9,0.6c-0.2,0.4-0.3,1.1-0.3,2
				C264.5,615.9,264.6,616.6,264.8,617L264.8,617z M272.7,614.3c1-0.3,1.7-0.5,2-0.7c0.3-0.1,0.6-0.3,1-0.5c0-0.5-0.1-0.9-0.2-1.1
				c-0.1-0.2-0.4-0.3-0.7-0.3c-0.5,0-0.8,0.1-1,0.3c-0.2,0.2-0.3,0.5-0.4,1l-2.6-0.4c0.1-0.7,0.2-1.3,0.4-1.7
				c0.2-0.4,0.5-0.8,0.8-1.1c0.2-0.2,0.6-0.4,1-0.5c0.4-0.1,0.9-0.2,1.4-0.2c0.8,0,1.5,0.1,2,0.2c0.5,0.1,0.9,0.5,1.2,0.9
				c0.2,0.3,0.4,0.8,0.6,1.4c0.1,0.6,0.2,1.1,0.2,1.7v5c0,0.5,0,0.9,0.1,1.3c0.1,0.3,0.1,0.7,0.3,1.1h-2.5c-0.1-0.3-0.2-0.5-0.2-0.7
				c0-0.2-0.1-0.4-0.1-0.7c-0.3,0.5-0.7,0.9-1.1,1.2c-0.5,0.3-1,0.5-1.7,0.5c-0.8,0-1.5-0.3-1.9-0.9c-0.5-0.6-0.7-1.4-0.7-2.3
				c0-0.8,0.2-1.6,0.5-2.1C271.3,614.9,271.9,614.6,272.7,614.3L272.7,614.3z M273.5,618.1c0.2,0.2,0.4,0.3,0.7,0.3
				c0.3,0,0.6-0.1,0.8-0.3c0.3-0.3,0.5-0.5,0.6-0.8c0.1-0.3,0.2-0.8,0.2-1.3v-0.7c-0.4,0.2-0.8,0.4-1.2,0.5c-0.6,0.3-0.9,0.5-1,0.7
				c-0.2,0.3-0.2,0.5-0.2,0.8C273.2,617.6,273.3,617.9,273.5,618.1L273.5,618.1z M282.7,620.6H280V605h2.7V620.6L282.7,620.6z
				 M291.8,616.9c0.3,0.6,0.7,0.9,1.3,0.9c0.4,0,0.8-0.2,1-0.5c0.2-0.3,0.3-0.7,0.3-1.1c0-0.4-0.1-0.8-0.3-1.1
				c-0.2-0.3-0.7-0.6-1.5-0.9c-1.3-0.5-2.3-1.1-2.8-1.9s-0.8-1.8-0.8-3c0-0.8,0.1-1.6,0.4-2.3c0.3-0.7,0.7-1.3,1.3-1.7
				c0.6-0.4,1.4-0.6,2.4-0.6c1.2,0,2.2,0.4,2.9,1.1c0.7,0.8,1,1.9,1.2,3.5l-2.8,0.3c-0.1-0.7-0.2-1.2-0.5-1.5
				c-0.2-0.3-0.6-0.5-1-0.5c-0.3,0-0.6,0.1-0.8,0.3c-0.2,0.3-0.3,0.5-0.3,0.9c0,0.3,0.1,0.5,0.2,0.7s0.5,0.4,1,0.6
				c1.3,0.5,2.3,0.9,2.8,1.4s1,1.1,1.2,1.7c0.3,0.7,0.4,1.4,0.4,2.3c0,1-0.2,1.9-0.5,2.7s-0.8,1.5-1.5,1.9c-0.6,0.4-1.4,0.6-2.4,0.6
				c-1.7,0-2.8-0.5-3.4-1.5c-0.6-1-1-2.3-1.1-3.9l2.9-0.3C291.5,615.9,291.6,616.5,291.8,616.9L291.8,616.9z M302.5,609.1
				c1.4,0,2.5,0.7,3.2,2c0.6,1.1,0.9,2.4,0.9,3.9c0,1.7-0.4,3.2-1.1,4.3c-0.7,1.1-1.7,1.6-3,1.6c-1.1,0-2.1-0.5-2.8-1.4
				c-0.9-1.1-1.3-2.6-1.3-4.5c0-1.7,0.4-3.1,1.1-4.3C300.3,609.6,301.2,609.1,302.5,609.1L302.5,609.1z M301.5,617.2
				c0.3,0.5,0.6,0.7,1,0.7c0.4,0,0.7-0.3,1-0.7s0.4-1.2,0.4-2.3c0-1-0.1-1.7-0.4-2.2c-0.3-0.5-0.6-0.7-0.9-0.7c-0.4,0-0.7,0.3-1,0.7
				s-0.4,1.2-0.4,2.2C301.1,616,301.3,616.7,301.5,617.2L301.5,617.2z M310.6,620.6h-2.7V605h2.7V620.6L310.6,620.6z M315,615.5
				c0,0.7,0.1,1.2,0.2,1.5c0.2,0.3,0.4,0.5,0.7,0.5c0.3,0,0.6-0.2,0.8-0.6c0.2-0.4,0.3-1.1,0.3-2.2v-5.4h2.7v11.2h-2.5v-1.8
				c-0.4,0.8-0.8,1.3-1.1,1.6c-0.4,0.3-0.8,0.5-1.4,0.5c-0.7,0-1.3-0.3-1.7-1.1s-0.6-1.8-0.6-3.3v-7.2h2.7L315,615.5L315,615.5z
				 M322,607.2l2.7-2.2v4.3h1.5v3.2h-1.5v4c0,0.5,0,0.8,0.1,1c0.1,0.3,0.2,0.4,0.5,0.4c0.2,0,0.5-0.1,0.8-0.3l0.2,3
				c-0.7,0.3-1.3,0.3-1.9,0.3c-0.7,0-1.2-0.1-1.5-0.4c-0.3-0.3-0.6-0.7-0.7-1.3c-0.2-0.5-0.2-1.5-0.2-2.7v-4h-1v-3.2h1L322,607.2
				L322,607.2z M330.2,608h-2.7v-3h2.7V608L330.2,608z M330.2,620.6h-2.7v-11.3h2.7V620.6L330.2,620.6z M335.6,609.1
				c1.4,0,2.5,0.7,3.2,2c0.6,1.1,0.9,2.4,0.9,3.9c0,1.7-0.4,3.2-1.1,4.3c-0.7,1.1-1.7,1.6-3,1.6c-1.1,0-2.1-0.5-2.8-1.4
				c-0.9-1.1-1.3-2.6-1.3-4.5c0-1.7,0.4-3.1,1.1-4.3C333.4,609.6,334.4,609.1,335.6,609.1L335.6,609.1z M334.7,617.2
				c0.3,0.5,0.6,0.7,1,0.7c0.4,0,0.7-0.3,1-0.7c0.2-0.5,0.4-1.2,0.4-2.3c0-1-0.1-1.7-0.4-2.2c-0.3-0.5-0.6-0.7-0.9-0.7
				c-0.4,0-0.7,0.3-1,0.7s-0.4,1.2-0.4,2.2C334.3,616,334.5,616.7,334.7,617.2L334.7,617.2z M343.5,611.1c0.4-0.8,0.8-1.3,1.1-1.6
				c0.4-0.3,0.8-0.5,1.4-0.5c0.7,0,1.3,0.3,1.7,1.1c0.4,0.7,0.6,1.8,0.6,3.3v7.2h-2.7v-6.2c0-0.7-0.1-1.2-0.2-1.5
				c-0.2-0.3-0.4-0.4-0.7-0.4c-0.3,0-0.6,0.2-0.8,0.6c-0.2,0.4-0.3,1.1-0.3,2.2v5.4H341v-11.3h2.5L343.5,611.1L343.5,611.1z
				 M352.7,618.1c0.2,0.2,0.5,0.3,0.8,0.3c0.4,0,0.6-0.1,0.8-0.4c0.2-0.2,0.2-0.4,0.2-0.7c0-0.3-0.1-0.5-0.3-0.7
				c-0.2-0.1-0.5-0.3-1.2-0.5c-1-0.3-1.6-0.5-2-0.7s-0.7-0.6-0.9-1.1c-0.2-0.5-0.4-1.1-0.4-1.8c0-0.8,0.1-1.4,0.4-1.9
				c0.3-0.5,0.6-0.9,1.1-1.2c0.5-0.3,1.1-0.4,1.9-0.4c0.8,0,1.5,0.1,1.9,0.3c0.4,0.2,0.7,0.5,1,1c0.3,0.4,0.5,1,0.7,1.7l-2.6,0.4
				c-0.1-0.4-0.2-0.6-0.3-0.8c-0.2-0.2-0.5-0.3-0.8-0.3c-0.3,0-0.5,0.1-0.7,0.3c-0.1,0.2-0.2,0.4-0.2,0.6c0,0.3,0.1,0.5,0.3,0.6
				c0.2,0.1,0.6,0.3,1.2,0.4c0.9,0.2,1.6,0.4,2,0.7c0.5,0.3,0.8,0.7,1,1.2c0.2,0.5,0.3,1.1,0.3,1.8c0,0.6-0.1,1.3-0.4,1.9
				c-0.2,0.6-0.6,1.1-1.2,1.5c-0.5,0.4-1.2,0.5-2.2,0.5c-1.3,0-2.2-0.3-2.8-0.9s-0.9-1.4-1.1-2.5l2.7-0.4
				C352.4,617.6,352.5,617.9,352.7,618.1L352.7,618.1z M361.3,619.9c0,1.3-0.2,2.3-0.5,3.1c-0.3,0.8-0.9,1.4-1.7,2l-0.6-1.9
				c0.5-0.4,0.9-0.8,1.1-1.1c0.2-0.4,0.3-0.8,0.3-1.4h-1.4v-4.3h2.9V619.9L361.3,619.9z M370.7,620.6h-3V605h3V620.6L370.7,620.6z
				 M375.2,611.1c0.4-0.8,0.8-1.3,1.1-1.6c0.4-0.3,0.8-0.5,1.4-0.5c0.7,0,1.3,0.3,1.7,1.1c0.4,0.7,0.6,1.8,0.6,3.3v7.2h-2.7v-6.2
				c0-0.7-0.1-1.2-0.2-1.5c-0.2-0.3-0.4-0.4-0.7-0.4c-0.3,0-0.6,0.2-0.8,0.6c-0.2,0.4-0.3,1.1-0.3,2.2v5.4h-2.7v-11.3h2.5
				L375.2,611.1L375.2,611.1z M382.5,610.6c0.3-0.5,0.6-0.8,1-1c0.5-0.3,1.2-0.5,2-0.5c1.2,0,2,0.3,2.6,1c0.6,0.7,1,1.6,1.3,2.9
				l-2.5,0.5c-0.1-0.5-0.2-0.8-0.4-1.1c-0.2-0.3-0.5-0.4-0.8-0.4c-0.5,0-0.8,0.3-1.1,0.8c-0.3,0.5-0.4,1.3-0.4,2.3
				c0,0.9,0.1,1.6,0.4,2.1c0.3,0.5,0.6,0.7,1.1,0.7c0.3,0,0.7-0.1,0.9-0.4c0.2-0.3,0.4-0.7,0.5-1.4l2.6,0.5
				c-0.1,0.8-0.4,1.6-0.7,2.2c-0.3,0.6-0.7,1.1-1.2,1.5c-0.5,0.3-1.1,0.5-1.9,0.5c-0.7,0-1.4-0.1-1.9-0.3c-0.5-0.2-0.9-0.6-1.3-1.1
				s-0.6-1.1-0.8-1.8c-0.2-0.7-0.3-1.6-0.3-2.7c0-1.1,0.1-2.1,0.4-2.9C382,611.6,382.2,611,382.5,610.6L382.5,610.6z M393.7,620.6
				h-2.9v-4.4h2.9V620.6L393.7,620.6z"/>
		</g>
	</g>
	<g>
		<g>
			<path id="SVGID_3_" class="st0" d="M339.6,462.4H332c0,0,2.2-4.5,3.3-9.7c1.1-5.3,1.2-11.2,1.2-11.2h9.6c0,0-0.2,5.9-1.8,11.1
				C342.7,457.8,339.6,462.4,339.6,462.4L339.6,462.4z M335.5,428.1c-1.2-5.6-3.5-11.2-3.5-11.2h7.6c0,0,3,4.5,4.7,10
				c1.6,5.2,1.8,11.5,1.8,11.5h-9.6C336.5,438.4,336.6,433.3,335.5,428.1L335.5,428.1z M324,404c-3.2-4-7-6.7-7-6.7s6,2.1,11.5,6.5
				c4.8,3.8,9.1,10.1,9.1,10.1h-7.3C330.3,413.8,327.5,408.3,324,404L324,404z M249,465.7h7.4c0,0,2.2,4.6,5.4,8.6
				c3.4,4.3,7.8,8,7.8,8s-5.5-1.6-10.6-5.8C253.7,472.2,249,465.7,249,465.7L249,465.7z M258.9,465.7h10.3c0,0,1.9,5.7,4.5,10.2
				c2.9,5,6.5,9,6.5,9s-5.7-1.6-10.9-6.3C263.8,473.7,258.9,465.7,258.9,465.7L258.9,465.7z M278.8,479.4
				c-4.3-5.3-7.1-13.7-7.1-13.7h11.7c0,0,0.4,5.4,1.6,10.2c1.4,5.6,3.6,10.7,3.6,10.7C288.7,486.6,283,484.6,278.8,479.4
				L278.8,479.4z M293.4,487.7c0,0-2.3,0.6-4.4-6.2c-1.7-5.9-3.3-15.8-3.3-15.8h15.2c0,0-1.4,9.8-3.2,15.7
				C295.5,488.3,293.4,487.7,293.4,487.7L293.4,487.7z M301.3,476.5c1.2-5,1.7-10.8,1.7-10.8h11.9c0,0-2.8,8.4-6.8,13.4
				c-4.4,5.4-10.1,7.6-10.1,7.6S300,481.9,301.3,476.5L301.3,476.5z M313,475.6c2.6-4.8,4.3-9.9,4.3-9.9h10.3c0,0-3.3,6.5-8.1,10.9
				c-5.5,5.1-12.6,8.2-12.6,8.2C306.8,484.9,310.4,480.3,313,475.6L313,475.6z M327.2,477c-5.1,4.1-10.2,5-10.2,5s3.6-2.5,6.9-6.5
				c3.4-4.1,6.4-9.8,6.4-9.8h7.3C337.6,465.7,332.4,472.9,327.2,477L327.2,477z M329.6,462.4h-11.4c0,0,1.5-5.6,2.3-10.9
				c0.7-5.2,0.6-10.1,0.6-10.1h13.4c0,0-0.2,6-1.3,10.7C331.9,457.8,329.6,462.4,329.6,462.4L329.6,462.4z M333.5,428.1
				c1.2,5.2,1,10.3,1,10.3h-13.4c0,0,0.2-5.3-0.5-10.5c-0.7-5.6-2.4-11.1-2.4-11.1h11.4C329.6,416.8,332.2,422.5,333.5,428.1
				L333.5,428.1z M327.6,413.8h-10.3c0,0-1.9-5.5-4.5-10.4c-2.6-4.6-5.9-8.6-5.9-8.6s6.6,2.7,11.9,7.5
				C323.9,407,327.6,413.8,327.6,413.8L327.6,413.8z M304.4,441.4h14.8c0,0-0.3,6.6-1,11.7c-0.8,5.4-2,9.3-2,9.3h-12.7
				c0,0,0.4-3.1,0.6-8.2C304.3,448.8,304.4,441.4,304.4,441.4L304.4,441.4z M316.1,416.8c0,0,1.4,4.3,2.1,9.9
				c0.7,5.2,0.9,11.7,0.9,11.7h-14.8c0,0-0.2-8.5-0.5-13.9c-0.3-5.3-0.5-7.6-0.5-7.6H316.1L316.1,416.8z M308,400.4
				c4,4.9,6.9,13.4,6.9,13.4H303c0,0-0.4-5.3-1.5-10.4c-1.2-5.3-3.3-10.3-3.3-10.3S303.6,395,308,400.4L308,400.4z M293.4,392.3
				c0,0,2.1-0.6,4.3,6.3c2,6.4,3.2,15.3,3.2,15.3h-15.2c0,0,1.4-10,2.9-14.9C291,391.6,293.4,392.3,293.4,392.3L293.4,392.3z
				 M301.9,455.4c-0.3,4.9-0.7,7-0.7,7h-15.7c0,0-0.6-2.3-0.9-7.1c-0.4-5.7-0.6-13.9-0.6-13.9h18.4
				C302.5,441.4,302.2,449.9,301.9,455.4L301.9,455.4z M284.5,426c0.4-5.4,1-9.2,1-9.2h15.7c0,0,0.5,3.4,0.8,8.8
				c0.3,5.4,0.5,12.8,0.5,12.8h-18.4C284.1,438.4,284.2,431.4,284.5,426L284.5,426z M285.4,402.5c-1.3,5.2-2,11.4-2,11.4h-11.7
				c0,0,2.7-8.5,7-13.8c4.2-5.1,9.9-6.9,9.9-6.9C288.6,393.2,286.7,397.3,285.4,402.5L285.4,402.5z M273.7,403.6
				c-2.7,4.7-4.6,10.3-4.6,10.3h-10.3c0,0,3.8-7.1,9.2-12c5.2-4.6,12-7,12-7C280.1,394.9,276.5,398.8,273.7,403.6L273.7,403.6z
				 M257.2,404.7c5.5-4.4,12.3-7.4,12.3-7.4s-4.2,3.3-7.6,7.5c-3.2,4-5.7,9-5.7,9H249C249,413.8,252.4,408.5,257.2,404.7
				L257.2,404.7z M242.2,427.3c1.6-5.5,4.7-10.4,4.7-10.4h7.6c0,0-2.3,5.5-3.4,10.9c-1.1,5.3-1.2,10.6-1.2,10.6h-9.3
				C240.7,438.4,240.7,432.5,242.2,427.3L242.2,427.3z M242.3,452.8c-1.5-4.9-1.6-11.4-1.6-11.4h9.3c0,0,0,5.6,1.1,10.5
				c1.2,5.5,3.5,10.4,3.5,10.4h-7.6C246.9,462.4,243.9,458.3,242.3,452.8L242.3,452.8z M253.4,453c-1.3-5-1.4-11.6-1.4-11.6h13.4
				c0,0,0,5.7,0.7,10.9c0.7,5.3,2.1,10.1,2.1,10.1h-11C257.2,462.4,254.7,458.5,253.4,453L253.4,453z M270.7,462.4
				c0,0-1.6-3.9-2.4-8.8c-0.9-5.5-1-12.1-1-12.1h14.8c0,0,0.1,7.7,0.4,13.2c0.2,4.9,0.6,7.7,0.6,7.7H270.7L270.7,462.4z
				 M265.3,438.4h-13.4c0,0,0.3-6.4,1.6-11.6c1.4-5.6,3.7-10,3.7-10h11c0,0-1.4,4.8-2.1,10.1C265.3,432.4,265.3,438.4,265.3,438.4
				L265.3,438.4z M270.7,416.8h12.4c0,0-0.4,3.9-0.7,9.3c-0.2,5.3-0.4,12.2-0.4,12.2h-14.8c0,0,0.2-6.7,1-11.8
				C269.2,420.9,270.7,416.8,270.7,416.8L270.7,416.8z M260.3,524.6c3-3.3,6.8-6,11.3-8c5.2-2.3,12.2-3.5,20.9-3.5
				c8.4,0,14.8,0.7,18.9,2.2s7.7,3.6,10.4,6.6c2.8,3,4.8,6.8,6.2,11.4l-22.8,3.8c-0.9-2.7-2.5-4.8-4.8-6.2c-2.3-1.4-5.1-2.2-8.6-2.2
				c-5.2,0-9.3,1.7-12.4,5c-3.1,3.3-4.6,8.7-4.6,15.9c0,7.7,1.6,13.2,4.7,16.5c3.1,3.3,7.4,4.9,13,4.9c2.6,0,5.2-0.3,7.6-1.1
				c2.4-0.7,5.1-1.9,8.2-3.6v-6.7h-15.8V545h36.5v17l20.6-1.2c0.5,3.4,1.5,6,3,7.8c2.4,2.9,5.9,4.3,10.4,4.3c3.4,0,6-0.7,7.8-2.2
				c1.8-1.5,2.7-3.2,2.7-5.1c0-1.9-0.9-3.5-2.6-4.9c-1.7-1.5-5.8-2.8-12.1-4.1c-10.4-2.2-17.7-5.1-22.1-8.7
				c-4.4-3.6-6.7-8.2-6.7-13.8c0-3.7,1.1-7.1,3.4-10.4s5.7-5.8,10.3-7.7c4.6-1.9,10.8-2.8,18.8-2.8c9.8,0,17.2,1.7,22.3,5.1
				c5.1,3.4,8.2,8.8,9.1,16.2l-22.3,1.2c-0.6-3.2-1.8-5.5-3.7-7c-1.9-1.5-4.5-2.2-7.8-2.2c-2.7,0-4.8,0.5-6.2,1.6
				c-1.4,1.1-2.1,2.4-2.1,4c0,1.1,0.6,2.2,1.7,3.1c1.1,0.9,3.7,1.8,7.9,2.6c10.3,2.1,17.7,4.2,22.2,6.3c4.5,2.1,7.7,4.8,9.7,7.9
				c2,3.1,3,6.7,3,10.6c0,4.6-1.4,8.8-4.1,12.6c-2.7,3.8-6.5,6.8-11.4,8.8s-11,3-18.4,3c-13,0-22-2.3-27-7c-3-2.8-5.2-6-6.6-9.7v5
				c-7,4.4-13.2,7.5-18.5,9.1c-5.4,1.6-11.7,2.4-19.1,2.4c-9.1,0-16.5-1.4-22.2-4.4c-5.7-2.9-10.1-7.2-13.3-12.9
				c-3.2-5.7-4.7-12.3-4.7-19.7c0-6.8,1.3-12.8,3.9-18.1h-19.2v53.8h-23.8v-53.7h-24.2v-17.6h72.1V524.6L260.3,524.6z"/>
		</g>
	</g>
</g>
</svg>
