<?xml version="1.0" encoding="utf-8"?>
<!-- Generator: Adobe Illustrator 19.0.0, SVG Export Plug-In . SVG Version: 6.00 Build 0)  -->
<svg version="1.1" id="Layer_1" xmlns="http://www.w3.org/2000/svg" xmlns:xlink="http://www.w3.org/1999/xlink" x="0px" y="0px"
	 viewBox="0 0 20 20" style="enable-background:new 0 0 20 20;" xml:space="preserve">
<style type="text/css">
	.st0{fill:none;stroke:#000000;stroke-width:2;stroke-miterlimit:10;}
</style>
<circle id="XMLID_1_" class="st0" cx="10" cy="10" r="8.3"/>
<path id="XMLID_2_" d="M10,10.7H4.7C4.3,10.7,4,10.4,4,10v0c0-0.4,0.3-0.7,0.7-0.7H10c0.4,0,0.7,0.3,0.7,0.7v0
	C10.7,10.4,10.4,10.7,10,10.7z"/>
<path id="XMLID_3_" d="M10.7,4.7V10c0,0.4-0.3,0.7-0.7,0.7h0c-0.4,0-0.7-0.3-0.7-0.7V4.7C9.3,4.3,9.6,4,10,4h0
	C10.4,4,10.7,4.3,10.7,4.7z"/>
</svg>
