<?xml version="1.0" encoding="utf-8"?>
<!-- Generator: Adobe Illustrator 19.0.0, SVG Export Plug-In . SVG Version: 6.00 Build 0)  -->
<svg version="1.1" id="Layer_1" xmlns="http://www.w3.org/2000/svg" xmlns:xlink="http://www.w3.org/1999/xlink" x="0px" y="0px"
	 viewBox="0 0 25 25" style="enable-background:new 0 0 25 25;" xml:space="preserve">
<style type="text/css">
	.st0{fill:#2964AD;}
</style>
<path id="XMLID_6_" class="st0" d="M12.5,10.1c-0.3,0-0.6,0.1-0.9,0.2c0.2,0.2,0.3,0.4,0.3,0.7c0,0.6-0.5,1.1-1.1,1.1
	c-0.2,0-0.4-0.1-0.6-0.2c-0.1,0.2-0.1,0.5-0.1,0.7c0,1.3,1.1,2.4,2.4,2.4s2.4-1.1,2.4-2.4C14.9,11.2,13.8,10.1,12.5,10.1z"/>
<path id="XMLID_11_" class="st0" d="M12.5,7.6c-4.5,0-8.2,4.9-8.2,4.9s3.7,4.9,8.2,4.9s8.2-4.9,8.2-4.9S17,7.6,12.5,7.6z M12.5,16.1
	c-2,0-3.6-1.6-3.6-3.6s1.6-3.6,3.6-3.6s3.6,1.6,3.6,3.6S14.5,16.1,12.5,16.1z"/>
</svg>
