<svg xmlns="http://www.w3.org/2000/svg" width="17.907" height="23.32" viewBox="0 0 17.907 23.32">
  <g id="zip" transform="translate(-6.5)">
    <path id="Path_1083" data-name="Path 1083" d="M19.195,0H7.109C6.773,0,6.5.273,6.5.8V22.9a.627.627,0,0,0,.609.416H23.8a.627.627,0,0,0,.609-.416V5.4c0-.29-.039-.383-.107-.452L19.454.107A.368.368,0,0,0,19.195,0Z" transform="translate(0 0)" fill="#e9e9e0"/>
    <path id="Path_1084" data-name="Path 1084" d="M37.5.151V5.085h4.934Z" transform="translate(-18.091 -0.088)" fill="#d9d7ca"/>
    <path id="Path_1085" data-name="Path 1085" d="M23.8,46.079H7.109A.609.609,0,0,1,6.5,45.47V39H24.407v6.47A.609.609,0,0,1,23.8,46.079Z" transform="translate(0 -22.759)" fill="#556080"/>
    <g id="Group_2173" data-name="Group 2173" transform="translate(11.525 17.875)">
      <path id="Path_1086" data-name="Path 1086" d="M21.357,42.924v.552l-2,3-.114.091h2.112v.552h-2.79v-.552l2-3,.12-.091H18.567v-.552Z" transform="translate(-18.567 -42.924)" fill="#fff"/>
      <path id="Path_1087" data-name="Path 1087" d="M28.3,47.12H27.6v-4.2H28.3Z" transform="translate(-23.84 -42.924)" fill="#fff"/>
      <path id="Path_1088" data-name="Path 1088" d="M32.456,47.12h-.683v-4.2H32.98a1.694,1.694,0,0,1,.529.085,1.439,1.439,0,0,1,.47.256,1.337,1.337,0,0,1,.336.413,1.143,1.143,0,0,1,.128.544,1.488,1.488,0,0,1-.108.578,1.208,1.208,0,0,1-.3.436,1.36,1.36,0,0,1-.467.273,1.8,1.8,0,0,1-.6.1h-.507V47.12Zm0-3.678V45.1h.626a.744.744,0,0,0,.248-.043.624.624,0,0,0,.225-.139.682.682,0,0,0,.165-.27,1.28,1.28,0,0,0,.062-.43,1.163,1.163,0,0,0-.028-.236.682.682,0,0,0-.117-.256.69.69,0,0,0-.248-.2.92.92,0,0,0-.421-.082h-.512Z" transform="translate(-26.274 -42.924)" fill="#fff"/>
    </g>
    <g id="Group_2174" data-name="Group 2174" transform="translate(13.163 2.499)">
      <path id="Path_1089" data-name="Path 1089" d="M25,13.5v-.833h.833V11.83H25V11h.833v-.833H25V9.331h.833V8.5H25V7.666h.833V6.833H25V6h-.833v.833h-.833v.833h.833V8.5h-.833v.833h.833v.833h-.833V11h.833v.833h-.833v.833h.833V13.5H22.5v2.082a2.082,2.082,0,1,0,4.164,0V13.5Zm.833,2.082a1.249,1.249,0,1,1-2.5,0V14.329h2.5Z" transform="translate(-22.5 -6)" fill="#c8bdb8"/>
      <path id="Path_1090" data-name="Path 1090" d="M25.916,28.833h.833a.416.416,0,1,0,0-.833h-.833a.416.416,0,1,0,0,.833Z" transform="translate(-24.251 -18.838)" fill="#c8bdb8"/>
    </g>
  </g>
</svg>
