<?xml version="1.0" encoding="utf-8"?>
<!-- Generator: Adobe Illustrator 19.0.0, SVG Export Plug-In . SVG Version: 6.00 Build 0)  -->
<svg version="1.1" id="Layer_1" xmlns="http://www.w3.org/2000/svg" xmlns:xlink="http://www.w3.org/1999/xlink" x="0px" y="0px"
	 viewBox="0 0 293.9 75.4" style="enable-background:new 0 0 293.9 75.4;" xml:space="preserve">
<style type="text/css">
	.st0{fill:#FFFFFF;}
</style>
<g>
	<path class="st0" d="M35.7,47.2c1.5-2.5,2.7-4.8,4.1-7.1c4.1-6.9,8.2-13.7,12.4-20.6c1.3-2.1,2.5-4.3,3.9-6.4
		c0.2-0.3,0.8-0.6,1.2-0.6c2-0.1,3.9,0,6.1,0c2,11.5,4,23,6,34.7c-2.1,0-4.1,0-6.1,0c-0.4,0-1-0.5-1.1-0.9c-0.4-2.2-0.7-4.4-1-6.6
		c-0.1-0.9-0.4-1.2-1.3-1.2c-3.5,0-7,0-10.5,0.1c-0.6,0-1.3,0.5-1.6,1c-1.5,2.3-2.8,4.7-4.2,7c-0.2,0.4-0.8,0.7-1.3,0.7
		C40.3,47.3,38.2,47.2,35.7,47.2z M58.5,21.1c-0.1,0-0.2-0.1-0.3-0.1c-2.2,3.9-4.4,7.8-6.7,11.8c3.1,0,5.9,0,8.7,0
		C59.6,28.8,59.1,24.9,58.5,21.1z"/>
	<path class="st0" d="M169,47.2c-2.3,0-4.5,0-6.9,0c2.4-11.6,4.8-23,7.2-34.8c5.8,0.2,11.6-0.1,17.4,0.6c4.6,0.5,6.8,3,7.4,8
		c0.5,4.6-0.8,8.7-5,11.2c-1.7,1-3.9,1.7-5.9,1.8c-3.7,0.3-7.5,0.1-11.4,0.1C170.8,38.4,169.9,42.7,169,47.2z M174.9,18.5
		c-0.7,3.2-1.3,6.4-2,9.8c3.2,0,6.3,0.1,9.5,0c1.7-0.1,3.1-1,4-2.5c1.9-3.2,0.7-6.6-2.9-7.2C180.8,18.2,178,18.5,174.9,18.5z"/>
	<path class="st0" d="M215.6,47.1c-4.8,0.3-4.3,0.2-4.3-3.7c0-2,0.1-4.1-0.1-6.1c-0.1-1.1-0.9-1.9-2.1-1.9c-3.2,0-6.5,0-9.7,0
		c-0.8,3.5-1.7,7-2.3,10.5c-0.2,1.2-0.6,1.4-1.6,1.4c-0.6,0-1.3,0-2.2,0c0.4-2,0.8-3.9,1.2-5.8c1.5-6.9,3-13.9,4.4-20.8
		c0.2-1,0.5-1.4,1.6-1.4c3.5,0.1,7.1-0.1,10.6,0c4.9,0.1,7.8,2.3,7.3,8.4c-0.2,2.6-2.4,5.3-5.1,6.4c1.6,1.7,2.1,3.6,1.7,6
		c-0.3,1.8-0.1,3.8,0,5.6C215.1,46.1,215.4,46.5,215.6,47.1z M202.1,22.6c-0.7,3.2-1.3,6.2-1.9,9.1c3.6,0,7.1,0.2,10.6-0.1
		c2.5-0.2,4.2-2.7,4.2-5c0-2.3-1.2-3.9-3-4C208.7,22.5,205.4,22.6,202.1,22.6z"/>
	<path class="st0" d="M230.4,47.5c-3.4,0.2-6.5-0.8-8.7-3.4c-1.2-1.5-2.2-3.4-2.6-5.2c-1-5-0.1-9.9,3-14.1c2.3-3.2,5.3-5.3,9.5-5.9
		c2.9-0.4,5.6-0.1,8.1,1.1c3,1.4,5,4,5.5,7.2c1,6.3-0.3,12.1-5.1,16.7C238.1,45.8,234.6,47.8,230.4,47.5z M241.9,31.3
		c-0.2-3.2-0.7-5.9-3.3-7.9c-2.9-2.3-8.6-1.8-11.6,1c-3.6,3.3-4.7,7.6-4.6,12.2c0.1,2.9,1.3,5.5,4.1,6.8c3,1.4,6,1.4,9-0.4
		C240,40.4,241.4,36,241.9,31.3z"/>
	<path class="st0" d="M94.9,37.2c1.3,0,2.4,0,3.6,0c0,0.9,0,1.7,0.1,2.5c0.5,3,2.7,4.3,5.4,4.7c2.6,0.3,5.2,0,7.3-2
		c2.6-2.5,1.8-5.9-1.6-7.1c-2.5-0.8-5-1.5-7.5-2.5c-2.7-1-4-3.2-4-6.1c0.1-3,1.3-5.4,4.1-6.8c3.9-1.9,7.8-1.9,11.7-0.4
		c2.8,1.1,4.8,3.6,4.2,8.3c-0.9,0-1.8,0.1-2.6-0.1c-0.4-0.1-0.9-0.8-0.9-1.2c0.1-3.1-2.3-4.7-5.4-4.8c-2,0-3.9,0.1-5.7,1.4
		c-2.4,1.8-2.3,5.2,0.4,6.4c2,0.9,4.2,1.4,6.3,2.2c1.4,0.5,2.8,1.1,4,1.9c3.2,2.4,2.5,7.4,0.5,10c-2.1,2.6-4.9,3.6-8.2,3.6
		c-2.6,0-5.2,0-7.5-1.4C95.6,44.1,94.9,41,94.9,37.2z"/>
	<path class="st0" d="M94.8,28c-1.2,0-2.3,0-3.5,0c-0.1-0.7-0.1-1.4-0.2-2c-0.5-2.3-2-3.7-4.3-3.9c-2.6-0.3-5.2-0.4-7.3,1.7
		c-2.2,2.2-1.1,5.5,1.5,6.3c2.3,0.8,4.7,1.6,7,2.4c2.6,0.8,4.4,2.4,4.7,5.2c0.3,3.5-0.6,6.5-3.9,8.2c-4.4,2.3-9.1,2.4-13.5,0.1
		c-3.3-1.8-4.3-4.9-3.8-8.7c1.1,0,2.2,0,3.4,0c-0.3,4.4,1.6,6.6,6,7.1c2.5,0.3,4.8-0.3,6.8-1.8c1.4-1.1,1.7-2.7,1.4-4.4
		c-0.4-1.9-2.1-2.6-3.7-3.1c-1.9-0.7-3.8-1.2-5.7-1.7c-5.4-1.6-6-7.1-3.7-10.9c1.2-1.9,3.1-2.7,5.1-3.3c3.2-0.9,6.3-0.7,9.3,0.6
		C93.8,21.1,95.2,24.1,94.8,28z"/>
	<path class="st0" d="M124.2,19.3c6.4,0,12.5,0,18.9,0c-0.1,1-0.2,1.9-0.5,2.7c-0.1,0.3-0.9,0.6-1.3,0.6c-4.2,0-8.3,0.1-12.5,0
		c-1.2,0-1.9,0.1-2,1.6c-0.3,2.2-0.9,4.4-1.5,6.9c4.8,0,9.6,0,14.4,0c-0.3,1.2-0.5,2.3-0.8,3.4c-4.8,0-9.5,0-14.3,0
		c-0.7,3.1-1.3,6.2-2,9.4c5.2,0,10.3,0,15.6,0c-0.1,1-0.2,1.9-0.4,2.8c-0.1,0.3-0.6,0.6-0.9,0.6c-6.1,0-12.2,0-18.6,0
		C120.2,37.8,122.2,28.6,124.2,19.3z"/>
	<path class="st0" d="M147.4,47.1c1.8-8.2,3.5-16.2,5.3-24.5c-3.1,0-6,0-9.1,0c0.3-1.2,0.5-2.3,0.7-3.4c7.2,0,14.4,0,21.8,0
		c-0.1,1.1-0.3,2.1-0.4,3.2c-3.1,0-6.1,0-9.3,0c-1.8,8.2-3.6,16.4-5.4,24.6C150,47.1,148.8,47.1,147.4,47.1z"/>
	<path class="st0" d="M191.8,57.6c-0.4,1.6-0.9,3.2-1,4.9c-0.1,1.7-1,1.5-2.3,1.4c0.8-3.6,1.6-7.2,2.3-10.7c2.4-0.3,2.4-0.3,2.9,2.7
		c0.2,1.5,0.5,3,1,4.6c1-1.6,2-3.3,3-4.9c0.2-0.4,0.5-0.7,0.7-1.1c1.1-1.6,1.1-1.6,3.3-1.3c-0.8,3.6-1.5,7.1-2.3,10.7
		c-0.7,0-1.3,0-2,0c0.4-1.9,0.8-3.7,1.2-5.5c-0.1,0-0.2-0.1-0.2-0.1c-0.9,1.5-2,2.9-2.8,4.5c-0.5,1.1-1.2,1.3-2.4,1
		c-0.4-2-0.7-4.1-1.1-6.2C192,57.6,191.9,57.6,191.8,57.6z"/>
	<path class="st0" d="M153.3,59.2c-0.2-3.7,2.7-6.7,6.1-6.7c2.7,0.1,4.6,2.5,4.6,4.7c0,3.2-2,6.2-4.9,6.7
		C155.3,64.7,153.1,62.3,153.3,59.2z M161.8,57.5c0.3-2-1.2-3.4-3.4-2.9c-1.9,0.5-3.6,3.1-3,5.1c0.2,0.9,0.9,1.9,1.6,2.3
		c1.1,0.6,2.3,0.2,3.2-0.6C161.4,60.3,161.9,59,161.8,57.5z"/>
	<path class="st0" d="M183,52.7c2.9,0,4.8,1.8,4.7,4.8c-0.2,4.4-2.6,6.6-6.1,6.7c-2.6,0.1-4.7-1.3-4.6-5.4
		C177,56,179.6,52.2,183,52.7z M185.5,57.5c0-2-0.8-3-2.5-3c-2.2,0-4.1,2-4.2,4.8c-0.1,1.5,1.5,3.1,2.9,3
		C183.9,62.3,185.5,60.1,185.5,57.5z"/>
	<path class="st0" d="M202.5,59.4c-0.1-4.2,3.3-7,6.5-6.8c2.5,0.2,3.9,1.4,4.4,4.5c0.4,2.4-1.4,5.5-3.7,6.5c-2.2,0.9-4.5,0.9-6-1.2
		C203.1,61.6,202.9,60.4,202.5,59.4z M211.4,58c0-2.7-1.9-4.1-3.9-3.4c-1.7,0.6-3.3,3.8-2.7,5.5c0.7,2.2,2.7,2.7,4.4,1.6
		C210.7,60.7,211.2,59.3,211.4,58z"/>
	<path class="st0" d="M247,62c-0.2,0.8-0.3,1.4-0.4,1.9c-2.6,0-5.1,0-7.9,0c0.8-3.7,1.5-7.3,2.3-10.9c2.7,0,5.2,0,7.8,0
		c-0.1,0.6-0.3,1.2-0.4,1.8c-1.2,0-2.3,0-3.4,0c-2.2,0-2.2,0-2.8,2.4c1.7,0,3.3,0,5,0c0.4,1.4,0,2-1.4,1.8c-0.5,0-1,0-1.5,0
		c-2.7,0-2.7,0-3.1,2.9C243.1,62,244.9,62,247,62z"/>
	<path class="st0" d="M175.5,56.9c-0.6,0-1.1,0-1.6,0c0.1-0.1,0.2-0.2,0.3-0.4c-0.9-0.7-1.6-1.7-2.6-1.9c-1.7-0.5-2.9,0.7-3.5,2.2
		c-0.4,0.9-0.7,2-0.6,3c0.1,1.3,0.8,2.4,2.5,2.4c1.4,0,2.3-0.6,2.9-1.8c0.1-0.3,0.3-0.6,0.4-1c0.6,0,1.2,0,1.8,0
		c0,2.7-1.7,4.4-4.7,4.8c-1.9,0.3-3.9-0.8-4.5-2.9c-0.8-2.7-0.5-5.4,2.1-7.6c1.4-1.2,4.2-1.5,5.9-0.5
		C175.2,54,175.6,55.2,175.5,56.9z"/>
	<path class="st0" d="M251.4,15.7c-0.9,0.9,0.4,3.3-2.5,3.2c0.6-2.5,1.1-4.8,1.7-7.1c0.1-0.3,1-0.4,1.7-0.6c0.3,1.8,0.6,3.3,0.9,5
		c0.9-1.3,1.8-2.4,2.4-3.6c0.6-1.2,1.4-1.4,2.6-1.1c-0.5,2.4-1,4.9-1.6,7.4c-0.5,0-1.1,0-1.7,0c0.2-0.9,0.3-1.7,0.5-2.9
		c-0.6,1-0.9,1.7-1.5,2.2c-0.3,0.4-0.9,0.6-1.4,0.7c-0.2,0-0.6-0.7-0.7-1.1C251.6,17.1,251.6,16.4,251.4,15.7z"/>
	<path class="st0" d="M229.5,53.2c1.7-0.5,2.2,0.1,2.3,1.6c0.1,1.9,0.5,3.7,1.1,5.6c0.7-1.3,1.5-2.6,2.2-3.9
		c0.4-0.6,0.9-1.2,1.1-1.9c0.5-1.5,1.4-1.9,3-1.5c-1,1.8-2,3.6-3,5.4c-0.8,1.4-1.7,2.8-2.5,4.2c-0.8,1.3-0.8,1.3-2.6,1.2
		C230.7,60.3,230.1,56.8,229.5,53.2z"/>
	<path class="st0" d="M218.6,54.8c-1.1,0-2.1,0-3.1,0c-0.3-1.3,0-1.9,1.3-1.8c2.5,0.1,5,0,7.7,0c-0.2,0.7-0.3,1.2-0.5,1.8
		c-1.1,0-2.2,0-3.4,0c-0.7,3.1-1.4,6.1-2,9.1c-0.7,0-1.3,0-2,0C217.3,60.9,217.9,57.9,218.6,54.8z"/>
	<path class="st0" d="M145.9,62.1c2,0,3.7,0,5.5,0c-0.1,0.7-0.3,1.2-0.4,1.8c-2.5,0-4.9,0-7.6,0c0.8-3.7,1.6-7.2,2.3-10.8
		c0.6,0,1.3,0,2,0C147.2,56.1,146.6,59,145.9,62.1z"/>
	<path class="st0" d="M225.8,63.9c-0.6,0-1.3,0-2,0c0.8-3.7,1.5-7.2,2.3-10.8c0.7,0,1.3,0,2.1,0C227.4,56.7,226.6,60.3,225.8,63.9z"
		/>
	<path class="st0" d="M250,11.3c0,0.6,0,1,0,1.5c-0.3,0-0.6,0.1-0.9,0.1c-1.1-0.1-1.6,0.2-1.8,1.4c-0.2,1.6-0.7,3.1-1,4.6
		c-0.6,0-1.1,0-1.7,0c0.4-2,0.8-3.9,1.3-5.9c-0.8-0.1-1.4-0.1-2.1-0.2c0-1,0.3-1.5,1.4-1.5C246.6,11.4,248.2,11.3,250,11.3z"/>
</g>
</svg>
