<?xml version="1.0" encoding="utf-8"?>
<!-- Generator: Adobe Illustrator 19.0.0, SVG Export Plug-In . SVG Version: 6.00 Build 0)  -->
<svg version="1.1" id="Layer_1" xmlns="http://www.w3.org/2000/svg" xmlns:xlink="http://www.w3.org/1999/xlink" x="0px" y="0px"
	 viewBox="0 0 293.9 75.4" style="enable-background:new 0 0 293.9 75.4;" xml:space="preserve">
<style type="text/css">
	.st0{fill:#00548F;}
	.st1{fill:#69757B;}
	.st2{fill:#00558B;}
</style>
<g id="XMLID_1_">
	<path id="XMLID_426_" class="st0" d="M141.6,13.5c-0.9-0.4-1.7-0.8-2.6-1.1c-2.4-1-4.8-1.7-7.4-2.1c-2.1-0.4-4.2-0.5-6.3-0.3
		c-4.2,0.3-8,1.6-11.1,4.5c-1.9,1.8-3.2,4.1-3.9,6.7c-0.5,1.9-0.6,3.8-0.5,5.8c0.3,3.7,1.5,7.2,3.3,10.4c2.2,4,5.2,7.5,8.7,10.5
		c3.2,2.7,6.8,4.9,10.7,6.5c2.4,1,5,1.7,7.6,2.1c2.6,0.4,5.2,0.5,7.8,0.1c3.7-0.6,7-1.9,9.6-4.6c0.9-0.9,1.7-1.9,2.3-3.1
		c-1-0.2-1.9-0.3-2.8-0.5c-1.2-0.2-2.4-0.4-3.7-0.5c-1-0.1-1.9-0.2-2.9-0.3c-3-0.1-6.1-0.3-9.1-0.3c-2,0-4,0.1-6,0.3
		c-2.1,0.2-4.1,0.4-6.2,0.7c-1.7,0.2-3.3,0.6-4.9,0.9c-0.1,0-0.3,0-0.4,0c-0.9-0.8-1.8-1.6-2.8-2.4c0,0,0-0.1,0-0.1
		c0.4-0.1,0.8-0.3,1.2-0.4c2.4-0.6,4.9-1.3,7.3-1.8c2.3-0.5,4.6-0.8,6.9-1.1c1-0.2,1-0.1,1,0.8c0,0.8,0.1,1.7,0.1,2.5
		c0.3,0,0.5,0,0.8,0c0-1-0.1-2-0.1-2.9c0-0.6-0.1-0.6,0.5-0.7c3.7-0.3,7.4-0.5,11.1-0.4c1,0,2,0.1,3,0.1c-0.1,1.4-0.3,2.8-0.4,4.2
		c0.3,0,0.5,0.1,0.8,0.1c0.1-1,0.2-1.9,0.3-2.8c0-0.4,0.1-0.8,0.1-1.2c0-0.2,0.1-0.3,0.4-0.3c1.6,0.1,3.2,0.3,4.9,0.4
		c1.1,0.1,2.2,0.3,3.3,0.4c1.2,0.2,2.5,0.4,3.7,0.6c1.1,0.2,2.2,0.4,3.2,0.6c0.3,0.1,0.4,0.1,0.2,0.4c-1.1,1.6-2.1,3.2-3.1,4.8
		c-0.2,0.2-0.3,0.2-0.5,0.2c-1-0.3-2.1-0.5-3.1-0.8c-0.9-0.2-1.7-0.3-2.6-0.5c-1.6,4.6-4.7,7.9-9.2,9.7c-1.9,0.8-3.9,1.2-5.9,1.5
		c-1.9,0.2-3.9,0.2-5.8,0c-4.1-0.4-7.9-1.5-11.6-3.2c-4.6-2.1-8.7-4.9-12.4-8.3c-3.4-3.1-6.3-6.7-8.5-10.8c-1.5-2.8-2.7-5.8-3.3-8.9
		c-0.5-2.7-0.7-5.5-0.1-8.3c1-4.9,3.6-8.7,8-11.1c1.8-1,3.8-1.7,5.8-2.1c2-0.4,4-0.5,6-0.4c2.6,0.1,5,0.6,7.5,1.2
		c2.7,0.7,5.3,1.8,7.8,3.1c1.1,0.6,2.2,1.3,3.4,1.9c0.1,0,0.1,0.1,0.2,0.1C141.6,13.5,141.6,13.5,141.6,13.5z"/>
	<path id="XMLID_423_" class="st1" d="M173,27.9c0.5,0.3,0.9,0.6,1.4,1c-0.4,0.7-0.9,1.3-1.3,2c0,0.1-0.3,0-0.4,0
		c-0.5-0.4-1.1-0.8-1.6-1.2c-0.2-0.2-0.3-0.2-0.6-0.1c-1.7,0.5-3.4,0.6-5.1-0.1c-1.4-0.6-2.2-1.8-2.3-3.3c-0.2-2.4,0.4-4.5,2-6.4
		c1.3-1.5,2.9-2.2,4.9-2.3c1,0,1.9,0,2.9,0.4c1.7,0.7,2.4,2.1,2.4,3.8C175.2,23.8,174.6,26,173,27.9z M170.6,25.9
		c0.7-1.2,1-2.4,1-3.7c0-0.6-0.2-1.2-0.8-1.5c-0.8-0.5-2.1-0.3-2.8,0.5c-1.1,1.2-1.4,2.8-1.3,4.4c0.1,1.1,1.1,1.8,2.3,1.4
		c-0.4-0.3-0.8-0.5-1.1-0.7c0.2-0.3,0.4-0.6,0.6-0.9c0.3-0.5,0.4-0.5,0.9-0.3c0.2,0.1,0.4,0.3,0.6,0.4
		C170.1,25.5,170.3,25.7,170.6,25.9z"/>
	<path id="XMLID_419_" class="st1" d="M115,29.6c0.1-0.6,0.2-1.2,0.3-1.8c0.7-3.3,1.3-6.5,2-9.8c0.1-0.3,0.2-0.4,0.5-0.4
		c2.1,0,4.2,0,6.3,0c0.6,0,1.3,0.1,1.8,0.4c1,0.7,1.3,1.9,0.8,3.1c-0.4,0.8-0.9,1.5-1.7,1.9c-0.1,0-0.1,0.1-0.2,0.1
		c0.1,0,0.1,0.1,0.1,0.1c1.2,0.5,1.7,1.4,1.5,2.7c-0.2,1.4-0.9,2.5-2.2,3.1c-0.7,0.3-1.6,0.5-2.4,0.5c-2.2,0.1-4.4,0-6.5,0
		C115.1,29.6,115.1,29.6,115,29.6z M119.2,27.1c0.9,0,1.7,0,2.5-0.1c0.5-0.1,0.8-0.4,1-0.8c0.3-0.7,0-1.2-0.7-1.3
		c-0.7-0.1-1.3-0.1-2-0.1c-0.1,0-0.3,0.1-0.3,0.2C119.5,25.6,119.3,26.3,119.2,27.1z M120.6,20.2c-0.1,0.7-0.3,1.4-0.4,2.2
		c0.8,0,1.5,0,2.2-0.1c0.6-0.1,0.9-0.7,0.9-1.4c0-0.4-0.4-0.7-1-0.7C121.7,20.2,121.1,20.2,120.6,20.2z"/>
	<path id="XMLID_416_" class="st1" d="M151.3,29.6c0.1-0.7,0.3-1.4,0.4-2.1c0.6-3.1,1.3-6.3,1.9-9.4c0.1-0.3,0.2-0.4,0.5-0.4
		c1.9,0,3.8,0,5.7,0c0.5,0,1.1,0.1,1.6,0.2c1.3,0.2,2,1.2,2,2.5c-0.1,1.9-1.3,3.5-3.2,4c0,0-0.1,0-0.1,0.1c0.8,0.3,1.1,1,1.4,1.8
		c0.3,1.1,0.7,2.2,1,3.4c-0.2,0-0.3,0-0.4,0c-1.1,0-2.2,0-3.3,0c-0.3,0-0.4-0.1-0.5-0.4c-0.3-1.1-0.7-2.2-1-3.3
		c-0.2-0.5-0.4-1-1-1.1c-0.3-0.1-0.5,0-0.5,0.3c-0.3,1.4-0.6,2.8-0.8,4.2c0,0.1-0.2,0.2-0.3,0.2C153.6,29.6,152.5,29.6,151.3,29.6z
		 M156.4,22.5c0.6,0,1.2,0,1.7,0c0.6-0.1,1.3-0.2,1.5-1c0.2-0.8,0-1.1-0.6-1.2c-0.7-0.1-1.3-0.1-2-0.1c-0.1,0-0.2,0.1-0.2,0.2
		C156.6,21.1,156.5,21.7,156.4,22.5z"/>
	<path id="XMLID_413_" class="st1" d="M134.4,17.4c0.6,0.1,1.3,0.2,1.9,0.3c1.7,0.4,2.7,1.6,2.9,3.3c0.2,2.5-0.4,4.8-2.1,6.7
		c-1.5,1.6-3.4,2.2-5.6,2.1c-0.6,0-1.2-0.1-1.8-0.3c-1.7-0.5-2.6-1.8-2.7-3.5c-0.1-2.5,0.5-4.8,2.3-6.6
		C130.8,18,132.5,17.5,134.4,17.4z M133.7,20.4c-0.6,0-1.2,0.2-1.6,0.7c-1.1,1.2-1.4,2.8-1.3,4.4c0.1,0.8,0.5,1.3,1.2,1.4
		c1.1,0.2,2.2-0.2,2.8-1.2c0.6-1.1,0.9-2.3,0.9-3.6C135.6,21,134.9,20.4,133.7,20.4z"/>
	<path id="XMLID_412_" class="st1" d="M152.2,17.7c-0.1,0.5-0.2,1-0.3,1.5c-0.4,2.1-0.8,4.2-1.3,6.2c-0.6,2.3-2.4,4.2-5.2,4.4
		c-1,0-2.1,0-3.2-0.2c-1.5-0.2-2.5-1.5-2.6-3c-0.1-1.3,0.3-2.6,0.6-3.9c0.3-1.5,0.6-3,0.9-4.5c0.1-0.3,0.2-0.5,0.6-0.5
		c0.9,0,1.8,0,2.8,0c0.3,0,0.4,0.1,0.3,0.4c-0.4,1.9-0.8,3.8-1.2,5.7c-0.1,0.6-0.3,1.2-0.3,1.9c0,0.8,0.5,1.3,1.2,1.4
		c1.4,0.1,2.3-0.7,2.6-2.1c0.4-1.9,0.8-3.8,1.2-5.8c0.1-0.4,0.1-0.7,0.2-1.1c0-0.1,0.2-0.3,0.3-0.3C149.9,17.7,151,17.7,152.2,17.7z
		"/>
	<path id="XMLID_411_" class="st1" d="M179,17.7c0.5,0,0.9,0,1.4,0c0.3,0,0.4,0.1,0.3,0.4c-0.4,1.9-0.8,3.8-1.2,5.7
		c-0.1,0.5-0.2,0.9-0.3,1.4c-0.2,1.2,0.8,2,2.1,1.7c0.8-0.2,1.3-0.7,1.5-1.5c0.3-1.1,0.5-2.2,0.7-3.3c0.3-1.3,0.6-2.7,0.8-4
		c0.1-0.3,0.2-0.4,0.5-0.4c1,0,1.9,0,2.9,0c0.3,0,0.3,0.1,0.3,0.4c-0.4,2.2-0.9,4.3-1.3,6.5c-0.3,1.4-0.8,2.6-1.8,3.6
		c-1.4,1.4-3.1,1.8-5,1.7c-0.8,0-1.6-0.1-2.4-0.4c-1.2-0.4-1.8-1.3-2-2.5c-0.2-1.1,0.1-2.2,0.3-3.3c0.3-1.7,0.7-3.4,1-5.1
		c0.2-0.8,0.1-0.8,1-0.8C178.4,17.7,178.7,17.7,179,17.7C179,17.7,179,17.7,179,17.7z"/>
	<path id="XMLID_410_" class="st1" d="M192.7,20.3c-0.1,0.6-0.2,1.1-0.4,1.7c0.2,0,0.3,0,0.4,0c1.5,0,3.1,0,4.6,0
		c0.3,0,0.4,0.1,0.3,0.4c-0.1,0.6-0.3,1.2-0.4,1.8c0,0.3-0.2,0.4-0.5,0.4c-1.5,0-3,0-4.5,0c-0.4,0-0.6,0.1-0.7,0.5
		c-0.1,0.5-0.2,1.1-0.3,1.7c2,0,4,0,6,0c-0.1,0.7-0.2,1.4-0.4,2c-0.2,0.8-0.2,0.8-1,0.8c-2.8,0-5.6,0-8.3,0c-0.1,0-0.2,0-0.4,0
		c0.1-0.7,0.3-1.4,0.4-2.1c0.4-2,0.8-3.9,1.2-5.9c0.2-1.2,0.5-2.4,0.7-3.6c0-0.1,0.2-0.3,0.4-0.3c2.9,0,5.9,0,8.8,0
		c0.2,0,0.3,0.1,0.3,0.3c-0.2,0.6-0.3,1.3-0.4,1.9c0,0.3-0.2,0.4-0.5,0.4c-1.6,0-3.3,0-4.9,0C193,20.3,192.9,20.3,192.7,20.3z"/>
	<path id="XMLID_409_" class="st1" d="M145.5,37.2c-0.4,0-0.8,0-1.1,0c-0.3,0-0.4-0.1-0.3-0.4c0.1-0.3,0.2-0.7,0.2-1
		c0-0.3,0.2-0.4,0.5-0.4c1,0,1.9,0,2.9,0c0.3,0,0.4,0.1,0.3,0.4c-0.2,0.9-0.4,1.9-0.6,2.8c0,0.1-0.1,0.2-0.2,0.3
		c-1.5,1-3.2,1.4-5,1.1c-1.4-0.2-2.1-1.1-2.2-2.5c-0.1-1.6,0.4-3.1,1.5-4.3c1-1.1,2.4-1.4,3.8-1.4c0.5,0,1.1,0.1,1.6,0.2
		c0.8,0.2,1.4,1.1,1.4,1.9c0,0.1-0.1,0.2-0.2,0.3c-0.7,0.1-1.3,0.3-2,0.4c-0.1,0-0.2-0.1-0.3-0.1c-0.4-0.8-1.1-1-1.9-0.5
		c-0.5,0.3-0.8,0.6-1,1.1c-0.2,0.5-0.3,1-0.4,1.6c-0.2,1.3,0.6,1.8,1.9,1.6c0.2,0,0.4-0.1,0.6-0.2C145.4,37.9,145.6,37.7,145.5,37.2
		z"/>
	<path id="XMLID_406_" class="st1" d="M139.6,35c-0.2,1.8-0.7,3.6-2.6,4.6c-1.3,0.7-2.7,0.8-4.1,0.3c-1.3-0.4-1.7-1.5-1.7-2.7
		c0-1.3,0.4-2.5,1.2-3.5c1.3-1.7,3.9-2.3,5.8-1.4C139.3,32.8,139.6,33.7,139.6,35z M133.8,36.9c0,0.9,0.5,1.4,1.3,1.3
		c0.6,0,1.1-0.3,1.4-0.8c0.4-0.7,0.6-1.5,0.6-2.2c0-0.9-0.6-1.4-1.4-1.3c-0.5,0.1-1,0.4-1.2,0.8C134,35.4,133.9,36.2,133.8,36.9z"/>
	<path id="XMLID_405_" class="st1" d="M154.3,37.2c0,0.1,0,0.2,0,0.2c0,0.6,0.2,0.9,0.6,1c0.5,0.2,1.1,0,1.4-0.4
		c0.3-0.4,0.2-0.7-0.2-0.9c-0.3-0.2-0.7-0.2-1.1-0.4c-0.6-0.2-1.1-0.4-1.6-0.8c-0.8-0.6-0.8-1.7-0.2-2.7c0.6-0.8,1.4-1.2,2.4-1.4
		c0.8-0.1,1.7-0.1,2.5,0.2c0.9,0.3,1.3,1.1,1.2,2c0,0.1-0.1,0.2-0.2,0.2c-0.6,0.1-1.3,0.1-1.9,0.1c-0.1,0-0.2-0.1-0.2-0.2
		c-0.2-0.7-1-1-1.6-0.5c-0.3,0.3-0.3,0.6,0.1,0.8c0.4,0.2,0.9,0.3,1.3,0.4c0.2,0.1,0.4,0.1,0.5,0.2c2,0.6,1.9,2.3,1.1,3.6
		c-0.7,1-1.7,1.5-2.9,1.5c-0.6,0-1.3,0-1.9-0.1c-1.4-0.2-1.8-1.3-1.7-2.5c0-0.1,0.1-0.2,0.2-0.2C152.8,37.2,153.5,37.2,154.3,37.2z"
		/>
	<path id="XMLID_404_" class="st1" d="M180.8,37.2c0,0.1,0,0.2,0,0.3c0,0.5,0.1,0.8,0.6,1c0.5,0.2,0.9,0.1,1.3-0.3
		c0.4-0.4,0.3-0.9-0.2-1.1c-0.5-0.2-1-0.3-1.5-0.5c-0.7-0.3-1.4-0.6-1.6-1.4c-0.3-1,0.1-1.7,0.8-2.4c0.9-0.8,2-1,3.1-0.9
		c0.3,0,0.6,0.1,0.9,0.1c1.3,0.3,1.7,1,1.5,2.4c-0.7,0-1.5,0.1-2.2,0.1c-0.2-0.9-0.7-1.3-1.4-0.9c-0.2,0.1-0.4,0.3-0.4,0.5
		c0,0.1,0.3,0.3,0.5,0.4c0.6,0.2,1.2,0.3,1.8,0.5c1.8,0.6,1.8,2.1,1.1,3.3c-0.7,1.2-1.7,1.7-3,1.8c-0.7,0-1.3,0-2-0.1
		c-1.4-0.2-1.8-1.4-1.7-2.5c0-0.1,0.2-0.2,0.2-0.2C179.4,37.2,180.1,37.2,180.8,37.2z"/>
	<path id="XMLID_403_" class="st2" d="M95.1,61.8c0.6-0.6,1.1-1.2,1.7-1.7c4.8-4.4,10.2-7.7,16.1-10.4c0.5-0.2,1.1-0.5,1.6-0.7
		c0.1,0,0.3-0.1,0.3,0c0.8,0.6,1.5,1.3,2.3,2C109.2,53.4,101.8,57,95.1,61.8C95.1,61.9,95.1,61.8,95.1,61.8z"/>
	<path id="XMLID_402_" class="st1" d="M178,37.3c-0.5,1.5-2,2.7-3.5,2.8c-0.6,0-1.2,0-1.8-0.1c-1.1-0.1-1.7-0.9-2-1.9
		c-0.4-1.7,0.4-4.5,2.3-5.6c1.3-0.7,2.7-0.8,4.1-0.3c0.8,0.3,1.4,1.3,1.4,2.1c0,0.1-0.1,0.2-0.2,0.3c0,0-0.1,0-0.1,0
		c-0.6,0.1-1.2,0.3-1.8,0.4c0,0-0.1-0.1-0.1-0.1c-0.1-0.5-0.3-0.9-0.8-1c-0.7-0.1-1.3,0.2-1.6,0.7c-0.6,0.8-0.8,1.8-0.7,2.8
		c0.1,0.8,1,1.1,1.8,0.6c0.4-0.2,0.7-0.7,0.9-1.1c0.2-0.2,0.2-0.3,0.5-0.2C176.9,37,177.5,37.2,178,37.3z"/>
	<path id="XMLID_401_" class="st1" d="M162.2,34.1c-0.8,0-1.6,0-2.4,0c0.1-0.7,0.3-1.3,0.4-1.9c0-0.1,0.2-0.2,0.3-0.2
		c2.3,0,4.6,0,6.9,0c0,0,0,0,0.1,0.1c-0.1,0.6-0.3,1.3-0.4,2c-0.8,0-1.6,0-2.4,0c-0.2,0.9-0.4,1.8-0.6,2.7c-0.2,1-0.4,2-0.6,2.9
		c0,0.1-0.2,0.3-0.3,0.3c-0.7,0-1.5,0-2.3,0C161.3,38,161.7,36.1,162.2,34.1z"/>
	<path id="XMLID_400_" class="st1" d="M124.2,39.9c0.1-0.7,0.3-1.4,0.4-2.1c0.4-1.8,0.8-3.6,1.1-5.4c0.1-0.3,0.2-0.4,0.4-0.4
		c0.7,0,1.4,0,2.1,0c-0.4,2-0.8,3.9-1.2,5.9c0.4,0,0.8,0,1.2,0c0.7,0,1.4,0,2.1,0c0.3,0,0.4,0.1,0.3,0.4c-0.1,0.5-0.2,1-0.3,1.4
		c0,0.1-0.2,0.3-0.3,0.3c-1.9,0-3.8,0-5.8,0C124.3,40,124.3,40,124.2,39.9z"/>
	<path id="XMLID_397_" class="st2" d="M122.2,67.9c0.4-0.9,0.8-1.7,1.2-2.6c0.1-0.3,0.3-0.6,0.4-0.9c0.1-0.3,0.3-0.4,0.6-0.4
		c0.9,0,0.8-0.1,0.9,0.8c0.1,0.9,0.2,1.7,0.3,2.6c0,0.2,0.1,0.4,0.1,0.6c0.2-1.3,0.4-2.4,0.6-3.6c0.1-0.4,0.2-0.5,0.5-0.4
		c0.1,0,0.2,0,0.3,0c0.3,0,0.3,0.1,0.3,0.4c-0.2,0.8-0.3,1.7-0.4,2.5c0,0.1,0,0.1,0,0.3c0.4,0,0.8,0,1.2,0c0.3,0,0.3,0.1,0.3,0.4
		c-0.2,0.8-0.2,0.8-0.9,0.8c-0.9,0-1.8,0-2.6,0c-0.1,0-0.2,0-0.3,0c0-0.1,0-0.2,0-0.4c0-0.2-0.1-0.3-0.3-0.3c-0.4,0-0.9-0.1-1,0.5
		c0,0.1-0.2,0.2-0.4,0.2c-0.5,0-1,0-1.5,0c-0.1,0-0.3-0.1-0.3-0.3c-0.2-0.5-0.4-1.1-0.7-1.8c-0.1,0.7-0.3,1.4-0.4,2
		c-0.3,0-0.6,0-1,0c0-0.1,0-0.2,0-0.2c0.2-1.2,0.4-2.4,0.6-3.7c0-0.1,0.2-0.3,0.3-0.3c0.3,0,0.7-0.2,0.9,0.3c0.2,0.5,0.3,1,0.5,1.5
		c0,0.1,0.1,0.1,0.2,0.2c0.1-0.5,0.2-1,0.2-1.5c0-0.5,0.3-0.6,0.7-0.5c0.1,0,0.3,0,0.5,0C122.6,65.3,122.3,66.6,122.2,67.9
		C122.1,67.8,122.2,67.8,122.2,67.9z M123.8,66.6c0.2,0,0.4,0,0.5,0c0-0.4,0-0.7,0-1.1c0,0,0,0-0.1,0
		C124.1,65.8,124,66.2,123.8,66.6z"/>
	<path id="XMLID_396_" class="st1" d="M152.3,32c-0.2,1.1-0.5,2.1-0.7,3.1c-0.3,1.5-0.6,3-0.9,4.4c-0.1,0.3-0.1,0.5-0.5,0.5
		c-0.6,0-1.1,0-1.7,0c-0.3,0-0.4-0.1-0.3-0.3c0.5-2.1,0.9-4.3,1.4-6.4c0.1-0.3,0.1-0.6,0.2-0.8c0-0.3,0.2-0.4,0.5-0.4
		C150.9,32,151.6,32,152.3,32z"/>
	<path id="XMLID_395_" class="st1" d="M170.8,32c-0.2,1.1-0.4,2.1-0.6,3c-0.3,1.5-0.6,3-0.9,4.4c-0.1,0.4-0.2,0.6-0.6,0.5
		c-0.6,0-1.3,0-2,0c0.1-0.5,0.2-0.9,0.3-1.4c0.4-2.1,0.9-4.2,1.4-6.4c0-0.1,0.1-0.2,0.2-0.3C169.2,32,170,32,170.8,32z"/>
	<path id="XMLID_391_" class="st2" d="M135.4,66.4c0.2,0.5,0.3,0.9,0.4,1.3c0.4-0.9,0.8-1.7,1.2-2.5c0.1-0.3,0.2-0.6,0.4-0.9
		c0.1-0.1,0.3-0.2,0.4-0.3c0.2,0,0.3,0,0.5,0c0.3,0,0.4,0.1,0.4,0.4c0.1,1.1,0.3,2.2,0.4,3.3c0,0.2,0,0.3,0,0.5c-0.3,0-0.6,0-0.9,0
		c-0.1,0-0.2-0.2-0.2-0.3c0-0.3-0.1-0.3-0.4-0.3c-0.4,0-0.8-0.1-0.9,0.5c0,0.1-0.2,0.2-0.4,0.2c-0.4,0-0.9,0-1.3,0
		c-0.3,0-0.4-0.1-0.5-0.4c-0.1-0.3-0.2-0.7-0.3-1c0-0.1-0.1-0.2-0.3-0.4c-0.1,0.5-0.2,1-0.2,1.4c0,0.3-0.2,0.4-0.5,0.4
		c-0.2,0-0.4,0-0.6,0c0.1-0.5,0.1-1,0.2-1.5c0.1-0.8,0.3-1.6,0.4-2.4c0-0.3,0.2-0.4,0.5-0.4c0.6,0,1.2,0,1.8,0.1
		c0.5,0.1,0.7,0.4,0.7,0.9C136.2,65.6,136,66.1,135.4,66.4z M134.2,65.7c0.4,0,0.7,0.1,0.8-0.3c0.1-0.2,0-0.3-0.3-0.4
		C134.2,64.8,134.3,65.3,134.2,65.7z M138,65.5c0,0-0.1,0-0.1,0c-0.1,0.3-0.3,0.7-0.4,1c0.2,0,0.4,0,0.6,0
		C138,66.2,138,65.9,138,65.5z"/>
	<path id="XMLID_390_" class="st2" d="M110.9,67.1c-0.5,1-1,1.3-2,1.2c-0.7-0.1-1.1-0.5-1.1-1.2c0-0.1,0.2-0.3,0.3-0.3
		c0.1-0.1,0.3,0,0.5,0c0.2,0,0.3,0.1,0.3,0.3c0,0.2,0.3,0.4,0.3,0.4c0.2,0,0.4-0.2,0.4-0.4c0-0.1-0.2-0.3-0.3-0.4
		c-0.1-0.1-0.2-0.1-0.3-0.1c-0.7-0.3-0.9-0.6-0.8-1.3c0.1-0.6,0.6-1.2,1.2-1.2c0.3,0,0.5,0,0.8,0c0.5,0.1,0.9,0.5,0.8,1
		c0,0.1-0.1,0.2-0.2,0.2c-0.2,0.1-0.4,0.1-0.6,0.1c-0.1,0-0.2-0.2-0.3-0.2c-0.1-0.1-0.2-0.2-0.4-0.2c-0.1,0-0.2,0.2-0.3,0.2
		c0.1,0.1,0.2,0.2,0.3,0.3c0.2,0.1,0.5,0.2,0.7,0.3c0.5,0.2,0.6,0.6,0.6,1.1c0.2,0,0.4,0,0.6,0c0.3,0,0.5,0,0.5,0.3
		c0,0.1,0.3,0.3,0.4,0.3c0.2,0,0.4-0.2,0.4-0.3c0-0.1-0.1-0.3-0.3-0.4c-0.1-0.1-0.3-0.1-0.4-0.2c-0.6-0.3-0.9-0.6-0.8-1.2
		c0.1-0.6,0.6-1.2,1.1-1.3c0.3,0,0.6,0,0.9,0c0.5,0,0.9,0.6,0.8,1c0,0.1-0.2,0.2-0.3,0.3c-0.1,0.1-0.3,0-0.5,0c-0.2,0-0.3,0-0.4-0.2
		c-0.1-0.3-0.3-0.3-0.5-0.2c-0.2,0.1-0.2,0.3,0,0.4c0.1,0.1,0.3,0.1,0.4,0.2c1.1,0.3,1.3,1.1,0.8,2.1c-0.4,0.7-1.4,1-2.2,0.7
		C111,68,110.9,67.6,110.9,67.1z"/>
	<path id="XMLID_387_" class="st2" d="M155.9,64.8c0.2-0.7,0.2-0.7,1-0.7c0.7,0,1.3,0,2,0c0.2,0,0.4,0,0.3,0.3
		c-0.1,0.2-0.1,0.5-0.1,0.8c-0.3,0-0.5,0-0.7,0c-0.1,0-0.3,0.1-0.3,0.2c-0.1,0.8-0.3,1.6-0.4,2.4c0,0.4-0.2,0.6-0.6,0.5
		c-0.2,0-0.4,0-0.6,0c0.2-1.1,0.3-2.1,0.5-3.1c-0.2,0-0.4,0-0.5,0c-0.3,0-0.5,0-0.6,0.4c-0.1,0.3-0.4,0.6-0.7,0.9
		c0.2,0.5,0.3,1.1,0.5,1.8c-0.4,0-0.8,0-1.1,0c-0.1,0-0.2-0.2-0.2-0.3c-0.1-0.3-0.2-0.7-0.3-1c0-0.2-0.2-0.3-0.2-0.4
		c0,0-0.1,0-0.1,0c-0.1,0.4-0.1,0.9-0.2,1.3c0,0.1-0.1,0.3-0.2,0.3c-0.3,0-0.6,0-0.8,0c0,0,0-0.2,0-0.3c0.2-1.2,0.4-2.4,0.6-3.5
		c0-0.3,0.2-0.4,0.4-0.4c0.5,0,1,0,1.5,0C155.3,64,155.8,64.1,155.9,64.8z M153.9,65.7c0.6,0,0.9-0.1,0.9-0.4c0-0.3-0.3-0.3-0.5-0.3
		C153.7,65,154,65.4,153.9,65.7z"/>
	<path id="XMLID_386_" class="st2" d="M197.4,66c0.1-0.5,0.2-1.1,0.3-1.6c0-0.1,0.1-0.4,0.2-0.4c0.3,0,0.5,0,0.8,0
		c0,0,0.1,0.2,0.1,0.3c-0.2,1.2-0.4,2.5-0.6,3.7c0,0.1-0.2,0.2-0.3,0.2c-0.1,0-0.3,0-0.5,0c-0.2,0-0.3-0.1-0.4-0.3
		c-0.2-0.6-0.4-1.1-0.6-1.7c-0.1,0.5-0.2,0.9-0.3,1.4c-0.1,0.7-0.3,0.8-1.1,0.6c0.1-0.8,0.3-1.6,0.4-2.4c0.1-0.4,0.1-0.8,0.2-1.3
		c0-0.2,0-0.5,0.4-0.5c0.3,0,0.7-0.2,0.9,0.3C196.9,64.9,197.1,65.5,197.4,66C197.4,66,197.4,66,197.4,66z"/>
	<path id="XMLID_385_" class="st2" d="M171.8,66c0.1-0.6,0.2-1.1,0.3-1.7c0.1-0.3,0.4-0.4,0.9-0.3c0.3,0.1,0.2,0.3,0.1,0.5
		c-0.2,1.1-0.4,2.2-0.6,3.3c0,0.1-0.1,0.3-0.1,0.5c-0.2,0-0.5,0-0.7,0c-0.2,0-0.4-0.1-0.4-0.3c-0.2-0.6-0.4-1.1-0.6-1.8
		c-0.1,0.6-0.2,1.2-0.3,1.7c0,0.3-0.1,0.4-0.4,0.3c-0.1,0-0.3,0-0.4,0c-0.2,0-0.3-0.1-0.3-0.3c0.2-1.1,0.4-2.3,0.6-3.4
		c0-0.2,0-0.5,0.4-0.5c0.4,0,0.7-0.1,0.9,0.4C171.3,65,171.6,65.5,171.8,66C171.8,66,171.8,66,171.8,66z"/>
	<path id="XMLID_384_" class="st2" d="M141.8,66c0.1-0.5,0.2-1,0.3-1.6c0-0.1,0.1-0.4,0.2-0.4c0.3,0,0.5,0,0.8,0.1c0,0,0,0.2,0,0.3
		c-0.2,1.1-0.4,2.2-0.6,3.3c0,0.2,0,0.5-0.4,0.6c-0.7,0-0.7,0-0.9-0.5c-0.2-0.5-0.4-1-0.6-1.6c-0.1,0.6-0.2,1.1-0.3,1.6
		c0,0.4-0.2,0.5-0.5,0.4c-0.2,0-0.4,0-0.6,0c0.2-1.3,0.4-2.5,0.6-3.8c0-0.2,0.1-0.5,0.4-0.4c0.3,0.1,0.7-0.2,0.8,0.4
		C141.3,64.9,141.5,65.4,141.8,66C141.7,66,141.7,66,141.8,66z"/>
	<path id="XMLID_381_" class="st2" d="M98.1,66.4c0.2,0.6,0.3,1.1,0.5,1.8c-0.4,0-0.7,0-1.1,0c-0.1,0-0.2-0.2-0.3-0.3
		c-0.1-0.3-0.1-0.6-0.2-0.9c-0.1-0.2-0.2-0.4-0.2-0.5c0,0-0.1,0-0.1,0c-0.1,0.3-0.2,0.7-0.2,1c-0.1,0.7-0.1,0.7-0.8,0.7
		c-0.1,0-0.2,0-0.4,0c0.1-0.4,0.1-0.8,0.2-1.2c0.2-0.9,0.3-1.8,0.5-2.7c0-0.1,0.2-0.3,0.3-0.3c0.6,0,1.1,0,1.7,0
		c0.8,0.1,1.1,0.6,0.8,1.4C98.6,65.8,98.3,66.1,98.1,66.4z M96.8,65.7c0.6,0.1,0.8,0,0.9-0.4c0-0.3-0.2-0.3-0.4-0.3
		C96.8,64.9,96.9,65.3,96.8,65.7z"/>
	<path id="XMLID_378_" class="st2" d="M149,66.7c0-0.7,0.2-1.3,0.6-1.9c0.4-0.6,0.9-0.8,1.6-0.8c0.8,0,1.3,0.5,1.4,1.3
		c0.1,0.9-0.1,1.8-0.8,2.5c-0.3,0.3-0.7,0.5-1.1,0.6C149.6,68.5,149,67.9,149,66.7z M151.5,65.7c-0.2-0.2-0.2-0.5-0.4-0.6
		c-0.3-0.1-0.6,0-0.7,0.3c-0.2,0.4-0.3,0.9-0.3,1.4c0,0.2,0.2,0.5,0.4,0.5c0.2,0,0.5-0.1,0.6-0.3C151.3,66.6,151.4,66.2,151.5,65.7z
		"/>
	<path id="XMLID_375_" class="st2" d="M191.5,66.8c0-0.9,0.2-1.6,0.7-2.2c0.5-0.6,1.3-0.8,2-0.6c0.6,0.2,0.9,0.8,0.8,1.6
		c0,0.7-0.2,1.4-0.7,2c-0.5,0.7-1.5,0.9-2.3,0.5C191.6,67.8,191.5,67.3,191.5,66.8z M192.6,66.3c0,0.5-0.1,0.9,0.4,1
		c0.4,0.1,0.7-0.2,0.8-0.6c0.1-0.3,0.2-0.7,0.2-1c0-0.2-0.1-0.5-0.3-0.6c-0.3-0.1-0.6,0-0.7,0.3C192.8,65.7,192.7,66.1,192.6,66.3z"
		/>
	<path id="XMLID_372_" class="st2" d="M177.3,66.5c0-0.6,0.2-1.4,0.9-2c0.5-0.5,1.4-0.6,1.9-0.4c0.6,0.3,0.8,0.9,0.8,1.5
		c0,0.7-0.2,1.4-0.7,2c-0.5,0.6-1.1,0.8-1.9,0.6C177.6,68.1,177.3,67.6,177.3,66.5z M179.8,65.8c-0.1-0.3,0-0.7-0.4-0.7
		c-0.4-0.1-0.6,0.2-0.8,0.5c-0.1,0.3-0.1,0.7-0.2,1c0,0.3,0,0.6,0.4,0.6c0.3,0.1,0.6-0.1,0.7-0.4C179.6,66.5,179.7,66.1,179.8,65.8z
		"/>
	<path id="XMLID_369_" class="st2" d="M119.1,65.4c-0.1,0.9-0.2,1.6-0.6,2.2c-0.4,0.6-1.2,0.9-1.9,0.7c-0.5-0.1-0.8-0.4-0.9-0.9
		c-0.3-1,0.1-2.4,0.9-3.1c0.6-0.5,2-0.6,2.4,0.3C119,64.9,119.1,65.2,119.1,65.4z M118,65.8c-0.1-0.3,0-0.7-0.4-0.8
		c-0.4-0.1-0.7,0.2-0.8,0.5c-0.1,0.3-0.1,0.7-0.2,1.1c0,0.3,0,0.5,0.3,0.6c0.3,0.1,0.6-0.1,0.7-0.4C117.8,66.5,117.9,66.2,118,65.8z
		"/>
	<path id="XMLID_366_" class="st2" d="M100.2,68.3c-1,0-1.5-0.4-1.5-1.2c-0.1-1.1,0.1-2.1,1.1-2.8c0.5-0.4,1.2-0.4,1.8-0.1
		c0.6,0.3,0.7,0.9,0.6,1.5c0,0.8-0.2,1.6-0.9,2.2C101,68.2,100.6,68.3,100.2,68.3z M99.7,66.5c0,0.3,0.1,0.6,0.5,0.7
		c0.4,0.1,0.6-0.2,0.7-0.5c0.1-0.3,0.2-0.7,0.2-1c0-0.3,0-0.6-0.3-0.7c-0.3-0.1-0.6,0.1-0.7,0.4C99.9,65.8,99.8,66.2,99.7,66.5z"/>
	<path id="XMLID_363_" class="st2" d="M169.5,65.6c0,0.6-0.1,1.3-0.5,1.8c-0.4,0.5-0.8,0.9-1.5,0.9c-0.9,0-1.4-0.4-1.5-1.2
		c-0.1-1,0.3-2.4,1.1-2.9c0.6-0.3,1.2-0.4,1.7-0.1C169.4,64.4,169.5,65,169.5,65.6z M167,66.5c0.1,0.3,0.1,0.7,0.5,0.7
		c0.4,0.1,0.6-0.2,0.7-0.5c0.1-0.4,0.2-0.8,0.2-1.2c0-0.2-0.2-0.5-0.3-0.5c-0.2,0-0.5,0.1-0.6,0.3C167.2,65.7,167.1,66.1,167,66.5z"
		/>
	<path id="XMLID_362_" class="st2" d="M106.4,65c0,0.2-0.1,0.3-0.1,0.5c0.5,0,1,0,1.6,0c0,0.3-0.1,0.6-0.1,0.8
		c0,0.1-0.2,0.1-0.3,0.1c-0.2,0-0.5,0-0.7,0c-0.6,0-0.6,0-0.7,0.7c0.5,0,0.9,0,1.4,0c0.3,0,0.4,0.1,0.3,0.4c0,0.2,0,0.3-0.1,0.5
		c0,0.1-0.1,0.2-0.2,0.2c-0.9,0-1.7,0-2.6,0c0.1-0.6,0.2-1.2,0.3-1.7c0.1-0.7,0.2-1.4,0.4-2.2c0-0.3,0.1-0.4,0.4-0.4
		c0.7,0,1.3,0,2,0c0.3,0,0.4,0.1,0.3,0.4c-0.1,0.5-0.2,0.7-0.7,0.6C107.1,65,106.8,65,106.4,65z"/>
	<path id="XMLID_361_" class="st2" d="M184.5,64c0.6,0,0.6,0,0.5,0.5c-0.1,0.7-0.2,1.4-0.3,2c-0.1,0.3-0.1,0.6,0.3,0.7
		c0.3,0.1,0.6-0.2,0.6-0.5c0.1-0.7,0.3-1.5,0.4-2.2c0.1-0.4,0.7-0.7,1-0.4c0.1,0,0.1,0.2,0.1,0.3c-0.1,0.8-0.2,1.6-0.4,2.4
		c-0.2,1.2-1.2,1.8-2.4,1.5c-0.5-0.1-0.8-0.5-0.8-1c0.1-0.8,0.2-1.6,0.3-2.4c0-0.1,0-0.2,0-0.3C184,64,184,64,184.5,64z"/>
	<path id="XMLID_360_" class="st2" d="M143.7,66.8c0.2,0.3,0.3,0.5,0.5,0.6c0.1,0.1,0.3,0,0.4-0.1c0.2-0.2,0.2-0.4-0.1-0.6
		c-0.2-0.1-0.3-0.1-0.5-0.2c-0.7-0.3-0.9-0.6-0.8-1.3c0.1-0.6,0.6-1.1,1.2-1.2c0.3,0,0.5,0,0.8,0c0.5,0.1,0.9,0.6,0.8,1.1
		c0,0.1-0.1,0.2-0.2,0.2c-0.2,0-0.4,0.1-0.6,0.1c-0.1,0-0.2-0.1-0.3-0.2c-0.1-0.3-0.3-0.3-0.5-0.2c-0.2,0.1-0.2,0.3,0,0.4
		c0.1,0.1,0.2,0.1,0.4,0.1c0.5,0.1,1,0.4,1.1,1c0.1,0.6-0.2,1.2-0.7,1.5c-0.5,0.4-1.2,0.4-1.8,0.2c-0.4-0.1-0.7-0.8-0.6-1.2
		c0-0.1,0.2-0.2,0.3-0.2C143.3,66.7,143.6,66.8,143.7,66.8z"/>
	<path id="XMLID_359_" class="st2" d="M199.8,68.4c-0.8-0.1-1.2-0.4-1.3-1.1c-0.1-0.4,0.1-0.5,0.4-0.5c0.3,0,0.7-0.1,0.7,0.4
		c0,0.1,0.3,0.2,0.3,0.2c0.2-0.1,0.3-0.2,0.4-0.4c0-0.1-0.1-0.3-0.2-0.4c-0.1-0.1-0.3-0.1-0.5-0.2c-0.6-0.3-0.9-0.6-0.8-1.1
		c0.1-0.6,0.5-1.2,1.1-1.3c0.3,0,0.7,0,1,0c0.5,0.1,0.8,0.6,0.7,1.1c0,0.1-0.2,0.1-0.2,0.2c-0.2,0-0.3,0.1-0.5,0
		c-0.1,0-0.2-0.1-0.3-0.2c-0.1-0.1-0.3-0.2-0.4-0.3c0,0-0.2,0.1-0.2,0.2c0,0.1,0.1,0.2,0.1,0.2c0.1,0.1,0.2,0.1,0.4,0.1
		c0.5,0.1,1,0.4,1.1,1c0.1,0.7-0.2,1.2-0.8,1.6C200.5,68.2,200.1,68.3,199.8,68.4z"/>
	<path id="XMLID_358_" class="st2" d="M176.4,65.3c-0.1-0.2-0.1-0.3-0.2-0.4c-0.1-0.1-0.3-0.1-0.4-0.1c-0.1,0-0.2,0.2-0.2,0.2
		c0,0.1,0.2,0.2,0.3,0.2c0.1,0,0.1,0,0.2,0.1c0.9,0.3,1.2,0.7,1.1,1.4c-0.1,0.8-0.8,1.5-1.6,1.5c-1,0.1-1.4-0.3-1.5-1.1
		c0-0.3,0.1-0.5,0.4-0.5c0.3,0,0.7-0.1,0.7,0.4c0,0.1,0.3,0.2,0.4,0.2c0.2,0,0.3-0.2,0.4-0.3c0-0.1-0.1-0.3-0.2-0.4
		c-0.1-0.1-0.3-0.1-0.5-0.2c-0.6-0.2-0.9-0.7-0.8-1.2c0.1-0.6,0.6-1.2,1.1-1.3c0.3,0,0.6,0,0.9,0c0.5,0.1,0.9,0.5,0.8,1
		c0,0.1-0.2,0.2-0.3,0.2C176.9,65.3,176.6,65.3,176.4,65.3z"/>
	<path id="XMLID_355_" class="st2" d="M160.3,67.5c-0.3,0-0.5,0-0.8,0c-0.1,0-0.2,0.1-0.3,0.2c-0.1,0.2-0.2,0.4-0.3,0.5
		c-0.3,0.1-0.6,0-1,0c0.1-0.3,0.2-0.5,0.3-0.7c0.5-1.1,1-2.1,1.5-3.2c0.1-0.1,0.2-0.2,0.4-0.3c0.1,0,0.3,0,0.5,0
		c0.4,0,0.5,0.1,0.5,0.5c0.1,1.1,0.2,2.2,0.4,3.3c0,0.3,0,0.5-0.4,0.4c0,0,0,0,0,0C160.4,68.2,160.4,68.2,160.3,67.5z M160.3,66.5
		c0-0.4,0-0.7-0.1-1c0,0,0,0-0.1,0c-0.1,0.3-0.3,0.7-0.4,1C160,66.5,160.1,66.5,160.3,66.5z"/>
	<path id="XMLID_352_" class="st2" d="M147.1,66.7c-0.1,0.4-0.2,0.8-0.2,1.1c0,0.3-0.1,0.4-0.5,0.4c-0.2,0-0.4,0-0.7,0
		c0.1-0.7,0.2-1.3,0.3-2c0.1-0.6,0.2-1.3,0.3-1.9c0-0.3,0.1-0.4,0.4-0.4c0.5,0,0.9,0,1.4,0c0.7,0,1.1,0.5,0.9,1.2
		C149,66.3,148.6,66.6,147.1,66.7z M147.2,65.7c0.4,0.1,0.8,0,0.8-0.3c0-0.1-0.1-0.4-0.2-0.4C147.1,64.9,147.5,65.5,147.2,65.7z"/>
	<path id="XMLID_349_" class="st2" d="M92.3,68.2c0.1-0.8,0.3-1.5,0.4-2.3c0.1-0.5,0.2-1.1,0.3-1.6c0-0.2,0.1-0.3,0.4-0.3
		c0.5,0,0.9,0,1.4,0c0.7,0,1.1,0.5,1,1.2c-0.2,1.1-0.6,1.4-1.7,1.5c-0.1,0-0.3,0.1-0.3,0.3c-0.1,0.3-0.1,0.6-0.2,1
		c0,0.3-0.2,0.4-0.4,0.3C92.7,68.2,92.5,68.2,92.3,68.2z M93.7,65.8c0.5,0.1,0.7,0,0.8-0.4c0-0.1-0.2-0.4-0.3-0.4
		C93.6,64.9,94,65.5,93.7,65.8z"/>
	<path id="XMLID_348_" class="st2" d="M103.7,65c0,0.2-0.1,0.4-0.1,0.6c0.4,0,0.8,0,1.2,0c0,0.2,0,0.4,0,0.5c0,0.3-0.1,0.4-0.5,0.4
		c-0.3,0-0.6,0-0.9,0c-0.1,0.4-0.2,0.9-0.2,1.3c0,0.3-0.2,0.4-0.4,0.4c-0.1,0-0.3,0-0.4,0c-0.2,0-0.3-0.1-0.3-0.3
		c0.2-1.1,0.4-2.3,0.6-3.5c0.1-0.3,0.2-0.5,0.6-0.5c0.6,0,1.1,0,1.7,0c0.3,0,0.4,0.1,0.4,0.4c-0.1,0.5-0.2,0.7-0.7,0.6
		C104.2,65,104,65,103.7,65z"/>
	<path id="XMLID_347_" class="st2" d="M190.4,64.1c0,0.3-0.1,0.6-0.1,0.9c0,0.1-0.2,0.1-0.3,0.1c-0.7,0-0.7,0-0.8,0.8
		c-0.1,0.7-0.2,1.3-0.3,2c0,0.3-0.2,0.4-0.4,0.3c-0.1,0-0.3,0-0.4,0c-0.3,0-0.3-0.1-0.3-0.3c0.2-0.9,0.3-1.8,0.5-2.8
		c-0.3,0-0.6,0-0.9,0c0-0.1-0.1-0.1-0.1-0.1c0.1-1,0.1-1,1.1-1c0.7,0,1.3,0,2,0C190.3,64,190.3,64.1,190.4,64.1z"/>
	<path id="XMLID_346_" class="st2" d="M131,65.1c-0.4,0-0.7,0-0.9,0c0-0.1-0.1-0.1-0.1-0.1c0.1-1,0.1-1,1.1-1c0.6,0,1.2,0,1.8,0
		c0.3,0,0.4,0.1,0.3,0.4c-0.1,0.2-0.1,0.5-0.1,0.7c-0.1,0-0.1,0-0.2,0c-0.9,0-0.9,0-1,0.9c-0.1,0.6-0.2,1.3-0.3,1.9
		c-0.1,0.6-0.6,0.3-0.9,0.3c-0.4,0.1-0.2-0.3-0.2-0.4C130.7,66.9,130.8,66.1,131,65.1z"/>
	<path id="XMLID_345_" class="st2" d="M162,68.2c0.2-1.1,0.3-2,0.5-3.1c-0.3,0-0.6,0-1,0c0.1-0.3,0.1-0.6,0.2-0.9
		c0-0.1,0.2-0.2,0.3-0.2c0.9,0,1.7,0,2.6,0c0.1,0,0.2,0.2,0.2,0.3c0,0.3-0.1,0.5-0.1,0.8c-0.2,0-0.4,0-0.6,0c-0.3,0-0.4,0.1-0.5,0.4
		c-0.1,0.8-0.2,1.6-0.4,2.4c0,0.1-0.2,0.3-0.4,0.3C162.6,68.3,162.3,68.2,162,68.2z"/>
	<path id="XMLID_344_" class="st2" d="M181.9,67.1c0.4,0,0.8,0,1.2,0c0.3,0,0.4,0.1,0.3,0.4c0,0.1,0,0.2,0,0.3
		c0,0.3-0.1,0.5-0.5,0.5c-0.6,0-1.2,0-1.8,0c-0.3,0-0.4-0.1-0.3-0.4c0.2-1.1,0.4-2.2,0.6-3.4c0-0.2,0.1-0.4,0.2-0.4
		c0.3-0.1,0.6,0,0.8,0c0,0,0,0.2,0,0.3c-0.1,0.8-0.3,1.6-0.4,2.4C181.9,66.9,181.9,67,181.9,67.1z"/>
	<path id="XMLID_343_" class="st2" d="M164.9,68.2c-0.6,0-0.6,0-0.5-0.5c0.2-1.1,0.4-2.1,0.5-3.2c0.1-0.4,0.2-0.5,0.6-0.5
		c0.6,0,0.6,0,0.5,0.6c-0.2,1-0.4,2-0.5,3C165.4,68.1,165.3,68.4,164.9,68.2z"/>
	<path id="XMLID_342_" class="st2" d="M191,68.2c-0.1,0-0.2,0-0.3,0c-0.2,0-0.5,0-0.8,0c0-0.3,0.1-0.5,0.1-0.7
		c0.2-1.1,0.3-2.1,0.5-3.1c0-0.1,0.1-0.3,0.2-0.3c0.3,0,0.6,0,0.8,0.1c0,0,0.1,0.1,0,0.2C191.4,65.6,191.2,66.9,191,68.2z"/>
	<path id="XMLID_341_" class="st2" d="M113.9,68.2c0.1-0.7,0.2-1.3,0.3-1.9c0.1-0.6,0.2-1.2,0.3-1.8c0-0.1,0.1-0.4,0.2-0.4
		c0.3,0,0.6,0,0.8,0c0,0,0,0.2,0,0.3c-0.2,1-0.3,2-0.5,3.1C115,68.3,114.9,68.4,113.9,68.2z"/>
</g>
</svg>
