<?xml version="1.0" encoding="utf-8"?>
<!-- Generator: Adobe Illustrator 19.0.0, SVG Export Plug-In . SVG Version: 6.00 Build 0)  -->
<svg version="1.1" id="Layer_1" xmlns="http://www.w3.org/2000/svg" xmlns:xlink="http://www.w3.org/1999/xlink" x="0px" y="0px"
	 viewBox="142 -32.4 293.9 75.4" style="enable-background:new 142 -32.4 293.9 75.4;" xml:space="preserve">
<style type="text/css">
	.st0{fill:#807D6E;}
	.st1{fill:#FFFFFF;}
	.st2{fill:#FAD702;}
</style>
<g>
	<g>
		<path class="st0" d="M206,10.9l13.2,0.8c-0.6,5.8-2.8,10.2-6.4,13.3c-3.6,3.1-8.1,4.6-13.4,4.6c-6.4,0-11.5-2.1-15.5-6.3
			C179.9,19,178,13.1,178,5.7c0-7.4,1.9-13.3,5.6-17.9c3.7-4.5,8.9-6.8,15.6-6.8c6.2,0,11,1.7,14.4,5.2c3.3,3.4,5.2,8,5.7,13.7
			l-13.5,0.7c0-3.1-0.6-5.4-1.8-6.8s-2.6-2.1-4.3-2.1c-4.5,0-6.8,4.6-6.8,13.7c0,5.1,0.6,8.6,1.8,10.4c1.2,1.8,2.8,2.8,5,2.8
			C203.4,18.7,205.5,16.1,206,10.9z"/>
		<path class="st1" d="M199.3,30c-6.5,0-11.8-2.2-15.8-6.5c-4-4.3-6-10.3-6-17.8c0-7.4,1.9-13.6,5.7-18.1c3.8-4.6,9.2-7,15.9-7
			c6.3,0,11.3,1.8,14.7,5.3c3.4,3.5,5.4,8.2,5.8,14l0,0.5l-14.4,0.8V0.7c0-3-0.6-5.2-1.7-6.5c-1.1-1.3-2.4-1.9-3.9-1.9
			c-4.2,0-6.4,4.5-6.4,13.3c0,5,0.6,8.4,1.7,10.2c1.1,1.7,2.6,2.5,4.6,2.5c3.6,0,5.5-2.4,6-7.4l0-0.4l14.1,0.8l0,0.5
			c-0.6,5.9-2.8,10.4-6.6,13.6C209.4,28.4,204.7,30,199.3,30z M199.1-18.5c-6.5,0-11.6,2.2-15.2,6.6c-3.6,4.4-5.5,10.3-5.5,17.6
			c0,7.3,1.9,13.1,5.8,17.2c3.8,4.1,8.9,6.2,15.1,6.2c5.2,0,9.6-1.5,13.1-4.5c3.4-2.9,5.5-7.1,6.2-12.5l-12.3-0.7
			c-0.6,5.2-2.9,7.8-6.8,7.8c-2.3,0-4.1-1-5.4-3c-1.2-1.9-1.8-5.4-1.8-10.7c0-9.4,2.4-14.2,7.3-14.2c1.8,0,3.3,0.8,4.6,2.3
			c1.2,1.4,1.9,3.6,1.9,6.6l12.5-0.7c-0.5-5.4-2.3-9.7-5.5-13C209.9-16.8,205.2-18.5,199.1-18.5z"/>
	</g>
	<g>
		<path class="st0" d="M259.8,17.6v11.2h-35.4v-47h35.4v10.9h-21.2v6.8h17.2V9.9h-17.2v7.7H259.8z"/>
		<path class="st1" d="M260.3,29.3H224v-47.9h36.3v11.8h-21.2V-1h17.2v11.3h-17.2v6.8h21.2V29.3z M224.9,28.4h34.5V18h-21.2V9.4
			h17.2v-9.5h-17.2v-7.7h21.2v-9.9h-34.5V28.4z"/>
	</g>
	<g>
		<path class="st0" d="M265.6,28.8v-47h18.2c7.9,0,13.8,2.3,17.7,7c3.9,4.7,5.9,10.1,5.9,16.3c0,7-2.1,12.7-6.3,17.1
			c-4.2,4.4-9.7,6.6-16.4,6.6H265.6z M280,18h3.8c2.4,0,4.4-1.2,6-3.5c1.6-2.3,2.5-5.5,2.5-9.5c0-3.4-0.7-6.4-2.2-8.9
			c-1.5-2.5-3.6-3.7-6.3-3.7H280V18z"/>
		<path class="st1" d="M284.6,29.3h-19.5v-47.9h18.6c8,0,14.1,2.4,18.1,7.2c4,4.7,6,10.3,6,16.6c0,7.1-2.2,13-6.5,17.5
			C297.1,27,291.5,29.3,284.6,29.3z M266,28.4h18.6c6.6,0,12-2.2,16.1-6.5c4.1-4.3,6.2-10,6.2-16.8c0-6-1.9-11.4-5.8-16
			c-3.8-4.6-9.7-6.9-17.4-6.9H266V28.4z M283.7,18.5h-4.2V-8h4.2c2.9,0,5.2,1.3,6.7,3.9c1.5,2.5,2.3,5.6,2.3,9.1
			c0,4.1-0.9,7.3-2.5,9.7C288.4,17.2,286.3,18.5,283.7,18.5z M280.4,17.5h3.3c2.3,0,4.1-1.1,5.7-3.3c1.6-2.2,2.4-5.3,2.4-9.2
			c0-3.3-0.7-6.2-2.1-8.6c-1.4-2.4-3.3-3.5-5.9-3.5h-3.3V17.5z"/>
	</g>
	<path class="st1" d="M338.2-18.4l-0.2-0.5h-16.3l-14.9,48.1l-0.1,0.4H320l2.8-9.3h11.5l2.7,9.3h16.3L338.2-18.4z M331.4,8.6h-5.7
		l2.9-10.2L331.4,8.6z"/>
	<path class="st2" d="M337.9,28.8l-2.7-9.3h-12.6l-2.8,9.3h-11.7l14.5-47h15.3l14.8,47H337.9z M325.1,9.3h7.6l-3.8-13.6L325.1,9.3z"
		/>
	<g>
		<path class="st0" d="M399.7,28.8h-16l-6.9-18h-4.6v18h-14.4v-47h24.6c5.4,0,9.6,1.3,12.6,3.8c3,2.5,4.5,5.9,4.5,10
			c0,2.7-0.6,5.1-1.7,7.2c-1.1,2.1-3.3,3.9-6.7,5.5L399.7,28.8z M372.3,0.8h6.2c1.8,0,3.3-0.4,4.4-1.1c1.1-0.8,1.7-1.9,1.7-3.3
			c0-3-1.9-4.5-5.5-4.5h-6.7V0.8z"/>
		<path class="st1" d="M400.4,29.3h-17l-6.9-18h-3.8v18h-15.3v-47.9h25c5.5,0,9.9,1.3,12.9,3.9c3.1,2.6,4.7,6.1,4.7,10.4
			c0,2.8-0.6,5.3-1.7,7.4c-1.1,2.1-3.3,3.9-6.5,5.5L400.4,29.3z M384,28.4h15l-8.4-20.3l0.4-0.2c3.2-1.5,5.4-3.3,6.5-5.3
			c1.1-2,1.6-4.3,1.6-7c0-4-1.5-7.3-4.3-9.7c-2.9-2.5-7.1-3.7-12.3-3.7h-24.1v46.1h13.5v-18h5.3L384,28.4z M378.4,1.2h-6.6v-9.9h7.1
			c5,0,6,2.7,6,5c0,1.6-0.6,2.9-1.9,3.7C381.9,0.8,380.3,1.2,378.4,1.2z M372.7,0.3h5.7c1.7,0,3.1-0.4,4.1-1.1c1-0.7,1.5-1.6,1.5-3
			c0-2.7-1.7-4.1-5.1-4.1h-6.2V0.3z"/>
	</g>
	<g>
		<polygon class="st2" points="372.3,10.8 372.3,0.8 372.3,-8.2 372.3,-18.2 357.8,-18.2 357.8,28.8 372.3,28.8 		"/>
		<path class="st1" d="M372.7,29.3h-15.3v-47.9h15.3V29.3z M358.3,28.4h13.5v-46.1h-13.5V28.4z"/>
	</g>
	<g>
		<polygon class="st2" points="371.4,10.8 371.4,0.8 371.4,-8.2 371.4,-18.2 356.9,-18.2 356.9,28.8 371.4,28.8 		"/>
		<path class="st1" d="M371.8,29.3h-15.3v-47.9h15.3V29.3z M357.4,28.4h13.5v-46.1h-13.5V28.4z"/>
	</g>
</g>
</svg>
