<?xml version="1.0" encoding="utf-8"?>
<!-- Generator: Adobe Illustrator 19.0.0, SVG Export Plug-In . SVG Version: 6.00 Build 0)  -->
<svg version="1.1" id="Layer_1" xmlns="http://www.w3.org/2000/svg" xmlns:xlink="http://www.w3.org/1999/xlink" x="0px" y="0px"
	 viewBox="0 0 293.9 75.4" style="enable-background:new 0 0 293.9 75.4;" xml:space="preserve">
<style type="text/css">
	.st0{fill:#FFFFFF;}
</style>
<g>
	<path id="XMLID_16_" class="st0" d="M50.1,42.8H24.5V30.4c0-1.2-1-2.1-2.1-2.1c-1.2,0-2.1,1-2.1,2.1V45c0,1.2,1,2.1,2.1,2.1h27.7
		c1.2,0,2.1-1,2.1-2.1C52.2,43.8,51.3,42.8,50.1,42.8z"/>
	<path id="XMLID_18_" class="st0" d="M187.2,32.5c1.2,0,2.1-1,2.1-2.1c0-1.2-1-2.1-2.1-2.1h-27.7c-1.2,0-2.1,1-2.1,2.1
		c0,1.2,1,2.1,2.1,2.1h11.7V45c0,1.2,1,2.1,2.1,2.1c1.2,0,2.1-1,2.1-2.1V32.5H187.2z"/>
	<path id="XMLID_19_" class="st0" d="M238,28.2h-27.7c-1.2,0-2.1,1-2.1,2.1c0,1.2,1,2.1,2.1,2.1H222V45c0,1.2,1,2.1,2.1,2.1
		c1.2,0,2.1-1,2.1-2.1V32.5H238c1.2,0,2.1-1,2.1-2.1C240.1,29.2,239.1,28.2,238,28.2z"/>
	<path id="XMLID_20_" class="st0" d="M200.4,29.1c-0.4-0.5-1.1-0.8-1.8-0.8c0,0,0,0-0.1,0c0,0,0,0-0.1,0c-0.7,0-1.3,0.3-1.8,0.8
		l-11.8,14.7c-0.7,0.9-0.6,2.3,0.4,3c0.9,0.7,2.3,0.6,3.1-0.4l10.2-12.7l10.2,12.7c0.7,0.9,2.1,1.1,3.1,0.4c0.9-0.7,1.1-2.1,0.4-3
		L200.4,29.1z"/>
	<path id="XMLID_21_" class="st0" d="M271.5,28.2h-27.7c-1.2,0-2.1,1-2.1,2.1c0,1.2,1,2.1,2.1,2.1h11.7V45c0,1.2,1,2.1,2.1,2.1
		c1.2,0,2.1-1,2.1-2.1V32.5h11.7c1.2,0,2.1-1,2.1-2.1C273.6,29.2,272.7,28.2,271.5,28.2z"/>
	<path id="XMLID_24_" class="st0" d="M80.1,28.2H60.2c-4,0-7.3,3.3-7.3,7.3v4.3c0,4,3.3,7.3,7.3,7.3h19.9c4,0,7.3-3.3,7.3-7.3v-4.3
		C87.4,31.5,84.1,28.2,80.1,28.2z M82.8,39.4c0,2-1.7,3.7-3.7,3.7H61.3c-2,0-3.7-1.7-3.7-3.7V36c0-2,1.7-3.7,3.7-3.7h17.9
		c2,0,3.7,1.7,3.7,3.7V39.4z"/>
	<path id="XMLID_25_" class="st0" d="M97,32.3h22.4c1.1,0,2-0.9,2-2c0-1.1-0.9-2-2-2H95.9c-4,0-7.3,3.3-7.3,7.3v4.3
		c0,4,3.3,7.3,7.3,7.3h23.5c1.1,0,2-0.9,2-2c0-1.1-0.9-2-2-2v0H97c-2,0-3.7-1.7-3.7-3.7V36C93.2,33.9,94.9,32.3,97,32.3z"/>
	<path class="st0" d="M151.3,36L151.3,36l-23.5,0c-0.9,0-1.6-0.7-1.7-1.5c0-0.1,0-0.3,0-0.5c0-0.3,0-0.5,0.1-0.7
		c0.2-0.7,0.9-1.2,1.6-1.2h26c1.1,0,2-0.9,2-1.9c0-1.1-0.9-1.9-2-1.9h-26.9l-0.6,0.1c-1.4,0.3-4.1,2-4.1,5.7c0,4.3,2.7,5.9,4.5,5.9
		l24.9,0c0.7,0.1,0.9,0.6,0.9,0.8l0,1.8c0,0.1-0.1,0.8-1,0.8h-26.4c0,0,0,0,0,0l-0.1,0l-0.4,0.1c-0.9,0.2-1.6,1-1.6,1.9
		c0,0.9,0.6,1.7,1.6,1.9l0.4,0.1h26.7c3.2,0,4.6-2.3,4.7-3.9l0-2.9C156.4,37.5,153.8,36.1,151.3,36z"/>
</g>
</svg>
