<?xml version="1.0" encoding="utf-8"?>
<!-- Generator: Adobe Illustrator 19.0.0, SVG Export Plug-In . SVG Version: 6.00 Build 0)  -->
<svg version="1.1" id="Layer_1" xmlns="http://www.w3.org/2000/svg" xmlns:xlink="http://www.w3.org/1999/xlink" x="0px" y="0px"
	 viewBox="-150 394.5 293.9 52.4" style="enable-background:new -150 394.5 293.9 52.4;" xml:space="preserve">
<style type="text/css">
	.st0{fill:#FFFFFF;}
</style>
<g>
	<path class="st0" d="M141.5,445.3c-3.6,0-7.1,0-10.7,0c-0.8,0-1.3-0.2-1.8-1c-3-5-6-9.9-9.2-15c-1.2,1.2-2.4,2.3-3.5,3.5
		c-0.2,0.2-0.2,0.7-0.2,1.1c0,3.3,0,6.6,0,9.9c0,0.4,0,0.8,0,1.3c-3.3,0-6.5,0-9.8,0c0-16.4,0-32.8,0-49.3c0.4,0,0.9,0,1.3,0
		c2.4,0,4.9,0,7.3,0c0.9,0,1.2,0.2,1.2,1.1c-0.1,3.5,0,6.9,0,10.4c0,4.4,0,8.9,0,13.3c0,0.4,0,0.8,0,1.5c0.5-0.4,0.8-0.7,1-1
		c3.5-3.6,7-7.3,10.5-10.9c0.4-0.4,1.1-0.7,1.6-0.7c3.2-0.1,6.3,0,9.5,0c0.3,0,0.6,0,1.2,0.1c-4.5,4.4-8.9,8.7-13.4,13.1
		c2.9,4.4,5.8,8.8,8.7,13.1c2.1,3.1,4.1,6.2,6.2,9.2C141.5,445.1,141.5,445.2,141.5,445.3z"/>
	<path class="st0" d="M-147.6,429c1.5,0,3.1,0,4.6,0c0.2,1.3,0.2,2.5,0.5,3.7c0.8,4.1,3.2,6.8,7.1,8.1c5.1,1.7,10.4,2.1,15.5-0.2
		c1.9-0.8,3.5-2,4.7-3.8c2.5-3.7,1.6-8.4-2.1-10.9c-2.6-1.8-5.6-2.4-8.6-3.2c-3.8-1-7.7-1.8-11.5-3c-3.9-1.2-7-3.4-8.1-7.6
		c-1.9-6.7,1.9-13.6,8.9-16c1.5-0.5,3.1-0.8,4.7-1.2c2,0,3.9,0,5.9,0c1.3,0.3,2.7,0.5,4,0.9c5.6,1.7,9.6,5,11,10.9
		c0.2,0.7,0.2,1.4,0.3,2.1c0,0.4,0,0.8,0,1.3c-1.6,0-3.1,0-4.7,0c-0.2-2.1-0.7-4.2-2-6c-1.9-2.6-4.5-4.1-7.6-4.8
		c-3.8-0.7-7.5-0.5-11,1c-4.5,1.9-5.9,6.6-5,10.5c0.5,2,1.9,3.5,3.8,4.2c2.5,0.9,5.1,1.6,7.6,2.3c4.1,1.2,8.3,2.1,12.3,3.5
		c4.3,1.5,7.3,4.5,8,9.2c1.1,7.1-2.6,12.9-9.5,15.1c-1.9,0.6-4,0.8-6,1.2c-0.4,0.1-0.7,0.1-1.1,0.2c-1.4,0-2.7,0-4.1,0
		c-0.3-0.1-0.6-0.2-0.9-0.2c-2.1-0.4-4.2-0.6-6.1-1.2c-4.5-1.4-7.9-4.2-9.6-8.7c-0.4-1.2-0.7-2.4-1-3.7
		C-147.6,431.4-147.6,430.2-147.6,429z"/>
	<path class="st0" d="M-93.8,446.4c-1.1-0.2-2.1-0.4-3.2-0.7c-7.9-2.1-8.6-10.1-6.4-14.7c1-2.1,2.9-3.4,5-4.3c3.2-1.3,6.5-1.6,9.9-2
		c2-0.3,4-0.5,6-0.9c1.8-0.4,2.6-1.6,2.7-3.4c0-0.9,0-1.7-0.1-2.6c-0.4-2.7-2.1-4.3-4.7-5c-2.7-0.7-5.3-0.8-8-0.1
		c-3.4,1-5.4,3.3-5.8,6.8c0,0.4-0.1,0.7-0.2,1.1c-1.4,0-2.8,0-4.4,0c0.2-1,0.2-2,0.4-3c1.1-4.6,4.1-7.2,8.5-8.4
		c3.6-1,7.3-0.9,10.9,0c4.9,1.2,7.7,4.9,7.7,10.4c0,6.1,0,12.3,0,18.4c0,3.2,0.6,3.7,3.8,3.4c0,1.1,0,2.3,0,3.4
		c-4.2,2-7.6-0.3-7.9-5.8c-0.4,0.5-0.6,0.8-0.9,1.1c-2.4,3.5-5.7,5.7-10.1,6c-0.2,0-0.3,0.1-0.5,0.2
		C-91.9,446.4-92.8,446.4-93.8,446.4z M-79.9,426.2c-0.8,0.3-1.6,0.8-2.4,0.9c-1.9,0.4-3.8,0.7-5.8,0.9c-2.9,0.4-5.7,0.8-8.4,2.1
		c-1.5,0.7-2.7,1.8-3.3,3.5c-1,3.3,0.7,6.8,4.1,8.2c2,0.8,4.1,0.8,6.2,0.4c4.9-0.8,8.7-4.2,9.4-9.1
		C-79.6,430.9-79.9,428.5-79.9,426.2z"/>
	<path class="st0" d="M-42.3,446.4c-0.9-0.2-1.9-0.3-2.8-0.6c-4.4-1.1-7.7-3.7-9.5-7.8c-3.1-7.1-3.2-14.3,0.2-21.2
		c3.1-6.4,8.9-8.6,14.9-8.2c8.4,0.5,12.6,6.7,13.9,13.3c0.4,2.2,0.5,4.4,0.8,6.8c-9.3,0-18.4,0-27.6,0c0.3,4.6,1.4,8.7,5,11.7
		c4.4,3.7,14.3,3.6,17.4-5.2c0.2-0.5,0.3-1.1,0.5-1.6c1.4,0,2.9,0,4.3,0c-0.8,6.8-6.2,12.1-13,12.6c-0.3,0-0.6,0.1-0.9,0.2
		C-40.2,446.4-41.3,446.4-42.3,446.4z M-29.3,424.9c-0.4-1.7-0.6-3.3-1.1-4.8c-2.4-7.1-10-10.1-15.9-6.3c-4,2.5-5.5,6.5-6.1,11
		C-44.7,424.9-37.1,424.9-29.3,424.9z"/>
	<path class="st0" d="M65.2,445.3c-3.2,0-6.3,0-9.4,0c-0.3,0-0.7-0.4-0.8-0.7c-0.2-0.8-0.4-1.6-0.6-2.5c-2.6,2.4-5.6,3.7-8.9,4
		c-2.9,0.3-5.8,0.3-8.7-0.7c-4.9-1.9-6.8-6-6.5-10.7c0.4-6.3,4.5-8.4,9.2-9.4c3-0.6,6.2-0.9,9.2-1.4c0.8-0.1,1.6-0.3,2.4-0.5
		c2.3-0.7,3-1.8,2.8-4.2c-0.1-2-1.3-3.3-3.4-3.6c-1.4-0.2-2.9-0.3-4.3-0.2c-2.7,0.2-4.2,1.6-4.9,4.4c-0.1,0.3-0.2,0.6-0.2,0.9
		c-3.2,0-6.4,0-9.8,0c0.3-4.3,2.1-7.5,5.8-9.6c3.9-2.1,8.1-2.5,12.4-2.4c2.8,0.1,5.5,0.4,8.2,1.5c4,1.6,6,4.5,6,8.9
		c0,5.2,0,10.5,0,15.7C64,438.2,63.9,441.8,65.2,445.3z M54.2,428.3c-2,0.4-3.8,0.8-5.5,1.2c-2,0.5-4.1,0.9-6,1.6
		c-1.8,0.7-2.6,2.7-2.3,4.6s1.4,3.2,3.3,3.6c1.1,0.2,2.3,0.3,3.5,0.3c3.7-0.1,6.1-2.1,6.8-5.7C54.2,432.1,54.1,430.1,54.2,428.3z"/>
	<path class="st0" d="M-3.7,405.1c0,13.5,0,26.8,0,40.2c-3.6,0-7.2,0-10.9,0c0-13.3,0-26.7,0-40.1c-4.9,0-9.8,0-14.7,0
		c0-3.1,0-6.1,0-9.2c0.4,0,0.8-0.1,1.1-0.1c12.6,0,25.3,0,37.9,0c1.1,0,1.3,0.3,1.3,1.3c-0.1,2.6,0,5.2,0,7.9
		C6.2,405.1,1.4,405.1-3.7,405.1z"/>
	<path class="st0" d="M102.6,422.2c-3,0-6,0-8.9,0c-0.2,0-0.6-0.4-0.7-0.6c-0.7-3-2.4-4.9-5.5-5.4c-3.7-0.6-6.5,0.6-8.1,3.7
		c-2.4,4.7-2.5,9.6-0.4,14.5c1.4,3.4,4.2,4.7,8,4.4c3-0.3,5.4-2.6,6.2-5.8c0.1-0.4,0.2-0.9,0.3-1.3c3.1,0,6.2,0,9.5,0
		c-0.2,0.9-0.3,1.8-0.5,2.7c-1.9,7.3-7.5,11.5-15,12c-4.5,0.3-8.8-0.5-12.5-3.2c-4.3-3-6.4-7.3-7.1-12.4c-0.5-4.1,0-8,1.6-11.8
		c2.7-6.2,7.6-9.5,14.3-10.1c4.9-0.5,9.5,0.4,13.6,3.3c3,2.2,4.7,5.3,5.3,9c0,0.2,0,0.5,0,0.7C102.6,421.8,102.6,422,102.6,422.2z"
		/>
	<path class="st0" d="M7.2,445.2c0-11.8,0-23.6,0-35.5c3.1,0,6.1,0,9.3,0c0,2,0,3.9,0,5.9c0.1,0,0.1,0,0.2,0.1
		c0.1-0.2,0.3-0.4,0.4-0.6c2.4-4,5.9-6.2,10.6-6.5c0.6,0,1.3,0.1,1.9,0.2c0.2,0.1,0.6,0.4,0.6,0.6c0,2.8,0,5.7,0,8.5
		c-1.8,0-3.5-0.1-5.2,0c-5,0.5-7.1,4.1-7.7,7.8c-0.2,1.3-0.3,2.7-0.3,4c0,4.7,0,9.4,0,14.1c0,0.4,0,0.8,0,1.3
		C13.7,445.2,10.5,445.2,7.2,445.2z"/>
	<path class="st0" d="M-67.8,413.4c-2.1,0-4,0-6,0c0-1.3,0-2.4,0-3.7c2,0,3.9,0,5.9,0c0.1-2.1,0.1-4.1,0.3-6.1
		c0.6-6.2,4.2-7.8,9.3-7.6c2.9,0.1,2.9,0.2,2.9,3.1c0,0.3,0,0.5,0,0.9c-1.1-0.1-2.1-0.2-3.2-0.2c-3.3,0-4.7,1.3-4.7,4.6
		c0,1.7,0,3.5,0,5.3c2.3,0,4.6,0,6.9,0c0,1.3,0,2.4,0,3.7c-2.3,0-4.5,0-6.9,0c0,10.7,0,21.3,0,31.9c-1.5,0-2.9,0-4.5,0
		C-67.8,434.6-67.8,424.1-67.8,413.4z"/>
</g>
</svg>
