<?xml version="1.0" encoding="utf-8"?>
<!-- Generator: Adobe Illustrator 19.0.0, SVG Export Plug-In . SVG Version: 6.00 Build 0)  -->
<svg version="1.1" id="Layer_1" xmlns="http://www.w3.org/2000/svg" xmlns:xlink="http://www.w3.org/1999/xlink" x="0px" y="0px"
	 viewBox="-150 383.5 293.9 75.4" style="enable-background:new -150 383.5 293.9 75.4;" xml:space="preserve">
<style type="text/css">
	.st0{fill:#FFFFFF;}
</style>
<g>
	<path class="st0" d="M15.1,404.4c2.4,0,4.5,0,6.6,0c1.1,0,1.4,0.4,1.3,1.5c-0.7,4.7-0.7,4.7-5.5,4.7c-1.1,0-2.1,0-3.4,0
		c-0.6,3.3-1.2,6.5-1.8,9.8c-1.4,7.8-2.9,15.5-4.4,23.3c-0.2,0.9-0.5,1.7-0.8,2.6c-2.9,7.9-9.5,10-16.9,8.1c-1.3-0.3-1.5-0.9-1-2
		c0.1-0.2,0.2-0.5,0.3-0.8c0.4-1,0.5-2.4,1.2-2.9c0.6-0.4,1.9,0.1,2.9,0.2c3.2,0.3,5.3-0.7,6.3-3.8c1.2-3.6,2-7.3,2.7-11.1
		c1.4-7.5,2.7-15,4-22.5c0-0.2,0-0.4,0-0.9c-1.8,0-3.6,0-5.6,0c0.4-1.9,0.6-3.6,1-5.3c0.1-0.4,0.9-0.8,1.4-0.8c1.4-0.1,2.8,0,4.2,0
		c0.5-2.3,0.9-4.6,1.5-6.8c2.6-9,9.2-11.2,17.4-9.6c1.3,0.3,1.5,0.9,1,2c-0.1,0.1-0.1,0.2-0.1,0.3c-0.4,1.2-0.6,2.7-1.4,3.3
		c-0.7,0.5-2.2,0-3.4,0c-3.4-0.1-5.5,1.4-6.4,4.7C15.9,400.2,15.6,402.2,15.1,404.4z"/>
	<path class="st0" d="M-92.3,417.2c0.2-4.8-1.6-6.8-6.1-7.1c-3.6-0.2-7.2,0.3-10.5,1.8c-1.1,0.5-1.7,0.4-2-0.8
		c-0.1-0.5-0.4-0.9-0.5-1.4c-1-2.5-1-2.6,1.5-3.5c5.4-1.9,10.9-2.6,16.5-1.2c5.1,1.2,7.9,4.2,8.1,9.4c0.3,6.8,0.2,13.7,0.2,20.5
		c0,0.4-0.5,1.2-1,1.3c-6.5,1.4-13.1,2.7-19.8,1.2c-4.9-1.1-7.7-4-8.1-8.2c-0.5-5,1.6-8.6,6.2-10.8c4.2-2,8.7-1.8,13.2-1.4
		C-93.8,417-93.1,417.1-92.3,417.2z M-92.3,431.9c0-3.2,0-6.2,0-9.4c-3.7-0.5-7.3-1-10.9,0.2c-2.6,0.8-3.8,2.6-3.7,5.1
		c0.1,2.4,1.5,3.9,4.2,4.5C-99.2,433.1-95.7,432.5-92.3,431.9z"/>
	<path class="st0" d="M-57.2,422.9c0,5.8,3.2,9.2,9,9.3c3.1,0,6.3-0.6,9.4-1.2c1.2-0.2,1.8-0.2,2.1,1c0.1,0.2,0.1,0.4,0.2,0.6
		c1.3,3.4,1.3,3.4-2.2,4.3c-4.9,1.2-9.8,1.4-14.7,0.4c-6.6-1.4-10.6-6.2-11.5-13.8c-0.9-8.1,2.3-14.7,8.8-17.7
		c5.9-2.8,13.8-1.7,18.1,2.5c3.9,3.8,4.3,8.7,3.8,13.7c0,0.3-1.1,0.8-1.6,0.8c-6.5,0.1-12.9,0-19.4,0
		C-55.8,422.9-56.4,422.9-57.2,422.9z M-57,417.7c5.2,0,10.5,0,15.7,0c-0.3-5-3.2-7.9-7.8-7.9C-53.6,409.9-56.9,413.1-57,417.7z"/>
	<path class="st0" d="M116.2,422.9c-0.3,5.4,3,9.2,8.7,9.3c3.2,0.1,6.4-0.6,9.6-1.2c1.3-0.2,1.9-0.1,2.2,1.1
		c0.1,0.3,0.2,0.5,0.3,0.8c1.2,3,1.2,3.1-1.9,3.9c-5.4,1.4-10.9,1.7-16.3,0.1c-5.7-1.7-9.2-5.5-10.1-11.4c-1-6.3-0.5-12.3,4.4-17
		c5.6-5.5,16.2-5.7,21.9-0.5c4.1,3.8,4.7,8.7,4.1,13.9c0,0.4-1,0.9-1.5,0.9c-6.5,0.1-12.9,0-19.4,0
		C117.5,422.9,116.9,422.9,116.2,422.9z M116.2,417.7c5.3,0,10.5,0,15.7,0c0.2-4.3-2.7-7.6-7-7.9
		C120.1,409.5,116.8,412.5,116.2,417.7z"/>
	<path class="st0" d="M54.8,421.3c-0.1,5.8-1.7,11-6.9,14.3c-8,5.1-19.6,2.3-23.6-5.6c-3.3-6.5-2.2-16.1,2.3-20.9
		c4.2-4.5,12.1-6.2,18.4-3.7c6.5,2.5,9.3,7.7,9.7,14.4C54.8,420.3,54.8,420.8,54.8,421.3z M47.6,421.1c-0.6-2.3-0.9-4.6-1.7-6.8
		c-1.3-3.3-4.2-4.4-7.7-4.3c-3.2,0.1-5.7,1.5-6.8,4.5c-1.7,4.5-1.7,9,0.1,13.5c1.3,3.3,4,4.6,7.4,4.5c3.4,0,6.1-1.4,7.3-4.7
		C46.8,425.8,47,423.5,47.6,421.1z"/>
	<path class="st0" d="M-143.5,428.8c1.2,0.7,2.2,1.2,3.2,1.7c3.5,1.6,7.1,2.6,10.9,1.9c0.8-0.2,1.7-0.5,2.4-1.1
		c2-1.5,1.9-4.2-0.4-5.2c-2.3-1.1-4.7-1.7-7.1-2.5c-1.7-0.6-3.5-1.2-5.2-1.9c-6.8-3.2-5.6-11.5-1.1-14.7c3.2-2.3,6.8-2.9,10.6-2.5
		c3.2,0.4,6.3,1.5,9.4,2.3c1.3,0.3,1.4,1.1,0.9,2.3c-1.4,3.3-1.3,3.2-4.8,2.2c-2.2-0.7-4.5-1.1-6.7-1.3c-1.4-0.1-3.1,0.2-4.3,0.9
		c-2.2,1.1-2.2,3.8,0,5c1.9,1,3.9,1.6,5.9,2.3c2.1,0.8,4.3,1.4,6.3,2.3c3,1.4,5,3.6,5,7.1c0.1,3.8-1.5,6.7-4.8,8.6
		c-3,1.7-6.4,1.9-9.8,1.8c-3.9-0.2-7.6-1.2-11.1-3.1c-1.1-0.6-1.3-1.2-0.8-2.3C-144.4,431.5-144,430.2-143.5,428.8z"/>
	<path class="st0" d="M-16.2,438c-4.4,0-8.5-1-12.4-3.2c-1-0.5-1.2-1-0.8-2.1c1.5-3.8,1.4-3.8,5.2-2.1c3.4,1.6,6.9,2.4,10.6,1.7
		c1-0.2,2-0.8,2.8-1.4c1.5-1.5,1.3-3.6-0.6-4.7c-1.2-0.7-2.5-1.2-3.9-1.6c-2.7-0.9-5.5-1.7-8.1-2.7c-3-1.3-5.1-3.5-5.3-7
		c-0.2-3.8,1.4-6.6,4.6-8.6c3.1-1.9,6.5-2.3,9.9-1.9c3.1,0.4,6.2,1.5,9.2,2.3c1,0.3,1.3,0.9,0.9,2c-1.4,3.5-1.3,3.4-5,2.4
		c-2.9-0.7-5.9-0.9-8.9-1.2c-0.8-0.1-1.7,0.5-2.4,1c-1.8,1.3-1.7,3.7,0.2,4.7s4,1.6,6.1,2.4c2,0.8,4.2,1.4,6.1,2.3
		c3.1,1.4,5.2,3.8,5.2,7.4c0,3.8-1.6,6.9-5.1,8.4c-2.6,1.1-5.4,1.5-8.2,2.3C-16.1,438.4-16.2,438.2-16.2,438z"/>
	<path class="st0" d="M97.8,404.1c2.7,0.4,5.4,0.9,8.1,1.3c1.1,0.2,1.5,0.8,0.9,1.9c-0.5,1.1-0.6,2.7-1.5,3.3
		c-0.8,0.5-2.3-0.1-3.4-0.2c-1.1-0.1-2.1-0.2-3.2-0.3c-6.5-0.2-10.2,3-10.8,9.5c-0.1,1.1-0.1,2.2,0,3.4c0.6,5.9,4,9.1,9.9,9.2
		c2.2,0,4.3-0.4,6.5-0.8c0.9-0.2,1.4-0.1,1.8,0.9c1.7,4.6,2.6,4-2.7,5.2c-3.8,0.8-7.6,0.8-11.3,0c-5.7-1.3-9.4-4.8-11-10.4
		c-1.3-4.8-1.1-9.7,1.1-14.3C84.9,407.3,90.4,404.3,97.8,404.1z"/>
	<path class="st0" d="M-71.1,412.9c0,7.7,0,15.5,0,23.2c0,1.5-0.5,1.9-1.9,1.9c-5-0.1-5,0-5-5c0-14.4,0-28.7,0-43.1
		c0-2.4,0-2.4,2.3-2.4c4.6,0,4.6,0,4.6,4.5C-71.1,399-71.1,406-71.1,412.9z"/>
	<path class="st0" d="M66.5,407.8c3.7-3.4,7.8-3.9,12.2-3c1.2,0.2,1.7,0.7,1.1,1.9c-0.1,0.1-0.1,0.3-0.2,0.5
		c-0.4,1.1-0.6,2.6-1.4,3.2c-0.7,0.6-2.2,0.2-3.3,0.3c-4.8,0.2-7.8,2.8-8.1,7.7c-0.3,5.8-0.2,11.6-0.3,17.3c0,2.4,0,2.4-2.4,2.4
		c-1.2,0-2.4,0-3.5,0c-1,0-1.4-0.4-1.4-1.4c0-10.2,0-20.3,0-30.5c0-1.1,0.3-1.5,1.4-1.5c1.2,0.1,2.5,0.1,3.7,0
		c1.4-0.1,2.2,0.3,1.9,1.8C66.5,406.8,66.5,407.1,66.5,407.8z"/>
</g>
</svg>
