<?xml version="1.0" encoding="utf-8"?>
<!-- Generator: Adobe Illustrator 19.0.0, SVG Export Plug-In . SVG Version: 6.00 Build 0)  -->
<svg version="1.1" id="dashboard" xmlns="http://www.w3.org/2000/svg" xmlns:xlink="http://www.w3.org/1999/xlink" x="0px" y="0px"
	 viewBox="-487 488 25 25" style="enable-background:new -487 488 25 25;" xml:space="preserve">
<style type="text/css">
	.st0{fill:#FFFFFF;}
</style>
<g>
	<path class="st0" d="M-467.1,496.2h-9.7c-0.6,0-1.1-0.5-1.1-1.1l0,0c0-0.6,0.5-1.1,1.1-1.1h9.7c0.6,0,1.1,0.5,1.1,1.1l0,0
		C-466,495.7-466.5,496.2-467.1,496.2z"/>
	<path class="st0" d="M-467.1,501.6h-14.7c-0.6,0-1.1-0.5-1.1-1.1l0,0c0-0.6,0.5-1.1,1.1-1.1h14.7c0.6,0,1.1,0.5,1.1,1.1l0,0
		C-466,501.1-466.5,501.6-467.1,501.6z"/>
	<path class="st0" d="M-467.1,507h-5.7c-0.6,0-1.1-0.5-1.1-1.1l0,0c0-0.6,0.5-1.1,1.1-1.1h5.7c0.6,0,1.1,0.5,1.1,1.1l0,0
		C-466,506.5-466.5,507-467.1,507z"/>
</g>
</svg>
