<?xml version="1.0" encoding="utf-8"?>
<!-- Generator: Adobe Illustrator 19.0.0, SVG Export Plug-In . SVG Version: 6.00 Build 0)  -->
<svg version="1.1" id="Layer_1" xmlns="http://www.w3.org/2000/svg" xmlns:xlink="http://www.w3.org/1999/xlink" x="0px" y="0px"
	 viewBox="494.5 -7.5 25 25" style="enable-background:new 494.5 -7.5 25 25;" xml:space="preserve">
<style type="text/css">
	.st0{fill:#043B8B;}
</style>
<g>
	<path class="st0" d="M518.8-1.3v-3c0-1.4-1.1-2.5-2.5-2.5h-18.5c-1.4,0-2.5,1.1-2.5,2.5v3C495.2-1.3,518.8-1.3,518.8-1.3z
		 M515.3-4.1c0.4,0,0.7,0.3,0.7,0.7s-0.3,0.7-0.7,0.7c-0.4,0-0.7-0.3-0.7-0.7S514.9-4.1,515.3-4.1z M512.5-4.1
		c0.4,0,0.7,0.3,0.7,0.7s-0.3,0.7-0.7,0.7s-0.7-0.3-0.7-0.7S512.1-4.1,512.5-4.1z M509.8-4.1c0.4,0,0.7,0.3,0.7,0.7
		s-0.3,0.7-0.7,0.7s-0.7-0.3-0.7-0.7S509.4-4.1,509.8-4.1z"/>
	<path class="st0" d="M495.2,0v16.9h23.6V0H495.2z M514.7,4.6c1.1,0,2.1,0.9,2.1,2.1s-0.9,2.1-2.1,2.1s-2.1-0.9-2.1-2.1
		S513.5,4.6,514.7,4.6z M507,1.8c1.3,0,2.4,1.1,2.4,2.4s-1.1,2.4-2.4,2.4s-2.4-1.1-2.4-2.4S505.7,1.8,507,1.8z M499.4,4.6
		c1.1,0,2.1,0.9,2.1,2.1s-0.9,2.1-2.1,2.1s-2.1-0.9-2.1-2.1S498.2,4.6,499.4,4.6z M502.2,15.7h-5.6v-4.3c0-0.7,0.5-1.2,1.2-1.2h3.2
		c0.7,0,1.2,0.5,1.2,1.2C502.2,11.5,502.2,14.5,502.2,15.7z M510.5,15.7h-6.9V9.2c0-0.7,0.5-1.2,1.2-1.2h4.5c0.7,0,1.2,0.5,1.2,1.2
		V15.7z M517.4,15.7h-5.6V15c0-0.1,0,0.2,0-3.7c0-0.7,0.5-1.2,1.2-1.2h3.2c0.7,0,1.2,0.5,1.2,1.2V15.7z"/>
</g>
<path class="st0" d="M1053-4.5c-80,0-145,58.5-145,130.5c0.1,25.4,8.1,50.1,23,70.6c0,23.8-7.6,46.9-21.6,66.2c-1.9,1.9-1.9,5,0,6.8
	c0.9,0.9,2.1,1.4,3.4,1.4h0.7c28-4.1,55.1-12.9,80.3-25.8c18.8,7.6,38.9,11.4,59.2,11.3c80,0,145-58.5,145-130.5
	C1198,54.1,1133-4.5,1053-4.5z M985.4,145.4c-10.7,0-19.3-8.7-19.3-19.3c0-10.7,8.7-19.3,19.3-19.3c10.7,0,19.3,8.7,19.3,19.3
	C1004.7,136.7,996,145.4,985.4,145.4z M1053,145.4c-10.7,0-19.3-8.7-19.3-19.3c0-10.7,8.7-19.3,19.3-19.3c10.7,0,19.3,8.7,19.3,19.3
	C1072.4,136.7,1063.7,145.4,1053,145.4z M1120.7,145.4c-10.7,0-19.3-8.7-19.3-19.3c0-10.7,8.7-19.3,19.3-19.3
	c10.7,0,19.3,8.7,19.3,19.3C1140,136.7,1131.3,145.4,1120.7,145.4z"/>
</svg>
