<?xml version="1.0" encoding="utf-8"?>
<!-- Generator: Adobe Illustrator 19.0.0, SVG Export Plug-In . SVG Version: 6.00 Build 0)  -->
<svg version="1.1" id="dashboard" xmlns="http://www.w3.org/2000/svg" xmlns:xlink="http://www.w3.org/1999/xlink" x="0px" y="0px"
	 viewBox="8 -7 25 25" style="enable-background:new 8 -7 25 25;" xml:space="preserve">
<style type="text/css">
	.st0{fill:#043B8B;}
</style>
<g>
	<path id="Path_889" class="st0" d="M17.9-6.1h-7.2C9.8-6.1,9-5.3,9-4.4v4.3c0,0.9,0.8,1.7,1.7,1.7h7.2c0.9,0,1.7-0.8,1.7-1.7v-4.3
		C19.5-5.3,18.8-6.1,17.9-6.1z"/>
	<path id="Path_890" class="st0" d="M17.9,3.5h-7.2C9.8,3.5,9,4.3,9,5.3v10.1c0,0.9,0.8,1.7,1.7,1.7h7.2c0.9,0,1.7-0.8,1.7-1.7V5.3
		C19.5,4.2,18.8,3.5,17.9,3.5z"/>
	<path id="Path_891" class="st0" d="M30.3,9.2h-7.2c-0.9,0-1.7,0.8-1.7,1.7v4.3c0,0.9,0.8,1.7,1.7,1.7h7.2c0.9,0,1.7-0.8,1.7-1.7
		v-4.3C32,10,31.2,9.2,30.3,9.2z"/>
	<path id="Path_892" class="st0" d="M30.3-6.1h-7.2c-0.9,0-1.7,0.8-1.7,1.7V5.8c0,0.9,0.8,1.7,1.7,1.7h7.2c0.9,0,1.7-0.8,1.7-1.7
		V-4.4C32-5.3,31.2-6.1,30.3-6.1z"/>
</g>
</svg>
