<?xml version="1.0" encoding="utf-8"?>
<!-- Generator: Adobe Illustrator 19.0.0, SVG Export Plug-In . SVG Version: 6.00 Build 0)  -->
<svg version="1.1" id="dashboard" xmlns="http://www.w3.org/2000/svg" xmlns:xlink="http://www.w3.org/1999/xlink" x="0px" y="0px"
	 viewBox="-497 488 25 25" style="enable-background:new -497 488 25 25;" xml:space="preserve">
<style type="text/css">
	.st0{fill:#043B8B;}
</style>
<g>
	<path id="Path_889" class="st0" d="M-487.1,489h-7.2c-0.9,0-1.7,0.8-1.7,1.7v4.3c0,0.9,0.8,1.7,1.7,1.7h7.2c0.9,0,1.7-0.8,1.7-1.7
		v-4.3C-485.5,489.8-486.2,489-487.1,489z"/>
	<path id="Path_890" class="st0" d="M-487.1,498.6h-7.2c-0.9,0-1.7,0.8-1.7,1.7v10.1c0,0.9,0.8,1.7,1.7,1.7h7.2
		c0.9,0,1.7-0.8,1.7-1.7v-10.1C-485.5,499.3-486.2,498.6-487.1,498.6z"/>
	<path id="Path_891" class="st0" d="M-474.7,504.3h-7.2c-0.9,0-1.7,0.8-1.7,1.7v4.3c0,0.9,0.8,1.7,1.7,1.7h7.2
		c0.9,0,1.7-0.8,1.7-1.7V506C-473,505.1-473.8,504.3-474.7,504.3z"/>
	<path id="Path_892" class="st0" d="M-474.7,489h-7.2c-0.9,0-1.7,0.8-1.7,1.7v10.1c0,0.9,0.8,1.7,1.7,1.7h7.2c0.9,0,1.7-0.8,1.7-1.7
		v-10.1C-473,489.8-473.8,489-474.7,489z"/>
</g>
</svg>
