<?xml version="1.0" encoding="utf-8"?>
<!-- Generator: Adobe Illustrator 19.0.0, SVG Export Plug-In . SVG Version: 6.00 Build 0)  -->
<svg version="1.1" id="dashboard" xmlns="http://www.w3.org/2000/svg" xmlns:xlink="http://www.w3.org/1999/xlink" x="0px" y="0px"
	 viewBox="-487 488 25 25" style="enable-background:new -487 488 25 25;" xml:space="preserve">
<style type="text/css">
	.st0{fill:none;stroke:#FFFFFF;stroke-miterlimit:10;}
</style>
<g>
	<path class="st0" d="M-484,490.3c-0.3,0-0.7,0.3-0.7,0.7v4.2c0,0.3,0.3,0.7,0.7,0.7h7c0.3,0,0.7-0.3,0.7-0.7V491
		c-0.1-0.4-0.3-0.7-0.7-0.7H-484z"/>
	<path class="st0" d="M-484,499.6c-0.3,0-0.7,0.3-0.7,0.7v9.8c0,0.3,0.3,0.7,0.7,0.7h7c0.3,0,0.7-0.3,0.7-0.7v-9.8
		c0-0.2-0.2-0.7-0.7-0.7H-484z"/>
	<path class="st0" d="M-465,510.6c0.3,0,0.7-0.3,0.7-0.7v-4.2c0-0.3-0.3-0.7-0.7-0.7h-7c-0.3,0-0.7,0.3-0.7,0.7v4.2
		c0,0.3,0.3,0.7,0.7,0.7H-465z"/>
	<path class="st0" d="M-465,501.4c0.3,0,0.7-0.3,0.7-0.7v-9.8c0-0.3-0.3-0.7-0.7-0.7h-7c-0.3,0-0.7,0.3-0.7,0.7v9.8
		c0,0.3,0.3,0.7,0.7,0.7H-465z"/>
</g>
</svg>
