<?xml version="1.0" encoding="utf-8"?>
<!-- Generator: Adobe Illustrator 19.0.0, SVG Export Plug-In . SVG Version: 6.00 Build 0)  -->
<svg version="1.1" id="Layer_1" xmlns="http://www.w3.org/2000/svg" xmlns:xlink="http://www.w3.org/1999/xlink" x="0px" y="0px"
	 viewBox="243 -244 512 512" style="enable-background:new 243 -244 512 512;" xml:space="preserve">
<style type="text/css">
	.st0{fill:#043B8B;}
</style>
<g>
	<path class="st0" d="M542,90.8H456c-12.6,0-22.8,10.2-22.8,22.8V236h131.5V113.5C564.8,101,554.5,90.8,542,90.8z"/>
	<path class="st0" d="M674.1,131h-60c-12.7,0-23,10.2-23,22.8c0,72.9,0,68.6-0.1,69.6V236h106v-82.3
		C697.1,141.2,686.8,131,674.1,131z"/>
	<path class="st0" d="M723-106.1v-57.8c0-26.5-21.6-48.1-48.1-48.1H323.1c-26.5,0-48.1,21.6-48.1,48.1v57.8H723z M656.5-158.6
		c7.2,0,13.1,5.9,13.1,13.1s-5.9,13.1-13.1,13.1c-7.2,0-13.1-5.9-13.1-13.1S649.2-158.6,656.5-158.6z M604-158.6
		c7.2,0,13.1,5.9,13.1,13.1s-5.9,13.1-13.1,13.1c-7.2,0-13.1-5.9-13.1-13.1S596.7-158.6,604-158.6z M551.5-158.6
		c7.2,0,13.1,5.9,13.1,13.1s-5.9,13.1-13.1,13.1s-13.1-5.9-13.1-13.1S544.2-158.6,551.5-158.6z"/>
	<path class="st0" d="M354.3,52.3c-7.3,0-13.2,5.9-13.2,13.1s5.9,13.1,13.2,13.1c7.2,0,13.1-5.9,13.1-13.1S361.6,52.3,354.3,52.3z"
		/>
	<path class="st0" d="M383.9,131h-60c-12.7,0-23,10.2-23,22.8V236h106.1c0-22.6,0-78.8,0-82.3C406.9,141.2,396.6,131,383.9,131z"/>
	<path class="st0" d="M644.5,52.3c-7.3,0-13.2,5.9-13.2,13.1s5.9,13.1,13.2,13.1s13.2-5.9,13.2-13.1S651.8,52.3,644.5,52.3z"/>
	<path class="st0" d="M275-79.9v227.2c3.2-24,23.9-42.6,48.9-42.6h30.4c-21.8,0-39.5-17.7-39.5-39.4S332.6,26,354.3,26
		s39.5,17.7,39.5,39.4s-17.7,39.4-39.5,39.4c30.8,0,39.2-1.4,52.7,5.7c1.6-25.6,22.9-46,49-46h43.4c-25.4,0-46-20.6-46-45.9
		s20.7-45.9,46-45.9c25.4,0,46,20.6,46,45.9s-20.6,45.9-46,45.9H542c26.1,0,47.4,20.4,49,46c13.3-7.1,21.2-5.8,53.6-5.8
		c-21.8,0-39.5-17.7-39.5-39.4S622.8,26,644.5,26S684,43.7,684,65.4s-17.7,39.4-39.5,39.4h29.5c25.2,0,46,18.8,48.9,43.1V-79.9H275z
		"/>
	<path class="st0" d="M499.4-1.1c-10.9,0-19.7,8.8-19.7,19.7s8.8,19.7,19.7,19.7c10.9,0,19.7-8.8,19.7-19.7S510.3-1.1,499.4-1.1z"/>
</g>
</svg>
