<?xml version="1.0" encoding="utf-8"?>
<!-- Generator: Adobe Illustrator 19.0.0, SVG Export Plug-In . SVG Version: 6.00 Build 0)  -->
<svg version="1.1" id="Layer_1" xmlns="http://www.w3.org/2000/svg" xmlns:xlink="http://www.w3.org/1999/xlink" x="0px" y="0px"
	 viewBox="243 -244 512 512" style="enable-background:new 243 -244 512 512;" xml:space="preserve">
<style type="text/css">
	.st0{fill:none;stroke:#FFFFFF;stroke-width:10;stroke-miterlimit:10;}
</style>
<g>
	<path class="st0" d="M536,90.8H450c-12.6,0-22.8,10.2-22.8,22.8V236h131.5V113.5C558.8,101,548.5,90.8,536,90.8z"/>
	<path class="st0" d="M668.1,131h-60c-12.7,0-23,10.2-23,22.8c0,72.9,0,68.6-0.1,69.6V236h106v-82.3
		C691.1,141.2,680.8,131,668.1,131z"/>
	<path class="st0" d="M717-106.1v-57.8c0-26.5-21.6-48.1-48.1-48.1H317.1c-26.5,0-48.1,21.6-48.1,48.1v57.8H717z M650.5-158.6
		c7.2,0,13.1,5.9,13.1,13.1s-5.9,13.1-13.1,13.1c-7.2,0-13.1-5.9-13.1-13.1S643.2-158.6,650.5-158.6z M598-158.6
		c7.2,0,13.1,5.9,13.1,13.1s-5.9,13.1-13.1,13.1c-7.2,0-13.1-5.9-13.1-13.1S590.7-158.6,598-158.6z M545.5-158.6
		c7.2,0,13.1,5.9,13.1,13.1s-5.9,13.1-13.1,13.1s-13.1-5.9-13.1-13.1S538.2-158.6,545.5-158.6z"/>
	<path class="st0" d="M377.9,131h-60c-12.7,0-23,10.2-23,22.8V236h106.1c0-22.6,0-78.8,0-82.3C400.9,141.2,390.6,131,377.9,131z"/>
	<path class="st0" d="M638.5,104.8c-21.8,0-39.5-17.7-39.5-39.4S616.8,26,638.5,26S678,43.7,678,65.4S660.3,104.8,638.5,104.8"/>
	<path class="st0" d="M493.4,64.5c-25.4,0-46-20.6-46-45.9s20.7-45.9,46-45.9c25.4,0,46,20.6,46,45.9S518.8,64.5,493.4,64.5"/>
	<path class="st0" d="M348.3,104.8c-21.8,0-39.5-17.7-39.5-39.4S326.6,26,348.3,26s39.5,17.7,39.5,39.4S370.1,104.8,348.3,104.8"/>
</g>
<rect x="269.2" y="-81.3" class="st0" width="447.8" height="321.3"/>
</svg>
