<?xml version="1.0" encoding="utf-8"?>
<!-- Generator: Adobe Illustrator 16.0.0, SVG Export Plug-In . SVG Version: 6.00 Build 0)  -->
<!DOCTYPE svg PUBLIC "-//W3C//DTD SVG 1.1//EN" "http://www.w3.org/Graphics/SVG/1.1/DTD/svg11.dtd">
<svg version="1.1" id="Layer_1" xmlns="http://www.w3.org/2000/svg" xmlns:xlink="http://www.w3.org/1999/xlink" x="0px" y="0px"
	 width="60px" height="60px" viewBox="0 0 60 60" enable-background="new 0 0 60 60" xml:space="preserve">
<g id="document" transform="translate(-0.109 0)">
	<path id="Path_1071" fill="#FFFFFF" d="M11.09,9.916v46.032c0,0.489,0.398,0.884,0.887,0.884l0,0h33.639
		c0.492,0,0.887-0.395,0.887-0.884l0,0V18.769c0-0.019,0-0.034,0-0.055c-0.003-0.077-0.019-0.153-0.044-0.227
		c0-0.03-0.016-0.055-0.028-0.083c-0.044-0.097-0.104-0.185-0.179-0.26l-8.875-8.855c-0.075-0.073-0.163-0.133-0.26-0.175
		l-0.063-0.03c-0.072-0.025-0.15-0.039-0.226-0.044c0,0-0.035,0-0.054,0H11.978c-0.489,0-0.887,0.396-0.887,0.885l0,0V9.916z
		 M43.473,17.883H37.65v-5.831L43.473,17.883z M12.861,10.801H35.88v7.968c0,0.489,0.396,0.886,0.884,0.886l0,0h7.97v35.409H12.861
		V10.801z"/>
	<path id="Path_1072" fill="#FFFFFF" d="M48.274,49.755v1.78h2.658c0.488,0,0.887-0.401,0.887-0.89l0,0V4.604
		c0-0.489-0.398-0.885-0.887-0.885h-0.004H17.293c-0.492,0-0.887,0.396-0.887,0.885l0,0v2.645h1.771v-1.76h31.868v44.266H48.274z"/>
	<path id="Path_1073" fill="#FFFFFF" d="M18.176,21.423H39.43v1.771H18.176V21.423z"/>
	<path id="Path_1074" fill="#FFFFFF" d="M18.176,16.111h7.083v1.772h-7.083V16.111z"/>
	<path id="Path_1075" fill="#FFFFFF" d="M18.176,26.733h14.162v1.772H18.176V26.733z"/>
	<path id="Path_1076" fill="#FFFFFF" d="M34.109,26.733h5.313v1.772h-5.313V26.733z"/>
	<path id="Path_1077" fill="#FFFFFF" d="M18.176,32.044H39.43v1.772H18.176V32.044z"/>
	<path id="Path_1078" fill="#FFFFFF" d="M18.176,42.673H39.43v1.768H18.176V42.673z"/>
	<path id="Path_1079" fill="#FFFFFF" d="M26.143,37.357h13.279v1.773H26.143V37.357z"/>
	<path id="Path_1080" fill="#FFFFFF" d="M18.176,37.357h6.199v1.773h-6.199V37.357z"/>
	<path id="Path_1081" fill="#FFFFFF" d="M18.176,47.981h3.532v1.773h-3.532V47.981z"/>
	<path id="Path_1082" fill="#FFFFFF" d="M23.485,47.981h15.933v1.773H23.485V47.981z"/>
</g>
</svg>
