<?xml version="1.0" encoding="utf-8"?>
<!-- Generator: Adobe Illustrator 16.0.0, SVG Export Plug-In . SVG Version: 6.00 Build 0)  -->
<!DOCTYPE svg PUBLIC "-//W3C//DTD SVG 1.1//EN" "http://www.w3.org/Graphics/SVG/1.1/DTD/svg11.dtd">
<svg version="1.1" id="Layer_1" xmlns="http://www.w3.org/2000/svg" xmlns:xlink="http://www.w3.org/1999/xlink" x="0px" y="0px"
	 width="60px" height="60px" viewBox="0 0 60 60" enable-background="new 0 0 60 60" xml:space="preserve">
<path id="Path_1072" fill="#043B8B" d="M48.165,49.755v1.78h2.658c0.487,0,0.887-0.401,0.887-0.891l0,0V4.604
	c0-0.489-0.397-0.885-0.887-0.885h-0.005H17.184c-0.492,0-0.887,0.396-0.887,0.885l0,0v2.645h1.771v-1.76h31.868v44.266H48.165z"/>
<path fill="#043B8B" d="M46.35,18.487c0-0.03-0.016-0.055-0.026-0.083c-0.046-0.097-0.104-0.185-0.181-0.26l-8.875-8.855
	c-0.074-0.073-0.162-0.133-0.26-0.175l-0.063-0.03c-0.072-0.025-0.15-0.039-0.228-0.044c0,0-0.034,0-0.054,0H11.869
	c-0.489,0-0.887,0.396-0.887,0.885l-0.001-0.009v46.032c0,0.489,0.398,0.884,0.887,0.884h33.639c0.492,0,0.888-0.395,0.888-0.884
	V18.769c0-0.019,0-0.034,0-0.055C46.391,18.637,46.375,18.561,46.35,18.487z M18.067,16.111h7.083v1.772h-7.083V16.111z
	 M18.067,26.733h14.162v1.772H18.067V26.733z M18.067,37.357h6.199v1.771h-6.199V37.357z M21.599,49.753h-3.532V47.98h3.532V49.753z
	 M39.309,49.753H23.376V47.98h15.933V49.753z M39.32,44.441H18.067v-1.769H39.32V44.441z M26.034,39.129v-1.771h13.278v1.771H26.034
	z M39.32,33.816H18.067v-1.772H39.32V33.816z M34,28.505v-1.772h5.313v1.772H34z M39.32,23.194H18.067v-1.771H39.32V23.194z
	 M37.541,17.883v-5.831l5.822,5.831H37.541z"/>
</svg>
