<?xml version="1.0" encoding="utf-8"?>
<!-- Generator: Adobe Illustrator 16.0.0, SVG Export Plug-In . SVG Version: 6.00 Build 0)  -->
<!DOCTYPE svg PUBLIC "-//W3C//DTD SVG 1.1//EN" "http://www.w3.org/Graphics/SVG/1.1/DTD/svg11.dtd">
<svg version="1.1" id="Layer_1" xmlns="http://www.w3.org/2000/svg" xmlns:xlink="http://www.w3.org/1999/xlink" x="0px" y="0px"
	 width="25px" height="25px" viewBox="-4.829 -6.912 25 25" enable-background="new -4.829 -6.912 25 25" xml:space="preserve">
<g id="employees_1_" transform="translate(0 -65.862)">
	<path id="Path_1051" fill="#FFFFFF" d="M3.188,71.069c2.029,0,3.673-1.645,3.673-3.673c0-2.029-1.644-3.673-3.673-3.673
		s-3.673,1.644-3.673,3.673l0,0C-0.484,69.423,1.16,71.066,3.188,71.069z M3.188,65.035c1.303,0,2.361,1.057,2.361,2.361
		c0,1.303-1.058,2.361-2.361,2.361c-1.304,0-2.36-1.058-2.36-2.361C0.828,66.092,1.884,65.036,3.188,65.035z"/>
	<path id="Path_1052" fill="#FFFFFF" d="M12.155,71.069c2.028,0,3.674-1.645,3.674-3.673c0-2.029-1.646-3.673-3.674-3.673
		s-3.673,1.644-3.673,3.673C8.484,69.423,10.127,71.066,12.155,71.069z M12.155,65.035c1.305,0,2.36,1.057,2.36,2.361
		c0,1.303-1.056,2.361-2.36,2.361c-1.303,0-2.36-1.058-2.36-2.361C9.797,66.092,10.853,65.036,12.155,65.035z"/>
	<path id="Path_1053" fill="#FFFFFF" d="M12.155,72.395c-1.701,0.003-3.326,0.71-4.485,1.955c-2.301-2.476-6.175-2.618-8.652-0.315
		c-1.247,1.158-1.955,2.784-1.955,4.486v0.656h21.218v-0.656C18.277,75.139,15.537,72.401,12.155,72.395z M-1.581,77.865
		c0.297-2.137,1.976-3.815,4.112-4.112v3.016h1.308v-3.018c2.136,0.298,3.814,1.977,4.112,4.111L-1.581,77.865z M9.276,77.865
		c-0.092-0.862-0.366-1.693-0.805-2.44c0.767-0.913,1.846-1.509,3.027-1.672v3.016h1.313v-3.018
		c2.136,0.298,3.814,1.977,4.111,4.111L9.276,77.865z"/>
</g>
</svg>
