<?xml version="1.0" encoding="utf-8"?>
<!-- Generator: Adobe Illustrator 19.0.0, SVG Export Plug-In . SVG Version: 6.00 Build 0)  -->
<svg version="1.1" id="dashboard" xmlns="http://www.w3.org/2000/svg" xmlns:xlink="http://www.w3.org/1999/xlink" x="0px" y="0px"
	 viewBox="-487 488 25 25" style="enable-background:new -487 488 25 25;" xml:space="preserve">
<style type="text/css">
	.st0{fill:#FFFFFF;}
</style>
<g>
	<path class="st0" d="M-474.5,508.9c2.9,0.1,5.7-2,6.7-4.7c1-3,0.1-6.1-2.4-8c-0.2-0.2-0.5-0.3-0.7-0.5c-0.5-0.4-0.7-0.8-0.4-1.3
		c0.3-0.4,0.7-0.5,1.3-0.2c1.6,1,2.8,2.3,3.6,4.1c2.3,5.3-0.9,11.2-6.6,12.3c-5.1,0.9-10-2.8-10.4-8c-0.3-3.4,1.1-6.1,3.9-8.1
		c0.2-0.1,0.4-0.3,0.6-0.4c0.4-0.2,0.9,0,1.1,0.3c0.2,0.4,0.2,0.9-0.2,1.2c-0.2,0.2-0.4,0.3-0.6,0.4c-2.4,1.7-3.5,4.6-2.9,7.3
		c0.6,2.9,2.9,5.1,5.9,5.6C-475.3,508.9-474.9,508.9-474.5,508.9z"/>
	<path class="st0" d="M-473.6,496c0,1.6,0,3.2,0,4.7c0,0.6-0.4,1-0.9,1c-0.5,0-0.9-0.4-0.9-1c0-3.2,0-6.3,0-9.5c0-0.6,0.3-1,0.9-1
		c0.5,0,0.8,0.3,0.8,0.9C-473.7,492.8-473.7,494.4-473.6,496C-473.6,496-473.6,496-473.6,496z"/>
</g>
</svg>
