<?xml version="1.0" encoding="utf-8"?>
<!-- Generator: Adobe Illustrator 19.0.0, SVG Export Plug-In . SVG Version: 6.00 Build 0)  -->
<svg version="1.1" id="Layer_1" xmlns="http://www.w3.org/2000/svg" xmlns:xlink="http://www.w3.org/1999/xlink" x="0px" y="0px"
	 viewBox="-1.7 -7.9 25 25" style="enable-background:new -1.7 -7.9 25 25;" xml:space="preserve">
<style type="text/css">
	.st0{fill:#043B8B;}
</style>
<path class="st0" d="M10.8-4.9c-5.5,0-10,4-10,9c0,1.7,0.6,3.4,1.6,4.9c0,1.6-0.5,3.2-1.5,4.6c-0.1,0.1-0.1,0.3,0,0.5
	C1,14,1.1,14.1,1.2,14.1h0c1.9-0.3,3.8-0.9,5.5-1.8c1.3,0.5,2.7,0.8,4.1,0.8c5.5,0,10-4,10-9C20.8-0.9,16.3-4.9,10.8-4.9z M6.1,5.4
	c-0.7,0-1.3-0.6-1.3-1.3c0-0.7,0.6-1.3,1.3-1.3c0.7,0,1.3,0.6,1.3,1.3C7.5,4.8,6.9,5.4,6.1,5.4z M10.8,5.4c-0.7,0-1.3-0.6-1.3-1.3
	c0-0.7,0.6-1.3,1.3-1.3c0.7,0,1.3,0.6,1.3,1.3C12.1,4.8,11.5,5.4,10.8,5.4z M15.5,5.4c-0.7,0-1.3-0.6-1.3-1.3c0-0.7,0.6-1.3,1.3-1.3
	c0.7,0,1.3,0.6,1.3,1.3C16.8,4.8,16.2,5.4,15.5,5.4z"/>
</svg>
