<?xml version="1.0" encoding="utf-8"?>
<!-- Generator: Adobe Illustrator 19.0.0, SVG Export Plug-In . SVG Version: 6.00 Build 0)  -->
<svg version="1.1" id="Layer_1" xmlns="http://www.w3.org/2000/svg" xmlns:xlink="http://www.w3.org/1999/xlink" x="0px" y="0px"
	 viewBox="-1.7 -7.9 25 25" style="enable-background:new -1.7 -7.9 25 25;" xml:space="preserve">
<style type="text/css">
	.st0{fill:#FFFFFF;stroke:#FFFFFF;stroke-width:0.5;}
</style>
<g id="chat" transform="translate(0.26 -1.25)">
	<path id="Path_1035" class="st0" d="M5.9,4C5.2,4,4.6,4.6,4.6,5.3s0.6,1.3,1.3,1.3s1.3-0.6,1.3-1.3C7.2,4.6,6.6,4,5.9,4z M5.9,6
		C5.5,6,5.2,5.7,5.2,5.3c0-0.4,0.3-0.7,0.7-0.7c0.4,0,0.7,0.3,0.7,0.7C6.5,5.7,6.3,6,5.9,6z"/>
	<path id="Path_1036" class="st0" d="M10.5,4C9.8,4,9.2,4.6,9.2,5.3s0.6,1.3,1.3,1.3c0.7,0,1.3-0.6,1.3-1.3C11.9,4.6,11.3,4,10.5,4z
		 M10.5,6c-0.4,0-0.7-0.3-0.7-0.7c0-0.4,0.3-0.7,0.7-0.7c0.4,0,0.7,0.3,0.7,0.7C11.2,5.7,10.9,6,10.5,6z"/>
	<path id="Path_1037" class="st0" d="M15.2,4c-0.7,0-1.3,0.6-1.3,1.3s0.6,1.3,1.3,1.3s1.3-0.6,1.3-1.3C16.5,4.6,15.9,4,15.2,4z
		 M15.2,6c-0.4,0-0.7-0.3-0.7-0.7c0-0.4,0.3-0.7,0.7-0.7c0.4,0,0.7,0.3,0.7,0.7C15.9,5.7,15.6,6,15.2,6z"/>
	<path id="Path_1038" class="st0" d="M10.5-3.7c-5.5,0-10,4-10,9c0,1.7,0.6,3.4,1.6,4.9c0,1.6-0.5,3.2-1.5,4.6
		c-0.1,0.1-0.1,0.3,0,0.5c0.1,0.1,0.1,0.1,0.2,0.1h0c1.9-0.3,3.8-0.9,5.5-1.8c1.3,0.5,2.7,0.8,4.1,0.8c5.5,0,10-4,10-9
		S16-3.7,10.5-3.7z M10.5,13.6c-1.1,0-2.3-0.2-3.4-0.6c1.4-0.8,1.4-0.9,1.4-1.1c0-0.1-0.1-0.2-0.2-0.3c-0.2-0.1-0.3,0-0.4,0.1
		c-0.2,0.1-1,0.6-1.7,1.1l0,0c-1.4,0.8-3,1.3-4.6,1.6c0.7-1.4,1.1-2.9,1.1-4.4c0-0.1,0-0.2-0.1-0.2C1.8,8.6,1.2,7,1.2,5.3
		C1.2,0.7,5.4-3,10.5-3s9.3,3.7,9.3,8.3S15.7,13.6,10.5,13.6z"/>
</g>
</svg>
