<?xml version="1.0" encoding="utf-8"?>
<!-- Generator: Adobe Illustrator 19.0.0, SVG Export Plug-In . SVG Version: 6.00 Build 0)  -->
<svg version="1.1" id="Layer_1" xmlns="http://www.w3.org/2000/svg" xmlns:xlink="http://www.w3.org/1999/xlink" x="0px" y="0px"
	 viewBox="-293 384 25 25" style="enable-background:new -293 384 25 25;" xml:space="preserve">
<style type="text/css">
	.st0{fill:none;stroke:#FFFFFF;stroke-miterlimit:10;}
	.st1{fill:#FFFFFF;}
</style>
<path class="st0" d="M-270.8,405.1l-3.5-3.5c3.2-3.9,2.7-9.6-1.2-12.9c-3.9-3.2-9.6-2.7-12.9,1.2c-3.2,3.9-2.7,9.6,1.2,12.9
	c3.4,2.8,8.3,2.8,11.7,0l3.5,3.5c0.3,0.3,0.9,0.3,1.2,0C-270.5,405.9-270.5,405.4-270.8,405.1L-270.8,405.1z"/>
<path class="st1" d="M-285.2,399.6c0-2.1,1.7-3.9,3.9-3.9c-1.4,0-2.5-1.1-2.5-2.5c0-1.4,1.1-2.5,2.5-2.5s2.5,1.1,2.5,2.5
	c0,1.4-1.1,2.5-2.5,2.5c0,0,0,0,0,0c2.1,0,3.9,1.7,3.9,3.9l0,0H-285.2z"/>
</svg>
