<?xml version="1.0" encoding="utf-8"?>
<!-- Generator: Adobe Illustrator 16.0.0, SVG Export Plug-In . SVG Version: 6.00 Build 0)  -->
<!DOCTYPE svg PUBLIC "-//W3C//DTD SVG 1.1//EN" "http://www.w3.org/Graphics/SVG/1.1/DTD/svg11.dtd">
<svg version="1.1" id="Layer_1" xmlns="http://www.w3.org/2000/svg" xmlns:xlink="http://www.w3.org/1999/xlink" x="0px" y="0px"
	 width="25px" height="25px" viewBox="-5 -5 25 25" enable-background="new -5 -5 25 25" xml:space="preserve">
<path id="XMLID_92_" fill="#043B8B" d="M17.216,16.043l-3.532-3.534c3.229-3.876,2.704-9.638-1.174-12.867
	C8.633-3.587,2.872-3.062-0.357,0.816c-3.229,3.877-2.704,9.637,1.174,12.868c3.387,2.82,8.307,2.82,11.693,0l3.532,3.531
	c0.324,0.324,0.85,0.324,1.174,0S17.541,16.367,17.216,16.043L17.216,16.043z M2.802,10.545c0-2.138,1.732-3.871,3.871-3.872
	c-1.375,0-2.488-1.115-2.488-2.49c0.001-1.375,1.116-2.488,2.49-2.488c1.374,0,2.487,1.115,2.487,2.489
	c0,1.375-1.114,2.489-2.489,2.489c0,0,0,0-0.001,0c2.138,0,3.872,1.734,3.872,3.872l0,0H2.802z"/>
</svg>
