<?xml version="1.0" encoding="utf-8"?>
<!-- Generator: Adobe Illustrator 19.0.0, SVG Export Plug-In . SVG Version: 6.00 Build 0)  -->
<svg version="1.1" id="Layer_1" xmlns="http://www.w3.org/2000/svg" xmlns:xlink="http://www.w3.org/1999/xlink" x="0px" y="0px"
	 viewBox="0 0 25 25" style="enable-background:new 0 0 25 25;" xml:space="preserve">
<style type="text/css">
	.st0{fill:#043B8B;}
	.st1{fill:#1E71D9;}
</style>
<g id="XMLID_23_">
	<path id="XMLID_68_" class="st0" d="M19.5,2.5h-17v18c0,1.2,0.9,2.1,2.1,2.1h16.5V4.4h-1.6L19.5,2.5z"/>
	<path id="XMLID_67_" class="st1" d="M19.5,4.4h3.1l0,0V21c0,0.9-0.7,1.5-1.5,1.5l0,0c-0.9,0-1.5-0.7-1.5-1.5l0,0V4.4L19.5,4.4z"/>
	<g id="XMLID_24_">
		<g id="XMLID_77_">
			<path id="XMLID_66_" class="st1" d="M4.4,4.2h0.3l0.6,0.9V4.2h0.3v1.3H5.3L4.7,4.7v0.9H4.4V4.2z"/>
			<path id="XMLID_65_" class="st1" d="M6.1,4.5v0.3h0.7V5H6.1v0.3h0.7v0.3h-1V4.2h1v0.3L6.1,4.5z"/>
			<path id="XMLID_64_" class="st1" d="M7,4.2h0.3l0.2,0.9l0.3-0.9h0.3l0.3,0.9l0.2-0.9H9L8.6,5.5H8.3L8,4.6L7.7,5.5H7.4L7,4.2z"/>
			<path id="XMLID_63_" class="st1" d="M9.1,5.4l0.2-0.2c0.1,0.1,0.3,0.2,0.4,0.2c0.1,0,0.2-0.1,0.2-0.1c0-0.1-0.1-0.1-0.3-0.2
				C9.3,5,9.1,4.9,9.1,4.6c0-0.2,0.2-0.4,0.5-0.4c0.2,0,0.4,0.1,0.5,0.2L10,4.6C9.9,4.5,9.8,4.4,9.6,4.4c-0.1,0-0.2,0.1-0.2,0.1
				c0,0.1,0.1,0.1,0.3,0.2c0.3,0.1,0.5,0.1,0.5,0.4c0,0.3-0.2,0.4-0.5,0.4C9.4,5.6,9.2,5.5,9.1,5.4L9.1,5.4z"/>
			<path id="XMLID_62_" class="st1" d="M11.3,5.3v0.3h-0.9V4.2h0.3v1.1L11.3,5.3z"/>
			<path id="XMLID_61_" class="st1" d="M11.8,4.5v0.3h0.7V5h-0.7v0.3h0.7v0.3h-1V4.2h1v0.3L11.8,4.5z"/>
			<path id="XMLID_60_" class="st1" d="M13.1,4.5h-0.4V4.2h1.1v0.3h-0.4v1.1h-0.3L13.1,4.5z"/>
			<path id="XMLID_59_" class="st1" d="M14.3,4.5h-0.4V4.2H15v0.3h-0.4v1.1h-0.3L14.3,4.5z"/>
			<path id="XMLID_58_" class="st1" d="M15.5,4.5v0.3h0.7V5h-0.7v0.3h0.7v0.3h-1V4.2h1v0.3L15.5,4.5z"/>
			<path id="XMLID_78_" class="st1" d="M17.2,5.5l-0.3-0.4h-0.2v0.4h-0.3V4.2H17c0.3,0,0.5,0.2,0.5,0.4c0,0,0,0,0,0
				c0,0.2-0.1,0.4-0.3,0.4l0.3,0.5L17.2,5.5z M16.7,4.9H17c0.1,0,0.2-0.1,0.2-0.2c0-0.1-0.1-0.2-0.2-0.2h-0.3V4.9z"/>
		</g>
		<path id="XMLID_37_" class="st1" d="M4,7.1h7.2v4.1H4V7.1z"/>
		<g id="XMLID_25_">
			<path id="XMLID_36_" class="st1" d="M17.9,8.2h-4.5c-0.2,0-0.3-0.1-0.3-0.3c0-0.2,0.1-0.3,0.3-0.3h4.5c0.2,0,0.3,0.1,0.3,0.3
				C18.2,8,18,8.2,17.9,8.2L17.9,8.2z"/>
			<path id="XMLID_35_" class="st1" d="M17.9,9.7h-4.5c-0.2,0-0.3-0.1-0.3-0.3c0-0.2,0.1-0.3,0.3-0.3h4.5c0.2,0,0.3,0.1,0.3,0.3
				C18.2,9.6,18,9.7,17.9,9.7L17.9,9.7z"/>
			<path id="XMLID_34_" class="st1" d="M17.9,11.3h-4.5c-0.2,0-0.3-0.1-0.3-0.3c0-0.2,0.1-0.3,0.3-0.3h4.5c0.2,0,0.3,0.1,0.3,0.3
				C18.2,11.2,18,11.3,17.9,11.3L17.9,11.3z"/>
			<path id="XMLID_33_" class="st1" d="M17.9,12.9H4c-0.2,0-0.3-0.1-0.3-0.3c0-0.2,0.1-0.3,0.3-0.3h13.9c0.2,0,0.3,0.1,0.3,0.3
				C18.2,12.7,18,12.9,17.9,12.9L17.9,12.9z"/>
			<path id="XMLID_32_" class="st1" d="M17.9,14.4H4c-0.2,0-0.3-0.1-0.3-0.3c0-0.2,0.1-0.3,0.3-0.3h13.9c0.2,0,0.3,0.1,0.3,0.3
				C18.2,14.3,18,14.4,17.9,14.4L17.9,14.4z"/>
			<path id="XMLID_31_" class="st1" d="M17.9,16H4c-0.2,0-0.3-0.1-0.3-0.3c0-0.2,0.1-0.3,0.3-0.3h13.9c0.2,0,0.3,0.1,0.3,0.3
				C18.2,15.9,18,16,17.9,16L17.9,16z"/>
			<path id="XMLID_29_" class="st1" d="M17.9,17.6H4c-0.2,0-0.3-0.1-0.3-0.3C3.7,17.1,3.9,17,4,17h13.9c0.2,0,0.3,0.1,0.3,0.3
				C18.2,17.4,18,17.6,17.9,17.6L17.9,17.6z"/>
			<path id="XMLID_28_" class="st1" d="M17.9,19.1H4c-0.2,0-0.3-0.1-0.3-0.3s0.1-0.3,0.3-0.3h13.9c0.2,0,0.3,0.1,0.3,0.3
				S18,19.1,17.9,19.1L17.9,19.1z"/>
			<path id="XMLID_26_" class="st1" d="M17.9,20.7H4c-0.2,0-0.3-0.1-0.3-0.3s0.1-0.3,0.3-0.3h13.9c0.2,0,0.3,0.1,0.3,0.3
				S18,20.7,17.9,20.7L17.9,20.7z"/>
		</g>
	</g>
</g>
</svg>
