<?xml version="1.0" encoding="utf-8"?>
<!-- Generator: Adobe Illustrator 19.0.0, SVG Export Plug-In . SVG Version: 6.00 Build 0)  -->
<svg version="1.1" id="Layer_1" xmlns="http://www.w3.org/2000/svg" xmlns:xlink="http://www.w3.org/1999/xlink" x="0px" y="0px"
	 viewBox="0 0 25 25" style="enable-background:new 0 0 25 25;" xml:space="preserve">
<style type="text/css">
	.st0{fill:none;stroke:#FFFFFF;stroke-width:0.5;stroke-miterlimit:10;}
	.st1{fill:#FFFFFF;}
</style>
<g id="XMLID_64_">
	<path id="XMLID_62_" class="st0" d="M18.8,3.4H3.4v16.3c0,1.1,0.9,1.9,1.9,1.9h15V5.1h-1.5L18.8,3.4z"/>
	<path id="XMLID_61_" class="st0" d="M18.8,5.1h2.8l0,0v15.1c0,0.8-0.6,1.4-1.4,1.4l0,0c-0.8,0-1.4-0.6-1.4-1.4l0,0V5.1L18.8,5.1z"
		/>
	<g id="XMLID_76_">
		<path id="XMLID_60_" class="st1" d="M5.1,5h0.3L6,5.8V5h0.3v1.2H6L5.4,5.4v0.8H5.1V5z"/>
		<path id="XMLID_59_" class="st1" d="M6.7,5.2v0.2h0.6v0.2H6.7v0.3h0.7v0.2H6.5V5h0.9v0.2H6.7z"/>
		<path id="XMLID_58_" class="st1" d="M7.5,5h0.3L8,5.8L8.3,5h0.3l0.3,0.8L9,5h0.3L8.9,6.2H8.7L8.4,5.4L8.1,6.2H7.9L7.5,5z"/>
		<path id="XMLID_57_" class="st1" d="M9.4,6l0.1-0.2C9.6,5.9,9.8,6,9.9,6c0.1,0,0.2-0.1,0.2-0.1c0-0.1-0.1-0.1-0.3-0.2
			C9.6,5.6,9.4,5.6,9.4,5.3C9.4,5.1,9.6,5,9.9,5c0.2,0,0.3,0.1,0.5,0.2l-0.1,0.2C10.1,5.2,10,5.2,9.9,5.2c-0.1,0-0.2,0.1-0.2,0.1
			c0,0.1,0.1,0.1,0.3,0.2c0.3,0.1,0.4,0.1,0.4,0.4c0,0.2-0.2,0.4-0.5,0.4C9.7,6.2,9.5,6.1,9.4,6L9.4,6z"/>
		<path id="XMLID_56_" class="st1" d="M11.4,6v0.2h-0.9V5h0.3v1L11.4,6z"/>
		<path id="XMLID_37_" class="st1" d="M11.8,5.2v0.2h0.6v0.2h-0.6v0.3h0.7v0.2h-0.9V5h0.9v0.2H11.8z"/>
		<path id="XMLID_36_" class="st1" d="M13,5.2h-0.4V5h1v0.2h-0.4v1H13L13,5.2z"/>
		<path id="XMLID_35_" class="st1" d="M14.1,5.2h-0.4V5h1v0.2h-0.4v1h-0.3L14.1,5.2z"/>
		<path id="XMLID_34_" class="st1" d="M15.2,5.2v0.2h0.6v0.2h-0.6v0.3h0.7v0.2h-0.9V5h0.9v0.2H15.2z"/>
		<path id="XMLID_77_" class="st1" d="M16.8,6.2l-0.3-0.4h-0.2v0.4h-0.3V5h0.5C16.8,5,17,5.1,17,5.4c0,0,0,0,0,0
			c0,0.2-0.1,0.3-0.3,0.4l0.3,0.4L16.8,6.2z M16.3,5.6h0.3c0.1,0,0.2-0.1,0.2-0.2s-0.1-0.2-0.2-0.2h-0.3V5.6z"/>
	</g>
	<path id="XMLID_31_" class="st1" d="M4.8,7.6h6.6v3.7H4.8V7.6z"/>
	<g id="XMLID_65_">
		<path id="XMLID_30_" class="st1" d="M17.4,8.6h-4c-0.2,0-0.3-0.1-0.3-0.3S13.2,8,13.3,8h4c0.2,0,0.3,0.1,0.3,0.3
			S17.5,8.6,17.4,8.6L17.4,8.6z"/>
		<path id="XMLID_29_" class="st1" d="M17.4,10h-4c-0.2,0-0.3-0.1-0.3-0.3s0.1-0.3,0.3-0.3h4c0.2,0,0.3,0.1,0.3,0.3S17.5,10,17.4,10
			L17.4,10z"/>
		<path id="XMLID_28_" class="st1" d="M17.4,11.4h-4c-0.2,0-0.3-0.1-0.3-0.3s0.1-0.3,0.3-0.3h4c0.2,0,0.3,0.1,0.3,0.3
			S17.5,11.4,17.4,11.4L17.4,11.4z"/>
		<path id="XMLID_27_" class="st1" d="M17.4,12.8H4.8c-0.2,0-0.3-0.1-0.3-0.3s0.1-0.3,0.3-0.3h12.6c0.2,0,0.3,0.1,0.3,0.3
			S17.5,12.8,17.4,12.8L17.4,12.8z"/>
		<path id="XMLID_26_" class="st1" d="M17.4,14.3H4.8c-0.2,0-0.3-0.1-0.3-0.3s0.1-0.3,0.3-0.3h12.6c0.2,0,0.3,0.1,0.3,0.3
			S17.5,14.3,17.4,14.3L17.4,14.3z"/>
		<path id="XMLID_25_" class="st1" d="M17.4,15.7H4.8c-0.2,0-0.3-0.1-0.3-0.3c0-0.2,0.1-0.3,0.3-0.3h12.6c0.2,0,0.3,0.1,0.3,0.3
			C17.7,15.6,17.5,15.7,17.4,15.7L17.4,15.7z"/>
		<path id="XMLID_24_" class="st1" d="M17.4,17.1H4.8c-0.2,0-0.3-0.1-0.3-0.3s0.1-0.3,0.3-0.3h12.6c0.2,0,0.3,0.1,0.3,0.3
			S17.5,17.1,17.4,17.1L17.4,17.1z"/>
		<path id="XMLID_23_" class="st1" d="M17.4,18.5H4.8c-0.2,0-0.3-0.1-0.3-0.3S4.6,18,4.8,18h12.6c0.2,0,0.3,0.1,0.3,0.3
			S17.5,18.5,17.4,18.5L17.4,18.5z"/>
		<path id="XMLID_20_" class="st1" d="M17.4,20H4.8c-0.2,0-0.3-0.1-0.3-0.3s0.1-0.3,0.3-0.3h12.6c0.2,0,0.3,0.1,0.3,0.3
			S17.5,20,17.4,20L17.4,20z"/>
	</g>
</g>
</svg>
