<svg id="pdf" xmlns="http://www.w3.org/2000/svg" width="17.842" height="23.236" viewBox="0 0 17.842 23.236">
  <path id="Path_984" data-name="Path 984" d="M19.149,0H7.107C6.772,0,6.5.272,6.5.8V22.821a.625.625,0,0,0,.607.415H23.735a.625.625,0,0,0,.607-.415V5.385c0-.289-.039-.382-.107-.45L19.407.107A.367.367,0,0,0,19.149,0Z" transform="translate(-6.5)" fill="#e9e9e0"/>
  <path id="Path_985" data-name="Path 985" d="M37.5.151V5.068h4.917Z" transform="translate(-24.637 -0.088)" fill="#d9d7ca"/>
  <path id="Path_986" data-name="Path 986" d="M18.288,17.869h0a.666.666,0,0,1-.4-.135.994.994,0,0,1-.463-.93c.076-.676.911-1.383,2.483-2.1a27.853,27.853,0,0,0,1.572-4.461,4.1,4.1,0,0,1-.523-2.756.8.8,0,0,1,.471-.5,2.037,2.037,0,0,1,.422-.071c.209,0,.393.269.523.435s.4.487-.155,2.822A13.259,13.259,0,0,0,24.328,13.3a8.073,8.073,0,0,1,1.393-.149c.65,0,1.044.151,1.2.463a.84.84,0,0,1-.162.9,1.1,1.1,0,0,1-.921.494,2.759,2.759,0,0,1-1.747-.948,19.881,19.881,0,0,0-3.663,1.171A11.773,11.773,0,0,1,19.443,17C19.018,17.591,18.651,17.869,18.288,17.869Zm1.1-2.127c-.887.5-1.248.908-1.274,1.139,0,.038-.015.139.179.287C18.359,17.148,18.72,16.983,19.392,15.742ZM25.051,13.9c.338.26.421.392.642.392a.626.626,0,0,0,.5-.183.657.657,0,0,0,.1-.172c-.051-.027-.119-.082-.488-.082A6.067,6.067,0,0,0,25.051,13.9Zm-3.1-2.731a29.58,29.58,0,0,1-1.11,3.139,20.733,20.733,0,0,1,2.7-.838A14.2,14.2,0,0,1,21.951,11.168ZM21.7,7.657a1,1,0,0,0,.04,1.334C22.133,8.113,21.717,7.651,21.7,7.657Z" transform="translate(-12.888 -4.042)" fill="#cc4b4c"/>
  <path id="Path_987" data-name="Path 987" d="M23.735,46.054H7.107a.607.607,0,0,1-.607-.607V39H24.342v6.447A.607.607,0,0,1,23.735,46.054Z" transform="translate(-6.5 -22.818)" fill="#cc4b4c"/>
  <g id="Group_1965" data-name="Group 1965" transform="translate(3.836 17.811)">
    <path id="Path_988" data-name="Path 988" d="M16.425,47.1h-.681V42.924h1.2a1.688,1.688,0,0,1,.527.085,1.434,1.434,0,0,1,.468.255,1.332,1.332,0,0,1,.335.411,1.139,1.139,0,0,1,.128.542,1.482,1.482,0,0,1-.108.576,1.2,1.2,0,0,1-.3.434,1.355,1.355,0,0,1-.465.272,1.79,1.79,0,0,1-.6.1h-.5V47.1Zm0-3.665V45.1h.624a.742.742,0,0,0,.247-.043.622.622,0,0,0,.224-.139.68.68,0,0,0,.164-.269,1.276,1.276,0,0,0,.062-.428,1.158,1.158,0,0,0-.028-.235.679.679,0,0,0-.116-.255.688.688,0,0,0-.247-.2.917.917,0,0,0-.42-.082h-.51Z" transform="translate(-15.744 -42.924)" fill="#fff"/>
    <path id="Path_989" data-name="Path 989" d="M27.459,44.9a3.071,3.071,0,0,1-.111.882,2.193,2.193,0,0,1-.281.613,1.443,1.443,0,0,1-.383.389,1.921,1.921,0,0,1-.411.213,1.7,1.7,0,0,1-.363.091,2.418,2.418,0,0,1-.244.019H24.084V42.924h1.259a2.393,2.393,0,0,1,.927.167,1.925,1.925,0,0,1,.664.445,1.827,1.827,0,0,1,.394.632A2.094,2.094,0,0,1,27.459,44.9ZM25.44,46.606a1.127,1.127,0,0,0,1-.442,2.246,2.246,0,0,0,.306-1.282,2.172,2.172,0,0,0-.062-.516,1.1,1.1,0,0,0-.241-.462,1.272,1.272,0,0,0-.485-.335,2.089,2.089,0,0,0-.794-.128h-.4v3.166h.675Z" transform="translate(-20.623 -42.924)" fill="#fff"/>
    <path id="Path_990" data-name="Path 990" d="M35.29,43.44v1.316h1.747v.465H35.29V47.1H34.6V42.924h2.615v.516Z" transform="translate(-26.775 -42.924)" fill="#fff"/>
  </g>
</svg>
