<?xml version="1.0" encoding="utf-8"?>
<!-- Generator: Adobe Illustrator 19.0.0, SVG Export Plug-In . SVG Version: 6.00 Build 0)  -->
<svg version="1.1" id="Layer_1" xmlns="http://www.w3.org/2000/svg" xmlns:xlink="http://www.w3.org/1999/xlink" x="0px" y="0px"
	 viewBox="-487 488 25 25" style="enable-background:new -487 488 25 25;" xml:space="preserve">
<style type="text/css">
	.st0{fill:none;stroke:#FFFFFF;stroke-miterlimit:10;}
</style>
<g id="XMLID_68_">
	<path id="XMLID_69_" class="st0" d="M-468,493.2c-1.3-2.3-3.7-3.7-6.4-3.8c-0.1,0-0.2,0-0.3,0c-2.6,0.1-5,1.5-6.3,3.8
		c-1.4,2.4-1.4,5.2-0.1,7.6l5.5,10l0,0c0.2,0.4,0.7,0.7,1.2,0.7s0.9-0.3,1.2-0.7l0,0l5.5-10C-466.6,498.4-466.6,495.6-468,493.2
		L-468,493.2z M-474.5,499.5c-1.7,0-3.1-1.4-3.1-3.1c0-1.7,1.4-3.1,3.1-3.1s3.1,1.4,3.1,3.1C-471.4,498.1-472.8,499.5-474.5,499.5z"
		/>
</g>
</svg>
