<?xml version="1.0" encoding="utf-8"?>
<!-- Generator: Adobe Illustrator 19.0.0, SVG Export Plug-In . SVG Version: 6.00 Build 0)  -->
<svg version="1.1" id="Layer_1" xmlns="http://www.w3.org/2000/svg" xmlns:xlink="http://www.w3.org/1999/xlink" x="0px" y="0px"
	 viewBox="0 0 25 25" style="enable-background:new 0 0 25 25;" xml:space="preserve">
<style type="text/css">
	.st0{fill:#043B8B;}
</style>
<g id="surface1">
	<path id="XMLID_30_" class="st0" d="M12.5,8.5c-2.2,0-4,1.8-4,4c0,2.2,1.8,4,4,4c2.2,0,4-1.8,4-4C16.5,10.3,14.7,8.5,12.5,8.5z
		 M14.9,11.7L12,14.6c-0.1,0.1-0.3,0.2-0.4,0.2c-0.2,0-0.3-0.1-0.4-0.2L10,13.5c-0.2-0.2-0.2-0.6,0-0.9c0.2-0.2,0.6-0.2,0.9,0
		l0.7,0.7l2.4-2.4c0.2-0.2,0.6-0.2,0.9,0C15.1,11.1,15.1,11.5,14.9,11.7z"/>
	<path id="XMLID_27_" class="st0" d="M21.4,7.7L21.4,7.7c0-0.2,0-0.4,0-0.7c0-1.2-0.9-2.1-2.1-2.2c-2.4-0.1-4.3-0.9-5.9-2.5l0,0
		c-0.5-0.5-1.3-0.5-1.8,0l0,0C10,3.9,8.1,4.7,5.7,4.9C4.6,4.9,3.6,5.9,3.6,7c0,0.2,0,0.4,0,0.7l0,0c0,2.5-0.1,5.5,0.9,8.3
		C5.1,17.5,5.9,18.9,7,20c1.3,1.2,2.9,2.2,5,2.9c0.1,0,0.1,0,0.2,0.1c0.1,0,0.2,0,0.3,0s0.2,0,0.3,0c0.1,0,0.1,0,0.2-0.1
		c2-0.7,3.7-1.7,5-2.9c1.1-1.1,2-2.4,2.5-3.9C21.5,13.2,21.5,10.2,21.4,7.7z M12.5,17.7c-2.9,0-5.2-2.3-5.2-5.2s2.3-5.2,5.2-5.2
		c2.9,0,5.2,2.3,5.2,5.2S15.4,17.7,12.5,17.7z"/>
</g>
</svg>
