<?xml version="1.0" encoding="utf-8"?>
<!-- Generator: Adobe Illustrator 19.0.0, SVG Export Plug-In . SVG Version: 6.00 Build 0)  -->
<svg version="1.1" id="Layer_1" xmlns="http://www.w3.org/2000/svg" xmlns:xlink="http://www.w3.org/1999/xlink" x="0px" y="0px"
	 viewBox="0 0 25 25" style="enable-background:new 0 0 25 25;" xml:space="preserve">
<style type="text/css">
	.st0{fill:#FFFFFF;}
	.st1{fill:none;stroke:#FFFFFF;stroke-miterlimit:10;}
</style>
<g id="surface1_1_">
	<path id="XMLID_29_" class="st0" d="M14.7,11.7l-2.9,2.9c-0.1,0.1-0.3,0.2-0.4,0.2c-0.2,0-0.3-0.1-0.4-0.2l-1.1-1.1
		c-0.2-0.2-0.2-0.6,0-0.9c0.2-0.2,0.6-0.2,0.9,0l0.7,0.7l2.5-2.5c0.2-0.2,0.6-0.2,0.9,0C14.9,11.1,14.9,11.5,14.7,11.7z"/>
	<path id="XMLID_26_" class="st1" d="M21.4,7.6L21.4,7.6c0-0.2,0-0.4,0-0.7c0-1.2-1-2.2-2.1-2.2c-2.5-0.1-4.4-0.9-6-2.5l0,0
		c-0.5-0.5-1.3-0.5-1.9,0l0,0c-1.6,1.6-3.5,2.4-6,2.5c-1.2,0.1-2.1,1-2.1,2.2c0,0.2,0,0.5,0,0.7l0,0c0,2.5-0.1,5.6,0.9,8.5
		c0.6,1.6,1.4,2.9,2.6,4c1.3,1.3,3,2.3,5.1,3c0.1,0,0.1,0,0.2,0.1c0.1,0,0.2,0,0.3,0s0.2,0,0.3,0c0.1,0,0.1,0,0.2-0.1
		c2.1-0.7,3.8-1.7,5-3c1.1-1.1,2-2.5,2.6-4C21.5,13.2,21.4,10.1,21.4,7.6z M12.3,17.8c-2.9,0-5.3-2.4-5.3-5.3s2.4-5.3,5.3-5.3
		c2.9,0,5.3,2.4,5.3,5.3S15.2,17.8,12.3,17.8z"/>
</g>
</svg>
