<?xml version="1.0" encoding="utf-8"?>
<!-- Generator: Adobe Illustrator 16.0.0, SVG Export Plug-In . SVG Version: 6.00 Build 0)  -->
<!DOCTYPE svg PUBLIC "-//W3C//DTD SVG 1.1//EN" "http://www.w3.org/Graphics/SVG/1.1/DTD/svg11.dtd">
<svg version="1.1" id="bell_4_" xmlns="http://www.w3.org/2000/svg" xmlns:xlink="http://www.w3.org/1999/xlink" x="0px" y="0px"
	 width="25px" height="25px" viewBox="-5.775 -5.164 25 25" enable-background="new -5.775 -5.164 25 25" xml:space="preserve">
<g>
	<path id="Path_1060" fill="#043B8B" d="M15.979,6.206c-0.373-0.001-0.675-0.303-0.676-0.677c0.007-2.575-1.018-5.047-2.844-6.863
		c-0.26-0.27-0.251-0.699,0.021-0.958c0.263-0.252,0.677-0.252,0.939,0c2.082,2.072,3.249,4.891,3.239,7.829
		c-0.002,0.373-0.305,0.675-0.677,0.676L15.979,6.206z"/>
	<path id="Path_1061" fill="#043B8B" d="M-2.531,6.208c-0.374-0.001-0.677-0.304-0.677-0.679c-0.01-2.938,1.156-5.756,3.239-7.828
		c0.26-0.27,0.689-0.278,0.958-0.019c0.271,0.26,0.278,0.689,0.019,0.958C1.002-1.352,0.996-1.346,0.989-1.34
		c-1.828,1.817-2.852,4.292-2.843,6.869C-1.854,5.903-2.156,6.205-2.53,6.206L-2.531,6.208z"/>
	<path id="Path_1062" fill="#043B8B" d="M6.724,18.172c-1.867-0.006-3.379-1.518-3.385-3.386c0-0.374,0.303-0.677,0.677-0.677
		c0.374,0,0.677,0.303,0.677,0.677c0,1.122,0.909,2.032,2.032,2.032c1.122,0,2.03-0.91,2.03-2.032c0-0.374,0.304-0.677,0.679-0.677
		c0.373,0,0.678,0.303,0.678,0.677C10.104,16.654,8.591,18.166,6.724,18.172z"/>
	<path id="Path_1063" fill="#043B8B" d="M14.173,15.455h-14.9c-0.874,0.005-1.584-0.701-1.587-1.573
		c-0.001-0.465,0.2-0.906,0.553-1.207c1.368-1.151,2.157-2.847,2.157-4.634V5.53c0-3.491,2.83-6.321,6.32-6.321
		c3.491,0,6.321,2.83,6.321,6.321v2.511c0,1.783,0.785,3.477,2.147,4.626c0.668,0.563,0.753,1.558,0.192,2.226
		C15.077,15.248,14.638,15.454,14.173,15.455z M6.724,0.563C3.982,0.565,1.761,2.788,1.757,5.528v2.511
		c0.003,2.187-0.961,4.262-2.633,5.67c-0.051,0.041-0.082,0.104-0.082,0.173c0.001,0.124,0.102,0.224,0.226,0.225h14.904
		c0.124-0.001,0.226-0.101,0.227-0.225c0-0.066-0.029-0.13-0.079-0.173c-1.669-1.408-2.631-3.479-2.63-5.662V5.536
		C11.692,2.791,9.468,0.564,6.724,0.563z"/>
	<path id="Path_1064" fill="#043B8B" d="M6.724,0.564c-0.374,0-0.676-0.303-0.676-0.676v-2.71C6.047-3.197,6.35-3.5,6.725-3.5
		c0.374,0,0.677,0.303,0.677,0.677v2.709C7.401,0.26,7.098,0.564,6.724,0.564L6.724,0.564z"/>
</g>
</svg>
