<?xml version="1.0" encoding="utf-8"?>
<!-- Generator: Adobe Illustrator 19.0.0, SVG Export Plug-In . SVG Version: 6.00 Build 0)  -->
<svg version="1.1" id="Layer_1" xmlns="http://www.w3.org/2000/svg" xmlns:xlink="http://www.w3.org/1999/xlink" x="0px" y="0px"
	 viewBox="0 0 25 25" style="enable-background:new 0 0 25 25;" xml:space="preserve">
<style type="text/css">
	.st0{fill:#FFFFFF;}
</style>
<g id="XMLID_31_">
	<path id="XMLID_56_" class="st0" d="M23,12.5c0.2,0,0.3-0.1,0.3-0.3v-4c0-0.2-0.1-0.3-0.3-0.3h-0.9l-0.4-2.6c0-0.2-0.2-0.3-0.4-0.3
		l-4.9,0.7h0L2,7.9c0,0-0.3,0.1-0.3,0.3v3.9c0,0.2,0.1,0.3,0.3,0.3c0.8,0,1.4,0.6,1.4,1.4S2.8,15.4,2,15.4c-0.2,0-0.3,0.1-0.3,0.3
		v3.9C1.7,19.8,1.8,20,2,20H23c0.2,0,0.3-0.1,0.3-0.3v-3.9c0-0.2-0.1-0.3-0.3-0.3c-0.8,0-1.4-0.6-1.4-1.4S22.2,12.5,23,12.5L23,12.5
		z M16.2,6.5l0.1,0.9c0,0.2,0.2,0.3,0.3,0.3h0.1c0.2,0,0.3-0.2,0.3-0.4l-0.1-0.9l4.3-0.6l0.3,2.2H6.3L16.2,6.5z M22.7,16v3.3h-4.7
		v-0.9c0-0.2-0.1-0.3-0.3-0.3s-0.3,0.1-0.3,0.3v0.9H2.4V16c1.1-0.2,1.9-1.2,1.7-2.4C4,12.7,3.3,12,2.4,11.9V8.6h14.9v0.9
		c0,0.2,0.1,0.3,0.3,0.3S18,9.6,18,9.4V8.5h4.7v3.3c-1.1,0.2-1.9,1.2-1.7,2.4C21.1,15.2,21.8,15.9,22.7,16z"/>
	<path id="XMLID_27_" class="st0" d="M17.6,14.4c-0.2,0-0.3,0.1-0.3,0.3v2.1c0,0.2,0.1,0.3,0.3,0.3s0.3-0.1,0.3-0.3v-2.1
		C17.9,14.6,17.8,14.4,17.6,14.4L17.6,14.4z"/>
	<path id="XMLID_26_" class="st0" d="M17.6,10.7c-0.2,0-0.3,0.1-0.3,0.3v2.1c0,0.2,0.1,0.3,0.3,0.3s0.3-0.1,0.3-0.3V11
		C17.9,10.9,17.8,10.7,17.6,10.7z"/>
	<path id="XMLID_25_" class="st0" d="M5.8,11.2h3.9c0.2,0,0.3-0.1,0.3-0.3s-0.1-0.3-0.3-0.3H5.8c-0.2,0-0.3,0.1-0.3,0.3
		C5.5,11.1,5.6,11.2,5.8,11.2z"/>
	<path id="XMLID_24_" class="st0" d="M13.7,12.6H5.8c-0.2,0-0.3,0.1-0.3,0.3s0.1,0.3,0.3,0.3h7.9c0.2,0,0.3-0.1,0.3-0.3
		S13.9,12.6,13.7,12.6z"/>
	<path id="XMLID_23_" class="st0" d="M13.7,14.6H5.8c-0.2,0-0.3,0.1-0.3,0.3c0,0.2,0.1,0.3,0.3,0.3h7.9c0.2,0,0.3-0.1,0.3-0.3
		C14.1,14.8,13.9,14.6,13.7,14.6z"/>
	<path id="XMLID_20_" class="st0" d="M13.7,16.7H5.8c-0.2,0-0.3,0.1-0.3,0.3s0.1,0.3,0.3,0.3h7.9c0.2,0,0.3-0.1,0.3-0.3
		S13.9,16.7,13.7,16.7z"/>
</g>
</svg>
