<?xml version="1.0" encoding="utf-8"?>
<!-- Generator: Adobe Illustrator 19.0.0, SVG Export Plug-In . SVG Version: 6.00 Build 0)  -->
<svg version="1.1" id="Layer_1" xmlns="http://www.w3.org/2000/svg" xmlns:xlink="http://www.w3.org/1999/xlink" x="0px" y="0px"
	 viewBox="0 0 25 25" style="enable-background:new 0 0 25 25;" xml:space="preserve">
<style type="text/css">
	.st0{fill:#1E71D9;}
	.st1{fill:#07356D;}
	.st2{fill:#FBDD6B;}
	.st3{fill:#043B8B;}
</style>
<g id="XMLID_24_">
	<path id="XMLID_37_" class="st0" d="M23.8,8.3L0,7.4l16.9-2.5l0.8-0.1l5.5-0.8L23.8,8.3z"/>
	<path id="XMLID_36_" class="st1" d="M17.5,6.6C17.5,6.6,17.5,6.6,17.5,6.6c-0.2,0-0.4-0.1-0.4-0.3l-0.2-1.4l0.8-0.1l0.2,1.4
		C17.9,6.4,17.7,6.6,17.5,6.6L17.5,6.6z"/>
	<path id="XMLID_35_" class="st2" d="M23.6,12.7c-0.8,0.8-0.8,2.2,0,3c0.4,0.4,0.9,0.6,1.5,0.6v4.7H0v-4.7c1.2,0,2.1-0.9,2.1-2.1
		c0-1.2-0.9-2.1-2.1-2.1c0,0,0,0,0,0V7.4h25.1v4.7C24.5,12.1,24,12.3,23.6,12.7L23.6,12.7z"/>
	<path id="XMLID_34_" class="st3" d="M23.6,12.7c-0.8,0.8-0.8,2.2,0,3c0.4,0.4,0.9,0.6,1.5,0.6v4.7H0v-4.7c1.2,0,2.1-0.9,2.1-2.1
		c0-1.2-0.9-2.1-2.1-2.1c0,0,0,0,0,0V7.4h25.1v4.7C24.5,12.1,24,12.3,23.6,12.7L23.6,12.7z"/>
	<g id="XMLID_58_">
		<path id="XMLID_33_" class="st0" d="M19,7.4v1.4c0,0.2-0.2,0.4-0.4,0.4c-0.2,0-0.4-0.2-0.4-0.4l0,0V7.4H19z"/>
		<path id="XMLID_64_" class="st0" d="M18.7,14.8c-0.2,0-0.4,0.2-0.4,0.4c0,0,0,0,0,0v2.5c0,0.2,0.2,0.4,0.4,0.4
			c0.2,0,0.4-0.2,0.4-0.4v-2.5C19,15,18.9,14.8,18.7,14.8z M18.7,10.4c-0.2,0-0.4,0.2-0.4,0.4c0,0,0,0,0,0v2.5
			c0,0.2,0.2,0.4,0.4,0.4c0.2,0,0.4-0.2,0.4-0.4v-2.5C19,10.5,18.9,10.4,18.7,10.4L18.7,10.4z"/>
		<path id="XMLID_30_" class="st0" d="M19,19.6v1.4h-0.8v-1.4c0-0.2,0.2-0.4,0.4-0.4C18.9,19.3,19,19.4,19,19.6z"/>
		<path id="XMLID_29_" class="st0" d="M9.3,11H4.5c-0.2,0-0.4-0.2-0.4-0.4c0-0.2,0.2-0.4,0.4-0.4h4.7c0.2,0,0.4,0.2,0.4,0.4
			C9.6,10.8,9.5,11,9.3,11z"/>
		<path id="XMLID_28_" class="st0" d="M14,13.4H4.5c-0.2,0-0.4-0.2-0.4-0.4c0-0.2,0.2-0.4,0.4-0.4H14c0.2,0,0.4,0.2,0.4,0.4
			C14.4,13.2,14.2,13.4,14,13.4z"/>
		<path id="XMLID_27_" class="st0" d="M14,15.8H4.5c-0.2,0-0.4-0.2-0.4-0.4s0.2-0.4,0.4-0.4H14c0.2,0,0.4,0.2,0.4,0.4
			S14.2,15.8,14,15.8z"/>
		<path id="XMLID_26_" class="st0" d="M14,18.2H4.5c-0.2,0-0.4-0.2-0.4-0.4s0.2-0.4,0.4-0.4H14c0.2,0,0.4,0.2,0.4,0.4
			S14.2,18.2,14,18.2z"/>
	</g>
</g>
</svg>
